<?xml version="1.0" encoding="UTF-8"?>
<svg xmlns="http://www.w3.org/2000/svg" xmlns:xlink="http://www.w3.org/1999/xlink" width="16px" height="13px" viewBox="0 0 16 13" version="1.1">
<g id="surface1">
<path style=" stroke:none;fill-rule:nonzero;fill:rgb(99.215686%,98.823529%,98.823529%);fill-opacity:1;" d="M 5.734375 -0.0273438 C 5.890625 -0.0273438 6.046875 -0.0273438 6.207031 -0.0273438 C 6.535156 -0.0273438 6.863281 -0.0273438 7.191406 -0.0273438 C 7.609375 -0.0234375 8.027344 -0.0273438 8.445312 -0.0273438 C 8.773438 -0.0273438 9.097656 -0.0273438 9.421875 -0.0273438 C 9.578125 -0.0273438 9.730469 -0.0273438 9.886719 -0.0273438 C 11.652344 -0.03125 13.472656 0.09375 14.808594 1.398438 C 15.804688 2.472656 16.054688 3.644531 16.027344 5.082031 C 15.96875 6.351562 15.386719 7.355469 14.496094 8.226562 C 14.136719 8.535156 13.789062 8.703125 13.347656 8.882812 C 12.734375 9.144531 12.550781 9.402344 12.28125 10 C 11.589844 11.332031 10.226562 12.238281 8.84375 12.699219 C 8.125 12.914062 7.429688 12.933594 6.683594 12.929688 C 6.570312 12.929688 6.453125 12.929688 6.335938 12.929688 C 4.605469 12.90625 3.167969 12.417969 1.886719 11.199219 C 0.355469 9.570312 -0.0195312 7.53125 -0.03125 5.359375 C -0.03125 5.207031 -0.03125 5.054688 -0.0351562 4.90625 C -0.0625 3.429688 0.152344 2.285156 1.195312 1.1875 C 2.453125 -0.0273438 4.082031 -0.03125 5.734375 -0.0273438 Z M 5.734375 -0.0273438 "/>
<path style=" stroke:none;fill-rule:nonzero;fill:rgb(99.215686%,99.215686%,99.215686%);fill-opacity:1;" d="M 5.734375 -0.0273438 C 5.890625 -0.0273438 6.046875 -0.0273438 6.207031 -0.0273438 C 6.535156 -0.0273438 6.863281 -0.0273438 7.191406 -0.0273438 C 7.609375 -0.0234375 8.027344 -0.0273438 8.445312 -0.0273438 C 8.773438 -0.0273438 9.097656 -0.0273438 9.421875 -0.0273438 C 9.578125 -0.0273438 9.730469 -0.0273438 9.886719 -0.0273438 C 11.652344 -0.03125 13.472656 0.09375 14.808594 1.398438 C 15.804688 2.472656 16.054688 3.644531 16.027344 5.082031 C 15.96875 6.351562 15.386719 7.355469 14.496094 8.226562 C 14.136719 8.535156 13.789062 8.703125 13.347656 8.882812 C 12.734375 9.144531 12.550781 9.402344 12.28125 10 C 11.589844 11.332031 10.226562 12.238281 8.84375 12.699219 C 8.125 12.914062 7.429688 12.933594 6.683594 12.929688 C 6.570312 12.929688 6.453125 12.929688 6.335938 12.929688 C 4.605469 12.90625 3.167969 12.417969 1.886719 11.199219 C 0.355469 9.570312 -0.0195312 7.53125 -0.03125 5.359375 C -0.03125 5.207031 -0.03125 5.054688 -0.0351562 4.90625 C -0.0625 3.429688 0.152344 2.285156 1.195312 1.1875 C 2.453125 -0.0273438 4.082031 -0.03125 5.734375 -0.0273438 Z M 1.746094 2.136719 C 0.703125 3.410156 0.898438 5.207031 1.039062 6.761719 C 1.21875 8.304688 1.804688 9.808594 3.015625 10.816406 C 4.53125 11.882812 6.15625 12.066406 7.960938 11.84375 C 9.230469 11.59375 10.355469 10.859375 11.136719 9.828125 C 11.507812 9.273438 11.746094 8.742188 11.925781 8.101562 C 12.019531 8.113281 12.109375 8.125 12.203125 8.136719 C 12.875 8.132812 13.460938 7.722656 13.945312 7.296875 C 14.777344 6.417969 14.964844 5.578125 14.953125 4.398438 C 14.921875 3.519531 14.703125 2.808594 14.09375 2.160156 C 12.742188 0.96875 11.027344 0.984375 9.328125 0.984375 C 9.195312 0.984375 9.0625 0.984375 8.925781 0.980469 C 8.648438 0.980469 8.371094 0.980469 8.09375 0.980469 C 7.742188 0.980469 7.390625 0.980469 7.039062 0.976562 C 6.765625 0.976562 6.488281 0.976562 6.214844 0.976562 C 6.023438 0.976562 5.832031 0.976562 5.640625 0.976562 C 4.199219 0.976562 2.785156 1.023438 1.746094 2.136719 Z M 1.746094 2.136719 "/>
<path style=" stroke:none;fill-rule:nonzero;fill:rgb(14.901961%,14.901961%,14.901961%);fill-opacity:1;" d="M 5.964844 0.984375 C 6.097656 0.984375 6.230469 0.984375 6.363281 0.980469 C 6.640625 0.980469 6.917969 0.980469 7.195312 0.980469 C 7.546875 0.980469 7.898438 0.980469 8.25 0.976562 C 8.527344 0.976562 8.800781 0.976562 9.078125 0.976562 C 9.269531 0.976562 9.457031 0.976562 9.648438 0.976562 C 11.191406 0.980469 12.785156 1.066406 14.011719 2.101562 C 14.710938 2.839844 14.964844 3.632812 14.949219 4.636719 C 14.949219 4.722656 14.949219 4.804688 14.949219 4.890625 C 14.917969 5.949219 14.59375 6.613281 13.863281 7.378906 C 13.386719 7.800781 12.859375 8.125 12.210938 8.132812 C 12.117188 8.121094 12.023438 8.109375 11.925781 8.101562 C 11.890625 8.226562 11.855469 8.351562 11.820312 8.480469 C 11.339844 9.925781 10.363281 10.832031 9.042969 11.5 C 7.542969 12.148438 5.65625 12.074219 4.160156 11.476562 C 2.78125 10.832031 1.957031 9.847656 1.410156 8.429688 C 1.03125 7.273438 0.976562 6.121094 0.960938 4.914062 C 0.960938 4.816406 0.960938 4.722656 0.957031 4.625 C 0.957031 3.40625 1.316406 2.585938 2.15625 1.726562 C 3.226562 0.890625 4.6875 0.984375 5.964844 0.984375 Z M 2.523438 2.929688 C 2.0625 3.503906 2.148438 4.226562 2.148438 4.921875 C 2.148438 5.132812 2.144531 5.34375 2.140625 5.554688 C 2.128906 7 2.398438 8.519531 3.386719 9.632812 C 4.488281 10.679688 5.652344 10.746094 7.101562 10.726562 C 8.226562 10.6875 9.09375 10.332031 9.902344 9.539062 C 10.546875 8.84375 10.867188 8.023438 11.03125 7.101562 C 11.089844 7.105469 11.152344 7.113281 11.214844 7.117188 C 11.921875 7.15625 12.441406 7.019531 13.019531 6.601562 C 13.546875 6.054688 13.839844 5.484375 13.84375 4.71875 C 13.828125 4.082031 13.773438 3.59375 13.347656 3.105469 C 12.585938 2.386719 11.738281 2.1875 10.710938 2.183594 C 10.644531 2.183594 10.574219 2.183594 10.5 2.183594 C 10.269531 2.179688 10.039062 2.179688 9.804688 2.179688 C 9.726562 2.179688 9.648438 2.179688 9.566406 2.179688 C 9.144531 2.175781 8.722656 2.175781 8.304688 2.175781 C 7.871094 2.175781 7.4375 2.171875 7.007812 2.171875 C 6.671875 2.167969 6.339844 2.167969 6.003906 2.167969 C 5.84375 2.167969 5.6875 2.167969 5.527344 2.164062 C 4.414062 2.15625 3.398438 2.15625 2.523438 2.929688 Z M 2.523438 2.929688 "/>
<path style=" stroke:none;fill-rule:nonzero;fill:rgb(100%,35.686275%,9.411765%);fill-opacity:1;" d="M 6.09375 3.730469 C 6.324219 3.878906 6.539062 4.035156 6.757812 4.199219 C 6.804688 4.15625 6.847656 4.113281 6.898438 4.070312 C 7.355469 3.675781 7.695312 3.507812 8.300781 3.546875 C 8.882812 3.671875 9.292969 3.984375 9.640625 4.460938 C 9.914062 4.964844 9.933594 5.441406 9.839844 6 C 9.492188 7.09375 8.664062 7.890625 7.738281 8.511719 C 7.683594 8.550781 7.625 8.589844 7.566406 8.632812 C 7.152344 8.894531 6.847656 8.960938 6.359375 8.898438 C 5.238281 8.390625 4.320312 7.5 3.777344 6.398438 C 3.589844 5.839844 3.570312 5.140625 3.75 4.574219 C 4.242188 3.652344 5.148438 3.355469 6.09375 3.730469 Z M 6.09375 3.730469 "/>
<path style=" stroke:none;fill-rule:nonzero;fill:rgb(14.509805%,14.509805%,14.509805%);fill-opacity:1;" d="M 11.503906 3.46875 C 11.824219 3.472656 11.921875 3.5 12.210938 3.675781 C 12.523438 4.007812 12.609375 4.179688 12.652344 4.644531 C 12.613281 5.113281 12.46875 5.34375 12.15625 5.679688 C 11.804688 5.863281 11.523438 5.824219 11.128906 5.800781 C 10.96875 5.636719 11.019531 5.457031 11.019531 5.234375 C 11.019531 5.140625 11.019531 5.046875 11.015625 4.949219 C 11.019531 4.851562 11.019531 4.75 11.019531 4.648438 C 11.019531 4.550781 11.019531 4.453125 11.015625 4.351562 C 11.019531 4.257812 11.019531 4.164062 11.019531 4.066406 C 11.019531 3.980469 11.019531 3.890625 11.019531 3.800781 C 11.042969 3.441406 11.125 3.5 11.503906 3.46875 Z M 11.503906 3.46875 "/>
</g>
</svg>
