0
SECTION
2
HEADER
9
$INSUNITS
70
4
0
ENDSEC
0
SECTION
2
TABLES
0
TABLE
2
LTYPE
0
LTYPE
72
65
70
64
2
CONTINUOUS
3
______
73
0
40
0
0
ENDTAB
0
TABLE
2
LAYER
0
ENDTAB
0
ENDSEC
0
SECTION
2
ENTITIES
0
LINE
8
0
10
7.7875
20
-2.525
11
20.7875
21
-2.525
0
LINE
8
0
10
7.7875
20
-16.525
11
20.7875
21
-16.525
0
LINE
8
0
10
7.2875
20
-3.025
11
7.2875
21
-16.025
0
LINE
8
0
10
21.2875
20
-3.025
11
21.2875
21
-16.025
0
ARC
8
0
10
7.7875
20
-3.025
40
0.5
50
90
51
180
0
ARC
8
0
10
20.7875
20
-3.025
40
0.5
50
0
51
90
0
ARC
8
0
10
7.7875
20
-16.025
40
0.5
50
180
51
270
0
ARC
8
0
10
20.7875
20
-16.025
40
0.5
50
270
51
0
0
LINE
8
0
10
36.3625
20
-2.525
11
49.3625
21
-2.525
0
LINE
8
0
10
36.3625
20
-16.525
11
49.3625
21
-16.525
0
LINE
8
0
10
35.8625
20
-3.025
11
35.8625
21
-16.025
0
LINE
8
0
10
49.8625
20
-3.025
11
49.8625
21
-16.025
0
ARC
8
0
10
36.3625
20
-3.025
40
0.5
50
90
51
180
0
ARC
8
0
10
49.3625
20
-3.025
40
0.5
50
0
51
90
0
ARC
8
0
10
36.3625
20
-16.025
40
0.5
50
180
51
270
0
ARC
8
0
10
49.3625
20
-16.025
40
0.5
50
270
51
0
0
LINE
8
0
10
55.4125
20
-2.525
11
68.4125
21
-2.525
0
LINE
8
0
10
55.4125
20
-16.525
11
68.4125
21
-16.525
0
LINE
8
0
10
54.9125
20
-3.025
11
54.9125
21
-16.025
0
LINE
8
0
10
68.9125
20
-3.025
11
68.9125
21
-16.025
0
ARC
8
0
10
55.4125
20
-3.025
40
0.5
50
90
51
180
0
ARC
8
0
10
68.4125
20
-3.025
40
0.5
50
0
51
90
0
ARC
8
0
10
55.4125
20
-16.025
40
0.5
50
180
51
270
0
ARC
8
0
10
68.4125
20
-16.025
40
0.5
50
270
51
0
0
LINE
8
0
10
74.4625
20
-2.525
11
87.4625
21
-2.525
0
LINE
8
0
10
74.4625
20
-16.525
11
87.4625
21
-16.525
0
LINE
8
0
10
73.9625
20
-3.025
11
73.9625
21
-16.025
0
LINE
8
0
10
87.9625
20
-3.025
11
87.9625
21
-16.025
0
ARC
8
0
10
74.4625
20
-3.025
40
0.5
50
90
51
180
0
ARC
8
0
10
87.4625
20
-3.025
40
0.5
50
0
51
90
0
ARC
8
0
10
74.4625
20
-16.025
40
0.5
50
180
51
270
0
ARC
8
0
10
87.4625
20
-16.025
40
0.5
50
270
51
0
0
LINE
8
0
10
93.5125
20
-2.525
11
106.5125
21
-2.525
0
LINE
8
0
10
93.5125
20
-16.525
11
106.5125
21
-16.525
0
LINE
8
0
10
93.0125
20
-3.025
11
93.0125
21
-16.025
0
LINE
8
0
10
107.0125
20
-3.025
11
107.0125
21
-16.025
0
ARC
8
0
10
93.5125
20
-3.025
40
0.5
50
90
51
180
0
ARC
8
0
10
106.5125
20
-3.025
40
0.5
50
0
51
90
0
ARC
8
0
10
93.5125
20
-16.025
40
0.5
50
180
51
270
0
ARC
8
0
10
106.5125
20
-16.025
40
0.5
50
270
51
0
0
LINE
8
0
10
117.325
20
-2.525
11
130.325
21
-2.525
0
LINE
8
0
10
117.325
20
-16.525
11
130.325
21
-16.525
0
LINE
8
0
10
116.825
20
-3.025
11
116.825
21
-16.025
0
LINE
8
0
10
130.825
20
-3.025
11
130.825
21
-16.025
0
ARC
8
0
10
117.325
20
-3.025
40
0.5
50
90
51
180
0
ARC
8
0
10
130.325
20
-3.025
40
0.5
50
0
51
90
0
ARC
8
0
10
117.325
20
-16.025
40
0.5
50
180
51
270
0
ARC
8
0
10
130.325
20
-16.025
40
0.5
50
270
51
0
0
LINE
8
0
10
136.375
20
-2.525
11
149.375
21
-2.525
0
LINE
8
0
10
136.375
20
-16.525
11
149.375
21
-16.525
0
LINE
8
0
10
135.875
20
-3.025
11
135.875
21
-16.025
0
LINE
8
0
10
149.875
20
-3.025
11
149.875
21
-16.025
0
ARC
8
0
10
136.375
20
-3.025
40
0.5
50
90
51
180
0
ARC
8
0
10
149.375
20
-3.025
40
0.5
50
0
51
90
0
ARC
8
0
10
136.375
20
-16.025
40
0.5
50
180
51
270
0
ARC
8
0
10
149.375
20
-16.025
40
0.5
50
270
51
0
0
LINE
8
0
10
155.425
20
-2.525
11
168.425
21
-2.525
0
LINE
8
0
10
155.425
20
-16.525
11
168.425
21
-16.525
0
LINE
8
0
10
154.925
20
-3.025
11
154.925
21
-16.025
0
LINE
8
0
10
168.925
20
-3.025
11
168.925
21
-16.025
0
ARC
8
0
10
155.425
20
-3.025
40
0.5
50
90
51
180
0
ARC
8
0
10
168.425
20
-3.025
40
0.5
50
0
51
90
0
ARC
8
0
10
155.425
20
-16.025
40
0.5
50
180
51
270
0
ARC
8
0
10
168.425
20
-16.025
40
0.5
50
270
51
0
0
LINE
8
0
10
174.475
20
-2.525
11
187.475
21
-2.525
0
LINE
8
0
10
174.475
20
-16.525
11
187.475
21
-16.525
0
LINE
8
0
10
173.975
20
-3.025
11
173.975
21
-16.025
0
LINE
8
0
10
187.975
20
-3.025
11
187.975
21
-16.025
0
ARC
8
0
10
174.475
20
-3.025
40
0.5
50
90
51
180
0
ARC
8
0
10
187.475
20
-3.025
40
0.5
50
0
51
90
0
ARC
8
0
10
174.475
20
-16.025
40
0.5
50
180
51
270
0
ARC
8
0
10
187.475
20
-16.025
40
0.5
50
270
51
0
0
LINE
8
0
10
198.2875
20
-2.525
11
211.2875
21
-2.525
0
LINE
8
0
10
198.2875
20
-16.525
11
211.2875
21
-16.525
0
LINE
8
0
10
197.7875
20
-3.025
11
197.7875
21
-16.025
0
LINE
8
0
10
211.7875
20
-3.025
11
211.7875
21
-16.025
0
ARC
8
0
10
198.2875
20
-3.025
40
0.5
50
90
51
180
0
ARC
8
0
10
211.2875
20
-3.025
40
0.5
50
0
51
90
0
ARC
8
0
10
198.2875
20
-16.025
40
0.5
50
180
51
270
0
ARC
8
0
10
211.2875
20
-16.025
40
0.5
50
270
51
0
0
LINE
8
0
10
217.3375
20
-2.525
11
230.3375
21
-2.525
0
LINE
8
0
10
217.3375
20
-16.525
11
230.3375
21
-16.525
0
LINE
8
0
10
216.8375
20
-3.025
11
216.8375
21
-16.025
0
LINE
8
0
10
230.8375
20
-3.025
11
230.8375
21
-16.025
0
ARC
8
0
10
217.3375
20
-3.025
40
0.5
50
90
51
180
0
ARC
8
0
10
230.3375
20
-3.025
40
0.5
50
0
51
90
0
ARC
8
0
10
217.3375
20
-16.025
40
0.5
50
180
51
270
0
ARC
8
0
10
230.3375
20
-16.025
40
0.5
50
270
51
0
0
LINE
8
0
10
236.3875
20
-2.525
11
249.3875
21
-2.525
0
LINE
8
0
10
236.3875
20
-16.525
11
249.3875
21
-16.525
0
LINE
8
0
10
235.8875
20
-3.025
11
235.8875
21
-16.025
0
LINE
8
0
10
249.8875
20
-3.025
11
249.8875
21
-16.025
0
ARC
8
0
10
236.3875
20
-3.025
40
0.5
50
90
51
180
0
ARC
8
0
10
249.3875
20
-3.025
40
0.5
50
0
51
90
0
ARC
8
0
10
236.3875
20
-16.025
40
0.5
50
180
51
270
0
ARC
8
0
10
249.3875
20
-16.025
40
0.5
50
270
51
0
0
LINE
8
0
10
255.4375
20
-2.525
11
268.4375
21
-2.525
0
LINE
8
0
10
255.4375
20
-16.525
11
268.4375
21
-16.525
0
LINE
8
0
10
254.9375
20
-3.025
11
254.9375
21
-16.025
0
LINE
8
0
10
268.9375
20
-3.025
11
268.9375
21
-16.025
0
ARC
8
0
10
255.4375
20
-3.025
40
0.5
50
90
51
180
0
ARC
8
0
10
268.4375
20
-3.025
40
0.5
50
0
51
90
0
ARC
8
0
10
255.4375
20
-16.025
40
0.5
50
180
51
270
0
ARC
8
0
10
268.4375
20
-16.025
40
0.5
50
270
51
0
0
LINE
8
0
10
288.775
20
-2.525
11
301.775
21
-2.525
0
LINE
8
0
10
288.775
20
-16.525
11
301.775
21
-16.525
0
LINE
8
0
10
288.275
20
-3.025
11
288.275
21
-16.025
0
LINE
8
0
10
302.275
20
-3.025
11
302.275
21
-16.025
0
ARC
8
0
10
288.775
20
-3.025
40
0.5
50
90
51
180
0
ARC
8
0
10
301.775
20
-3.025
40
0.5
50
0
51
90
0
ARC
8
0
10
288.775
20
-16.025
40
0.5
50
180
51
270
0
ARC
8
0
10
301.775
20
-16.025
40
0.5
50
270
51
0
0
LINE
8
0
10
307.825
20
-2.525
11
320.825
21
-2.525
0
LINE
8
0
10
307.825
20
-16.525
11
320.825
21
-16.525
0
LINE
8
0
10
307.325
20
-3.025
11
307.325
21
-16.025
0
LINE
8
0
10
321.325
20
-3.025
11
321.325
21
-16.025
0
ARC
8
0
10
307.825
20
-3.025
40
0.5
50
90
51
180
0
ARC
8
0
10
320.825
20
-3.025
40
0.5
50
0
51
90
0
ARC
8
0
10
307.825
20
-16.025
40
0.5
50
180
51
270
0
ARC
8
0
10
320.825
20
-16.025
40
0.5
50
270
51
0
0
LINE
8
0
10
3.025
20
-26.3375
11
16.025
21
-26.3375
0
LINE
8
0
10
3.025
20
-40.3375
11
16.025
21
-40.3375
0
LINE
8
0
10
2.525
20
-26.8375
11
2.525
21
-39.8375
0
LINE
8
0
10
16.525
20
-26.8375
11
16.525
21
-39.8375
0
ARC
8
0
10
3.025
20
-26.8375
40
0.5
50
90
51
180
0
ARC
8
0
10
16.025
20
-26.8375
40
0.5
50
0
51
90
0
ARC
8
0
10
3.025
20
-39.8375
40
0.5
50
180
51
270
0
ARC
8
0
10
16.025
20
-39.8375
40
0.5
50
270
51
0
0
LINE
8
0
10
22.075
20
-26.3375
11
35.075
21
-26.3375
0
LINE
8
0
10
22.075
20
-40.3375
11
35.075
21
-40.3375
0
LINE
8
0
10
21.575
20
-26.8375
11
21.575
21
-39.8375
0
LINE
8
0
10
35.575
20
-26.8375
11
35.575
21
-39.8375
0
ARC
8
0
10
22.075
20
-26.8375
40
0.5
50
90
51
180
0
ARC
8
0
10
35.075
20
-26.8375
40
0.5
50
0
51
90
0
ARC
8
0
10
22.075
20
-39.8375
40
0.5
50
180
51
270
0
ARC
8
0
10
35.075
20
-39.8375
40
0.5
50
270
51
0
0
LINE
8
0
10
41.125
20
-26.3375
11
54.125
21
-26.3375
0
LINE
8
0
10
41.125
20
-40.3375
11
54.125
21
-40.3375
0
LINE
8
0
10
40.625
20
-26.8375
11
40.625
21
-39.8375
0
LINE
8
0
10
54.625
20
-26.8375
11
54.625
21
-39.8375
0
ARC
8
0
10
41.125
20
-26.8375
40
0.5
50
90
51
180
0
ARC
8
0
10
54.125
20
-26.8375
40
0.5
50
0
51
90
0
ARC
8
0
10
41.125
20
-39.8375
40
0.5
50
180
51
270
0
ARC
8
0
10
54.125
20
-39.8375
40
0.5
50
270
51
0
0
LINE
8
0
10
60.175
20
-26.3375
11
73.175
21
-26.3375
0
LINE
8
0
10
60.175
20
-40.3375
11
73.175
21
-40.3375
0
LINE
8
0
10
59.675
20
-26.8375
11
59.675
21
-39.8375
0
LINE
8
0
10
73.675
20
-26.8375
11
73.675
21
-39.8375
0
ARC
8
0
10
60.175
20
-26.8375
40
0.5
50
90
51
180
0
ARC
8
0
10
73.175
20
-26.8375
40
0.5
50
0
51
90
0
ARC
8
0
10
60.175
20
-39.8375
40
0.5
50
180
51
270
0
ARC
8
0
10
73.175
20
-39.8375
40
0.5
50
270
51
0
0
LINE
8
0
10
79.225
20
-26.3375
11
92.225
21
-26.3375
0
LINE
8
0
10
79.225
20
-40.3375
11
92.225
21
-40.3375
0
LINE
8
0
10
78.725
20
-26.8375
11
78.725
21
-39.8375
0
LINE
8
0
10
92.725
20
-26.8375
11
92.725
21
-39.8375
0
ARC
8
0
10
79.225
20
-26.8375
40
0.5
50
90
51
180
0
ARC
8
0
10
92.225
20
-26.8375
40
0.5
50
0
51
90
0
ARC
8
0
10
79.225
20
-39.8375
40
0.5
50
180
51
270
0
ARC
8
0
10
92.225
20
-39.8375
40
0.5
50
270
51
0
0
LINE
8
0
10
98.275
20
-26.3375
11
111.275
21
-26.3375
0
LINE
8
0
10
98.275
20
-40.3375
11
111.275
21
-40.3375
0
LINE
8
0
10
97.775
20
-26.8375
11
97.775
21
-39.8375
0
LINE
8
0
10
111.775
20
-26.8375
11
111.775
21
-39.8375
0
ARC
8
0
10
98.275
20
-26.8375
40
0.5
50
90
51
180
0
ARC
8
0
10
111.275
20
-26.8375
40
0.5
50
0
51
90
0
ARC
8
0
10
98.275
20
-39.8375
40
0.5
50
180
51
270
0
ARC
8
0
10
111.275
20
-39.8375
40
0.5
50
270
51
0
0
LINE
8
0
10
117.325
20
-26.3375
11
130.325
21
-26.3375
0
LINE
8
0
10
117.325
20
-40.3375
11
130.325
21
-40.3375
0
LINE
8
0
10
116.825
20
-26.8375
11
116.825
21
-39.8375
0
LINE
8
0
10
130.825
20
-26.8375
11
130.825
21
-39.8375
0
ARC
8
0
10
117.325
20
-26.8375
40
0.5
50
90
51
180
0
ARC
8
0
10
130.325
20
-26.8375
40
0.5
50
0
51
90
0
ARC
8
0
10
117.325
20
-39.8375
40
0.5
50
180
51
270
0
ARC
8
0
10
130.325
20
-39.8375
40
0.5
50
270
51
0
0
LINE
8
0
10
136.375
20
-26.3375
11
149.375
21
-26.3375
0
LINE
8
0
10
136.375
20
-40.3375
11
149.375
21
-40.3375
0
LINE
8
0
10
135.875
20
-26.8375
11
135.875
21
-39.8375
0
LINE
8
0
10
149.875
20
-26.8375
11
149.875
21
-39.8375
0
ARC
8
0
10
136.375
20
-26.8375
40
0.5
50
90
51
180
0
ARC
8
0
10
149.375
20
-26.8375
40
0.5
50
0
51
90
0
ARC
8
0
10
136.375
20
-39.8375
40
0.5
50
180
51
270
0
ARC
8
0
10
149.375
20
-39.8375
40
0.5
50
270
51
0
0
LINE
8
0
10
155.425
20
-26.3375
11
168.425
21
-26.3375
0
LINE
8
0
10
155.425
20
-40.3375
11
168.425
21
-40.3375
0
LINE
8
0
10
154.925
20
-26.8375
11
154.925
21
-39.8375
0
LINE
8
0
10
168.925
20
-26.8375
11
168.925
21
-39.8375
0
ARC
8
0
10
155.425
20
-26.8375
40
0.5
50
90
51
180
0
ARC
8
0
10
168.425
20
-26.8375
40
0.5
50
0
51
90
0
ARC
8
0
10
155.425
20
-39.8375
40
0.5
50
180
51
270
0
ARC
8
0
10
168.425
20
-39.8375
40
0.5
50
270
51
0
0
LINE
8
0
10
174.475
20
-26.3375
11
187.475
21
-26.3375
0
LINE
8
0
10
174.475
20
-40.3375
11
187.475
21
-40.3375
0
LINE
8
0
10
173.975
20
-26.8375
11
173.975
21
-39.8375
0
LINE
8
0
10
187.975
20
-26.8375
11
187.975
21
-39.8375
0
ARC
8
0
10
174.475
20
-26.8375
40
0.5
50
90
51
180
0
ARC
8
0
10
187.475
20
-26.8375
40
0.5
50
0
51
90
0
ARC
8
0
10
174.475
20
-39.8375
40
0.5
50
180
51
270
0
ARC
8
0
10
187.475
20
-39.8375
40
0.5
50
270
51
0
0
LINE
8
0
10
193.525
20
-26.3375
11
206.525
21
-26.3375
0
LINE
8
0
10
193.525
20
-40.3375
11
206.525
21
-40.3375
0
LINE
8
0
10
193.025
20
-26.8375
11
193.025
21
-39.8375
0
LINE
8
0
10
207.025
20
-26.8375
11
207.025
21
-39.8375
0
ARC
8
0
10
193.525
20
-26.8375
40
0.5
50
90
51
180
0
ARC
8
0
10
206.525
20
-26.8375
40
0.5
50
0
51
90
0
ARC
8
0
10
193.525
20
-39.8375
40
0.5
50
180
51
270
0
ARC
8
0
10
206.525
20
-39.8375
40
0.5
50
270
51
0
0
LINE
8
0
10
212.575
20
-26.3375
11
225.575
21
-26.3375
0
LINE
8
0
10
212.575
20
-40.3375
11
225.575
21
-40.3375
0
LINE
8
0
10
212.075
20
-26.8375
11
212.075
21
-39.8375
0
LINE
8
0
10
226.075
20
-26.8375
11
226.075
21
-39.8375
0
ARC
8
0
10
212.575
20
-26.8375
40
0.5
50
90
51
180
0
ARC
8
0
10
225.575
20
-26.8375
40
0.5
50
0
51
90
0
ARC
8
0
10
212.575
20
-39.8375
40
0.5
50
180
51
270
0
ARC
8
0
10
225.575
20
-39.8375
40
0.5
50
270
51
0
0
LINE
8
0
10
231.625
20
-26.3375
11
244.625
21
-26.3375
0
LINE
8
0
10
231.625
20
-40.3375
11
244.625
21
-40.3375
0
LINE
8
0
10
231.125
20
-26.8375
11
231.125
21
-39.8375
0
LINE
8
0
10
245.125
20
-26.8375
11
245.125
21
-39.8375
0
ARC
8
0
10
231.625
20
-26.8375
40
0.5
50
90
51
180
0
ARC
8
0
10
244.625
20
-26.8375
40
0.5
50
0
51
90
0
ARC
8
0
10
231.625
20
-39.8375
40
0.5
50
180
51
270
0
ARC
8
0
10
244.625
20
-39.8375
40
0.5
50
270
51
0
0
LINE
8
0
10
260.2
20
-26.3375
11
273.2
21
-26.3375
0
LINE
8
0
10
260.2
20
-40.3375
11
273.2
21
-40.3375
0
LINE
8
0
10
259.7
20
-26.8375
11
259.7
21
-39.8375
0
LINE
8
0
10
273.7
20
-26.8375
11
273.7
21
-39.8375
0
ARC
8
0
10
260.2
20
-26.8375
40
0.5
50
90
51
180
0
ARC
8
0
10
273.2
20
-26.8375
40
0.5
50
0
51
90
0
ARC
8
0
10
260.2
20
-39.8375
40
0.5
50
180
51
270
0
ARC
8
0
10
273.2
20
-39.8375
40
0.5
50
270
51
0
0
LINE
8
0
10
251.762
20
-27.3375
11
257.762
21
-27.3375
0
LINE
8
0
10
251.762
20
-42.3375
11
257.762
21
-42.3375
0
LINE
8
0
10
251.262
20
-27.8375
11
251.262
21
-41.8375
0
LINE
8
0
10
258.262
20
-27.8375
11
258.262
21
-41.8375
0
ARC
8
0
10
251.762
20
-27.8375
40
0.5
50
90
51
180
0
ARC
8
0
10
257.762
20
-27.8375
40
0.5
50
0
51
90
0
ARC
8
0
10
251.762
20
-41.8375
40
0.5
50
180
51
270
0
ARC
8
0
10
257.762
20
-41.8375
40
0.5
50
270
51
0
0
LINE
8
0
10
275.638
20
-27.3375
11
281.638
21
-27.3375
0
LINE
8
0
10
275.638
20
-42.3375
11
281.638
21
-42.3375
0
LINE
8
0
10
275.138
20
-27.8375
11
275.138
21
-41.8375
0
LINE
8
0
10
282.138
20
-27.8375
11
282.138
21
-41.8375
0
ARC
8
0
10
275.638
20
-27.8375
40
0.5
50
90
51
180
0
ARC
8
0
10
281.638
20
-27.8375
40
0.5
50
0
51
90
0
ARC
8
0
10
275.638
20
-41.8375
40
0.5
50
180
51
270
0
ARC
8
0
10
281.638
20
-41.8375
40
0.5
50
270
51
0
0
LINE
8
0
10
288.775
20
-26.3375
11
301.775
21
-26.3375
0
LINE
8
0
10
288.775
20
-40.3375
11
301.775
21
-40.3375
0
LINE
8
0
10
288.275
20
-26.8375
11
288.275
21
-39.8375
0
LINE
8
0
10
302.275
20
-26.8375
11
302.275
21
-39.8375
0
ARC
8
0
10
288.775
20
-26.8375
40
0.5
50
90
51
180
0
ARC
8
0
10
301.775
20
-26.8375
40
0.5
50
0
51
90
0
ARC
8
0
10
288.775
20
-39.8375
40
0.5
50
180
51
270
0
ARC
8
0
10
301.775
20
-39.8375
40
0.5
50
270
51
0
0
LINE
8
0
10
307.825
20
-26.3375
11
320.825
21
-26.3375
0
LINE
8
0
10
307.825
20
-40.3375
11
320.825
21
-40.3375
0
LINE
8
0
10
307.325
20
-26.8375
11
307.325
21
-39.8375
0
LINE
8
0
10
321.325
20
-26.8375
11
321.325
21
-39.8375
0
ARC
8
0
10
307.825
20
-26.8375
40
0.5
50
90
51
180
0
ARC
8
0
10
320.825
20
-26.8375
40
0.5
50
0
51
90
0
ARC
8
0
10
307.825
20
-39.8375
40
0.5
50
180
51
270
0
ARC
8
0
10
320.825
20
-39.8375
40
0.5
50
270
51
0
0
LINE
8
0
10
7.7875
20
-45.3875
11
20.7875
21
-45.3875
0
LINE
8
0
10
7.7875
20
-59.3875
11
20.7875
21
-59.3875
0
LINE
8
0
10
7.2875
20
-45.8875
11
7.2875
21
-58.8875
0
LINE
8
0
10
21.2875
20
-45.8875
11
21.2875
21
-58.8875
0
ARC
8
0
10
7.7875
20
-45.8875
40
0.5
50
90
51
180
0
ARC
8
0
10
20.7875
20
-45.8875
40
0.5
50
0
51
90
0
ARC
8
0
10
7.7875
20
-58.8875
40
0.5
50
180
51
270
0
ARC
8
0
10
20.7875
20
-58.8875
40
0.5
50
270
51
0
0
LINE
8
0
10
31.6
20
-45.3875
11
44.6
21
-45.3875
0
LINE
8
0
10
31.6
20
-59.3875
11
44.6
21
-59.3875
0
LINE
8
0
10
31.1
20
-45.8875
11
31.1
21
-58.8875
0
LINE
8
0
10
45.1
20
-45.8875
11
45.1
21
-58.8875
0
ARC
8
0
10
31.6
20
-45.8875
40
0.5
50
90
51
180
0
ARC
8
0
10
44.6
20
-45.8875
40
0.5
50
0
51
90
0
ARC
8
0
10
31.6
20
-58.8875
40
0.5
50
180
51
270
0
ARC
8
0
10
44.6
20
-58.8875
40
0.5
50
270
51
0
0
LINE
8
0
10
50.65
20
-45.3875
11
63.65
21
-45.3875
0
LINE
8
0
10
50.65
20
-59.3875
11
63.65
21
-59.3875
0
LINE
8
0
10
50.15
20
-45.8875
11
50.15
21
-58.8875
0
LINE
8
0
10
64.15
20
-45.8875
11
64.15
21
-58.8875
0
ARC
8
0
10
50.65
20
-45.8875
40
0.5
50
90
51
180
0
ARC
8
0
10
63.65
20
-45.8875
40
0.5
50
0
51
90
0
ARC
8
0
10
50.65
20
-58.8875
40
0.5
50
180
51
270
0
ARC
8
0
10
63.65
20
-58.8875
40
0.5
50
270
51
0
0
LINE
8
0
10
69.7
20
-45.3875
11
82.7
21
-45.3875
0
LINE
8
0
10
69.7
20
-59.3875
11
82.7
21
-59.3875
0
LINE
8
0
10
69.2
20
-45.8875
11
69.2
21
-58.8875
0
LINE
8
0
10
83.2
20
-45.8875
11
83.2
21
-58.8875
0
ARC
8
0
10
69.7
20
-45.8875
40
0.5
50
90
51
180
0
ARC
8
0
10
82.7
20
-45.8875
40
0.5
50
0
51
90
0
ARC
8
0
10
69.7
20
-58.8875
40
0.5
50
180
51
270
0
ARC
8
0
10
82.7
20
-58.8875
40
0.5
50
270
51
0
0
LINE
8
0
10
88.75
20
-45.3875
11
101.75
21
-45.3875
0
LINE
8
0
10
88.75
20
-59.3875
11
101.75
21
-59.3875
0
LINE
8
0
10
88.25
20
-45.8875
11
88.25
21
-58.8875
0
LINE
8
0
10
102.25
20
-45.8875
11
102.25
21
-58.8875
0
ARC
8
0
10
88.75
20
-45.8875
40
0.5
50
90
51
180
0
ARC
8
0
10
101.75
20
-45.8875
40
0.5
50
0
51
90
0
ARC
8
0
10
88.75
20
-58.8875
40
0.5
50
180
51
270
0
ARC
8
0
10
101.75
20
-58.8875
40
0.5
50
270
51
0
0
LINE
8
0
10
107.8
20
-45.3875
11
120.8
21
-45.3875
0
LINE
8
0
10
107.8
20
-59.3875
11
120.8
21
-59.3875
0
LINE
8
0
10
107.3
20
-45.8875
11
107.3
21
-58.8875
0
LINE
8
0
10
121.3
20
-45.8875
11
121.3
21
-58.8875
0
ARC
8
0
10
107.8
20
-45.8875
40
0.5
50
90
51
180
0
ARC
8
0
10
120.8
20
-45.8875
40
0.5
50
0
51
90
0
ARC
8
0
10
107.8
20
-58.8875
40
0.5
50
180
51
270
0
ARC
8
0
10
120.8
20
-58.8875
40
0.5
50
270
51
0
0
LINE
8
0
10
126.85
20
-45.3875
11
139.85
21
-45.3875
0
LINE
8
0
10
126.85
20
-59.3875
11
139.85
21
-59.3875
0
LINE
8
0
10
126.35
20
-45.8875
11
126.35
21
-58.8875
0
LINE
8
0
10
140.35
20
-45.8875
11
140.35
21
-58.8875
0
ARC
8
0
10
126.85
20
-45.8875
40
0.5
50
90
51
180
0
ARC
8
0
10
139.85
20
-45.8875
40
0.5
50
0
51
90
0
ARC
8
0
10
126.85
20
-58.8875
40
0.5
50
180
51
270
0
ARC
8
0
10
139.85
20
-58.8875
40
0.5
50
270
51
0
0
LINE
8
0
10
145.9
20
-45.3875
11
158.9
21
-45.3875
0
LINE
8
0
10
145.9
20
-59.3875
11
158.9
21
-59.3875
0
LINE
8
0
10
145.4
20
-45.8875
11
145.4
21
-58.8875
0
LINE
8
0
10
159.4
20
-45.8875
11
159.4
21
-58.8875
0
ARC
8
0
10
145.9
20
-45.8875
40
0.5
50
90
51
180
0
ARC
8
0
10
158.9
20
-45.8875
40
0.5
50
0
51
90
0
ARC
8
0
10
145.9
20
-58.8875
40
0.5
50
180
51
270
0
ARC
8
0
10
158.9
20
-58.8875
40
0.5
50
270
51
0
0
LINE
8
0
10
164.95
20
-45.3875
11
177.95
21
-45.3875
0
LINE
8
0
10
164.95
20
-59.3875
11
177.95
21
-59.3875
0
LINE
8
0
10
164.45
20
-45.8875
11
164.45
21
-58.8875
0
LINE
8
0
10
178.45
20
-45.8875
11
178.45
21
-58.8875
0
ARC
8
0
10
164.95
20
-45.8875
40
0.5
50
90
51
180
0
ARC
8
0
10
177.95
20
-45.8875
40
0.5
50
0
51
90
0
ARC
8
0
10
164.95
20
-58.8875
40
0.5
50
180
51
270
0
ARC
8
0
10
177.95
20
-58.8875
40
0.5
50
270
51
0
0
LINE
8
0
10
184
20
-45.3875
11
197
21
-45.3875
0
LINE
8
0
10
184
20
-59.3875
11
197
21
-59.3875
0
LINE
8
0
10
183.5
20
-45.8875
11
183.5
21
-58.8875
0
LINE
8
0
10
197.5
20
-45.8875
11
197.5
21
-58.8875
0
ARC
8
0
10
184
20
-45.8875
40
0.5
50
90
51
180
0
ARC
8
0
10
197
20
-45.8875
40
0.5
50
0
51
90
0
ARC
8
0
10
184
20
-58.8875
40
0.5
50
180
51
270
0
ARC
8
0
10
197
20
-58.8875
40
0.5
50
270
51
0
0
LINE
8
0
10
203.05
20
-45.3875
11
216.05
21
-45.3875
0
LINE
8
0
10
203.05
20
-59.3875
11
216.05
21
-59.3875
0
LINE
8
0
10
202.55
20
-45.8875
11
202.55
21
-58.8875
0
LINE
8
0
10
216.55
20
-45.8875
11
216.55
21
-58.8875
0
ARC
8
0
10
203.05
20
-45.8875
40
0.5
50
90
51
180
0
ARC
8
0
10
216.05
20
-45.8875
40
0.5
50
0
51
90
0
ARC
8
0
10
203.05
20
-58.8875
40
0.5
50
180
51
270
0
ARC
8
0
10
216.05
20
-58.8875
40
0.5
50
270
51
0
0
LINE
8
0
10
222.1
20
-45.3875
11
235.1
21
-45.3875
0
LINE
8
0
10
222.1
20
-59.3875
11
235.1
21
-59.3875
0
LINE
8
0
10
221.6
20
-45.8875
11
221.6
21
-58.8875
0
LINE
8
0
10
235.6
20
-45.8875
11
235.6
21
-58.8875
0
ARC
8
0
10
222.1
20
-45.8875
40
0.5
50
90
51
180
0
ARC
8
0
10
235.1
20
-45.8875
40
0.5
50
0
51
90
0
ARC
8
0
10
222.1
20
-58.8875
40
0.5
50
180
51
270
0
ARC
8
0
10
235.1
20
-58.8875
40
0.5
50
270
51
0
0
LINE
8
0
10
241.15
20
-45.3875
11
254.15
21
-45.3875
0
LINE
8
0
10
241.15
20
-59.3875
11
254.15
21
-59.3875
0
LINE
8
0
10
240.65
20
-45.8875
11
240.65
21
-58.8875
0
LINE
8
0
10
254.65
20
-45.8875
11
254.65
21
-58.8875
0
ARC
8
0
10
241.15
20
-45.8875
40
0.5
50
90
51
180
0
ARC
8
0
10
254.15
20
-45.8875
40
0.5
50
0
51
90
0
ARC
8
0
10
241.15
20
-58.8875
40
0.5
50
180
51
270
0
ARC
8
0
10
254.15
20
-58.8875
40
0.5
50
270
51
0
0
LINE
8
0
10
264.9625
20
-45.3875
11
277.9625
21
-45.3875
0
LINE
8
0
10
264.9625
20
-59.3875
11
277.9625
21
-59.3875
0
LINE
8
0
10
264.4625
20
-45.8875
11
264.4625
21
-58.8875
0
LINE
8
0
10
278.4625
20
-45.8875
11
278.4625
21
-58.8875
0
ARC
8
0
10
264.9625
20
-45.8875
40
0.5
50
90
51
180
0
ARC
8
0
10
277.9625
20
-45.8875
40
0.5
50
0
51
90
0
ARC
8
0
10
264.9625
20
-58.8875
40
0.5
50
180
51
270
0
ARC
8
0
10
277.9625
20
-58.8875
40
0.5
50
270
51
0
0
LINE
8
0
10
288.775
20
-45.3875
11
301.775
21
-45.3875
0
LINE
8
0
10
288.775
20
-59.3875
11
301.775
21
-59.3875
0
LINE
8
0
10
288.275
20
-45.8875
11
288.275
21
-58.8875
0
LINE
8
0
10
302.275
20
-45.8875
11
302.275
21
-58.8875
0
ARC
8
0
10
288.775
20
-45.8875
40
0.5
50
90
51
180
0
ARC
8
0
10
301.775
20
-45.8875
40
0.5
50
0
51
90
0
ARC
8
0
10
288.775
20
-58.8875
40
0.5
50
180
51
270
0
ARC
8
0
10
301.775
20
-58.8875
40
0.5
50
270
51
0
0
LINE
8
0
10
307.825
20
-45.3875
11
320.825
21
-45.3875
0
LINE
8
0
10
307.825
20
-59.3875
11
320.825
21
-59.3875
0
LINE
8
0
10
307.325
20
-45.8875
11
307.325
21
-58.8875
0
LINE
8
0
10
321.325
20
-45.8875
11
321.325
21
-58.8875
0
ARC
8
0
10
307.825
20
-45.8875
40
0.5
50
90
51
180
0
ARC
8
0
10
320.825
20
-45.8875
40
0.5
50
0
51
90
0
ARC
8
0
10
307.825
20
-58.8875
40
0.5
50
180
51
270
0
ARC
8
0
10
320.825
20
-58.8875
40
0.5
50
270
51
0
0
LINE
8
0
10
10.16875
20
-64.4375
11
23.16875
21
-64.4375
0
LINE
8
0
10
10.16875
20
-78.4375
11
23.16875
21
-78.4375
0
LINE
8
0
10
9.66875
20
-64.9375
11
9.66875
21
-77.9375
0
LINE
8
0
10
23.66875
20
-64.9375
11
23.66875
21
-77.9375
0
ARC
8
0
10
10.16875
20
-64.9375
40
0.5
50
90
51
180
0
ARC
8
0
10
23.16875
20
-64.9375
40
0.5
50
0
51
90
0
ARC
8
0
10
10.16875
20
-77.9375
40
0.5
50
180
51
270
0
ARC
8
0
10
23.16875
20
-77.9375
40
0.5
50
270
51
0
0
LINE
8
0
10
36.3625
20
-64.4375
11
49.3625
21
-64.4375
0
LINE
8
0
10
36.3625
20
-78.4375
11
49.3625
21
-78.4375
0
LINE
8
0
10
35.8625
20
-64.9375
11
35.8625
21
-77.9375
0
LINE
8
0
10
49.8625
20
-64.9375
11
49.8625
21
-77.9375
0
ARC
8
0
10
36.3625
20
-64.9375
40
0.5
50
90
51
180
0
ARC
8
0
10
49.3625
20
-64.9375
40
0.5
50
0
51
90
0
ARC
8
0
10
36.3625
20
-77.9375
40
0.5
50
180
51
270
0
ARC
8
0
10
49.3625
20
-77.9375
40
0.5
50
270
51
0
0
LINE
8
0
10
55.4125
20
-64.4375
11
68.4125
21
-64.4375
0
LINE
8
0
10
55.4125
20
-78.4375
11
68.4125
21
-78.4375
0
LINE
8
0
10
54.9125
20
-64.9375
11
54.9125
21
-77.9375
0
LINE
8
0
10
68.9125
20
-64.9375
11
68.9125
21
-77.9375
0
ARC
8
0
10
55.4125
20
-64.9375
40
0.5
50
90
51
180
0
ARC
8
0
10
68.4125
20
-64.9375
40
0.5
50
0
51
90
0
ARC
8
0
10
55.4125
20
-77.9375
40
0.5
50
180
51
270
0
ARC
8
0
10
68.4125
20
-77.9375
40
0.5
50
270
51
0
0
LINE
8
0
10
74.4625
20
-64.4375
11
87.4625
21
-64.4375
0
LINE
8
0
10
74.4625
20
-78.4375
11
87.4625
21
-78.4375
0
LINE
8
0
10
73.9625
20
-64.9375
11
73.9625
21
-77.9375
0
LINE
8
0
10
87.9625
20
-64.9375
11
87.9625
21
-77.9375
0
ARC
8
0
10
74.4625
20
-64.9375
40
0.5
50
90
51
180
0
ARC
8
0
10
87.4625
20
-64.9375
40
0.5
50
0
51
90
0
ARC
8
0
10
74.4625
20
-77.9375
40
0.5
50
180
51
270
0
ARC
8
0
10
87.4625
20
-77.9375
40
0.5
50
270
51
0
0
LINE
8
0
10
93.5125
20
-64.4375
11
106.5125
21
-64.4375
0
LINE
8
0
10
93.5125
20
-78.4375
11
106.5125
21
-78.4375
0
LINE
8
0
10
93.0125
20
-64.9375
11
93.0125
21
-77.9375
0
LINE
8
0
10
107.0125
20
-64.9375
11
107.0125
21
-77.9375
0
ARC
8
0
10
93.5125
20
-64.9375
40
0.5
50
90
51
180
0
ARC
8
0
10
106.5125
20
-64.9375
40
0.5
50
0
51
90
0
ARC
8
0
10
93.5125
20
-77.9375
40
0.5
50
180
51
270
0
ARC
8
0
10
106.5125
20
-77.9375
40
0.5
50
270
51
0
0
LINE
8
0
10
112.5625
20
-64.4375
11
125.5625
21
-64.4375
0
LINE
8
0
10
112.5625
20
-78.4375
11
125.5625
21
-78.4375
0
LINE
8
0
10
112.0625
20
-64.9375
11
112.0625
21
-77.9375
0
LINE
8
0
10
126.0625
20
-64.9375
11
126.0625
21
-77.9375
0
ARC
8
0
10
112.5625
20
-64.9375
40
0.5
50
90
51
180
0
ARC
8
0
10
125.5625
20
-64.9375
40
0.5
50
0
51
90
0
ARC
8
0
10
112.5625
20
-77.9375
40
0.5
50
180
51
270
0
ARC
8
0
10
125.5625
20
-77.9375
40
0.5
50
270
51
0
0
LINE
8
0
10
131.6125
20
-64.4375
11
144.6125
21
-64.4375
0
LINE
8
0
10
131.6125
20
-78.4375
11
144.6125
21
-78.4375
0
LINE
8
0
10
131.1125
20
-64.9375
11
131.1125
21
-77.9375
0
LINE
8
0
10
145.1125
20
-64.9375
11
145.1125
21
-77.9375
0
ARC
8
0
10
131.6125
20
-64.9375
40
0.5
50
90
51
180
0
ARC
8
0
10
144.6125
20
-64.9375
40
0.5
50
0
51
90
0
ARC
8
0
10
131.6125
20
-77.9375
40
0.5
50
180
51
270
0
ARC
8
0
10
144.6125
20
-77.9375
40
0.5
50
270
51
0
0
LINE
8
0
10
150.6625
20
-64.4375
11
163.6625
21
-64.4375
0
LINE
8
0
10
150.6625
20
-78.4375
11
163.6625
21
-78.4375
0
LINE
8
0
10
150.1625
20
-64.9375
11
150.1625
21
-77.9375
0
LINE
8
0
10
164.1625
20
-64.9375
11
164.1625
21
-77.9375
0
ARC
8
0
10
150.6625
20
-64.9375
40
0.5
50
90
51
180
0
ARC
8
0
10
163.6625
20
-64.9375
40
0.5
50
0
51
90
0
ARC
8
0
10
150.6625
20
-77.9375
40
0.5
50
180
51
270
0
ARC
8
0
10
163.6625
20
-77.9375
40
0.5
50
270
51
0
0
LINE
8
0
10
169.7125
20
-64.4375
11
182.7125
21
-64.4375
0
LINE
8
0
10
169.7125
20
-78.4375
11
182.7125
21
-78.4375
0
LINE
8
0
10
169.2125
20
-64.9375
11
169.2125
21
-77.9375
0
LINE
8
0
10
183.2125
20
-64.9375
11
183.2125
21
-77.9375
0
ARC
8
0
10
169.7125
20
-64.9375
40
0.5
50
90
51
180
0
ARC
8
0
10
182.7125
20
-64.9375
40
0.5
50
0
51
90
0
ARC
8
0
10
169.7125
20
-77.9375
40
0.5
50
180
51
270
0
ARC
8
0
10
182.7125
20
-77.9375
40
0.5
50
270
51
0
0
LINE
8
0
10
188.7625
20
-64.4375
11
201.7625
21
-64.4375
0
LINE
8
0
10
188.7625
20
-78.4375
11
201.7625
21
-78.4375
0
LINE
8
0
10
188.2625
20
-64.9375
11
188.2625
21
-77.9375
0
LINE
8
0
10
202.2625
20
-64.9375
11
202.2625
21
-77.9375
0
ARC
8
0
10
188.7625
20
-64.9375
40
0.5
50
90
51
180
0
ARC
8
0
10
201.7625
20
-64.9375
40
0.5
50
0
51
90
0
ARC
8
0
10
188.7625
20
-77.9375
40
0.5
50
180
51
270
0
ARC
8
0
10
201.7625
20
-77.9375
40
0.5
50
270
51
0
0
LINE
8
0
10
207.8125
20
-64.4375
11
220.8125
21
-64.4375
0
LINE
8
0
10
207.8125
20
-78.4375
11
220.8125
21
-78.4375
0
LINE
8
0
10
207.3125
20
-64.9375
11
207.3125
21
-77.9375
0
LINE
8
0
10
221.3125
20
-64.9375
11
221.3125
21
-77.9375
0
ARC
8
0
10
207.8125
20
-64.9375
40
0.5
50
90
51
180
0
ARC
8
0
10
220.8125
20
-64.9375
40
0.5
50
0
51
90
0
ARC
8
0
10
207.8125
20
-77.9375
40
0.5
50
180
51
270
0
ARC
8
0
10
220.8125
20
-77.9375
40
0.5
50
270
51
0
0
LINE
8
0
10
226.8625
20
-64.4375
11
239.8625
21
-64.4375
0
LINE
8
0
10
226.8625
20
-78.4375
11
239.8625
21
-78.4375
0
LINE
8
0
10
226.3625
20
-64.9375
11
226.3625
21
-77.9375
0
LINE
8
0
10
240.3625
20
-64.9375
11
240.3625
21
-77.9375
0
ARC
8
0
10
226.8625
20
-64.9375
40
0.5
50
90
51
180
0
ARC
8
0
10
239.8625
20
-64.9375
40
0.5
50
0
51
90
0
ARC
8
0
10
226.8625
20
-77.9375
40
0.5
50
180
51
270
0
ARC
8
0
10
239.8625
20
-77.9375
40
0.5
50
270
51
0
0
LINE
8
0
10
257.81875
20
-64.4375
11
270.81875
21
-64.4375
0
LINE
8
0
10
257.81875
20
-78.4375
11
270.81875
21
-78.4375
0
LINE
8
0
10
257.31875
20
-64.9375
11
257.31875
21
-77.9375
0
LINE
8
0
10
271.31875
20
-64.9375
11
271.31875
21
-77.9375
0
ARC
8
0
10
257.81875
20
-64.9375
40
0.5
50
90
51
180
0
ARC
8
0
10
270.81875
20
-64.9375
40
0.5
50
0
51
90
0
ARC
8
0
10
257.81875
20
-77.9375
40
0.5
50
180
51
270
0
ARC
8
0
10
270.81875
20
-77.9375
40
0.5
50
270
51
0
0
LINE
8
0
10
249.38075
20
-65.4375
11
255.38075
21
-65.4375
0
LINE
8
0
10
249.38075
20
-80.4375
11
255.38075
21
-80.4375
0
LINE
8
0
10
248.88075
20
-65.9375
11
248.88075
21
-79.9375
0
LINE
8
0
10
255.88075
20
-65.9375
11
255.88075
21
-79.9375
0
ARC
8
0
10
249.38075
20
-65.9375
40
0.5
50
90
51
180
0
ARC
8
0
10
255.38075
20
-65.9375
40
0.5
50
0
51
90
0
ARC
8
0
10
249.38075
20
-79.9375
40
0.5
50
180
51
270
0
ARC
8
0
10
255.38075
20
-79.9375
40
0.5
50
270
51
0
0
LINE
8
0
10
273.25675
20
-65.4375
11
279.25675
21
-65.4375
0
LINE
8
0
10
273.25675
20
-80.4375
11
279.25675
21
-80.4375
0
LINE
8
0
10
272.75675
20
-65.9375
11
272.75675
21
-79.9375
0
LINE
8
0
10
279.75675
20
-65.9375
11
279.75675
21
-79.9375
0
ARC
8
0
10
273.25675
20
-65.9375
40
0.5
50
90
51
180
0
ARC
8
0
10
279.25675
20
-65.9375
40
0.5
50
0
51
90
0
ARC
8
0
10
273.25675
20
-79.9375
40
0.5
50
180
51
270
0
ARC
8
0
10
279.25675
20
-79.9375
40
0.5
50
270
51
0
0
LINE
8
0
10
288.775
20
-64.4375
11
301.775
21
-64.4375
0
LINE
8
0
10
288.775
20
-78.4375
11
301.775
21
-78.4375
0
LINE
8
0
10
288.275
20
-64.9375
11
288.275
21
-77.9375
0
LINE
8
0
10
302.275
20
-64.9375
11
302.275
21
-77.9375
0
ARC
8
0
10
288.775
20
-64.9375
40
0.5
50
90
51
180
0
ARC
8
0
10
301.775
20
-64.9375
40
0.5
50
0
51
90
0
ARC
8
0
10
288.775
20
-77.9375
40
0.5
50
180
51
270
0
ARC
8
0
10
301.775
20
-77.9375
40
0.5
50
270
51
0
0
LINE
8
0
10
307.825
20
-64.4375
11
320.825
21
-64.4375
0
LINE
8
0
10
307.825
20
-78.4375
11
320.825
21
-78.4375
0
LINE
8
0
10
307.325
20
-64.9375
11
307.325
21
-77.9375
0
LINE
8
0
10
321.325
20
-64.9375
11
321.325
21
-77.9375
0
ARC
8
0
10
307.825
20
-64.9375
40
0.5
50
90
51
180
0
ARC
8
0
10
320.825
20
-64.9375
40
0.5
50
0
51
90
0
ARC
8
0
10
307.825
20
-77.9375
40
0.5
50
180
51
270
0
ARC
8
0
10
320.825
20
-77.9375
40
0.5
50
270
51
0
0
LINE
8
0
10
14.93125
20
-83.4875
11
27.93125
21
-83.4875
0
LINE
8
0
10
14.93125
20
-97.4875
11
27.93125
21
-97.4875
0
LINE
8
0
10
14.43125
20
-83.9875
11
14.43125
21
-96.9875
0
LINE
8
0
10
28.43125
20
-83.9875
11
28.43125
21
-96.9875
0
ARC
8
0
10
14.93125
20
-83.9875
40
0.5
50
90
51
180
0
ARC
8
0
10
27.93125
20
-83.9875
40
0.5
50
0
51
90
0
ARC
8
0
10
14.93125
20
-96.9875
40
0.5
50
180
51
270
0
ARC
8
0
10
27.93125
20
-96.9875
40
0.5
50
270
51
0
0
LINE
8
0
10
6.49325
20
-84.4875
11
12.49325
21
-84.4875
0
LINE
8
0
10
6.49325
20
-99.4875
11
12.49325
21
-99.4875
0
LINE
8
0
10
5.99325
20
-84.9875
11
5.99325
21
-98.9875
0
LINE
8
0
10
12.99325
20
-84.9875
11
12.99325
21
-98.9875
0
ARC
8
0
10
6.49325
20
-84.9875
40
0.5
50
90
51
180
0
ARC
8
0
10
12.49325
20
-84.9875
40
0.5
50
0
51
90
0
ARC
8
0
10
6.49325
20
-98.9875
40
0.5
50
180
51
270
0
ARC
8
0
10
12.49325
20
-98.9875
40
0.5
50
270
51
0
0
LINE
8
0
10
30.36925
20
-84.4875
11
36.36925
21
-84.4875
0
LINE
8
0
10
30.36925
20
-99.4875
11
36.36925
21
-99.4875
0
LINE
8
0
10
29.86925
20
-84.9875
11
29.86925
21
-98.9875
0
LINE
8
0
10
36.86925
20
-84.9875
11
36.86925
21
-98.9875
0
ARC
8
0
10
30.36925
20
-84.9875
40
0.5
50
90
51
180
0
ARC
8
0
10
36.36925
20
-84.9875
40
0.5
50
0
51
90
0
ARC
8
0
10
30.36925
20
-98.9875
40
0.5
50
180
51
270
0
ARC
8
0
10
36.36925
20
-98.9875
40
0.5
50
270
51
0
0
LINE
8
0
10
45.8875
20
-83.4875
11
58.8875
21
-83.4875
0
LINE
8
0
10
45.8875
20
-97.4875
11
58.8875
21
-97.4875
0
LINE
8
0
10
45.3875
20
-83.9875
11
45.3875
21
-96.9875
0
LINE
8
0
10
59.3875
20
-83.9875
11
59.3875
21
-96.9875
0
ARC
8
0
10
45.8875
20
-83.9875
40
0.5
50
90
51
180
0
ARC
8
0
10
58.8875
20
-83.9875
40
0.5
50
0
51
90
0
ARC
8
0
10
45.8875
20
-96.9875
40
0.5
50
180
51
270
0
ARC
8
0
10
58.8875
20
-96.9875
40
0.5
50
270
51
0
0
LINE
8
0
10
64.9375
20
-83.4875
11
77.9375
21
-83.4875
0
LINE
8
0
10
64.9375
20
-97.4875
11
77.9375
21
-97.4875
0
LINE
8
0
10
64.4375
20
-83.9875
11
64.4375
21
-96.9875
0
LINE
8
0
10
78.4375
20
-83.9875
11
78.4375
21
-96.9875
0
ARC
8
0
10
64.9375
20
-83.9875
40
0.5
50
90
51
180
0
ARC
8
0
10
77.9375
20
-83.9875
40
0.5
50
0
51
90
0
ARC
8
0
10
64.9375
20
-96.9875
40
0.5
50
180
51
270
0
ARC
8
0
10
77.9375
20
-96.9875
40
0.5
50
270
51
0
0
LINE
8
0
10
83.9875
20
-83.4875
11
96.9875
21
-83.4875
0
LINE
8
0
10
83.9875
20
-97.4875
11
96.9875
21
-97.4875
0
LINE
8
0
10
83.4875
20
-83.9875
11
83.4875
21
-96.9875
0
LINE
8
0
10
97.4875
20
-83.9875
11
97.4875
21
-96.9875
0
ARC
8
0
10
83.9875
20
-83.9875
40
0.5
50
90
51
180
0
ARC
8
0
10
96.9875
20
-83.9875
40
0.5
50
0
51
90
0
ARC
8
0
10
83.9875
20
-96.9875
40
0.5
50
180
51
270
0
ARC
8
0
10
96.9875
20
-96.9875
40
0.5
50
270
51
0
0
LINE
8
0
10
103.0375
20
-83.4875
11
116.0375
21
-83.4875
0
LINE
8
0
10
103.0375
20
-97.4875
11
116.0375
21
-97.4875
0
LINE
8
0
10
102.5375
20
-83.9875
11
102.5375
21
-96.9875
0
LINE
8
0
10
116.5375
20
-83.9875
11
116.5375
21
-96.9875
0
ARC
8
0
10
103.0375
20
-83.9875
40
0.5
50
90
51
180
0
ARC
8
0
10
116.0375
20
-83.9875
40
0.5
50
0
51
90
0
ARC
8
0
10
103.0375
20
-96.9875
40
0.5
50
180
51
270
0
ARC
8
0
10
116.0375
20
-96.9875
40
0.5
50
270
51
0
0
LINE
8
0
10
122.0875
20
-83.4875
11
135.0875
21
-83.4875
0
LINE
8
0
10
122.0875
20
-97.4875
11
135.0875
21
-97.4875
0
LINE
8
0
10
121.5875
20
-83.9875
11
121.5875
21
-96.9875
0
LINE
8
0
10
135.5875
20
-83.9875
11
135.5875
21
-96.9875
0
ARC
8
0
10
122.0875
20
-83.9875
40
0.5
50
90
51
180
0
ARC
8
0
10
135.0875
20
-83.9875
40
0.5
50
0
51
90
0
ARC
8
0
10
122.0875
20
-96.9875
40
0.5
50
180
51
270
0
ARC
8
0
10
135.0875
20
-96.9875
40
0.5
50
270
51
0
0
LINE
8
0
10
141.1375
20
-83.4875
11
154.1375
21
-83.4875
0
LINE
8
0
10
141.1375
20
-97.4875
11
154.1375
21
-97.4875
0
LINE
8
0
10
140.6375
20
-83.9875
11
140.6375
21
-96.9875
0
LINE
8
0
10
154.6375
20
-83.9875
11
154.6375
21
-96.9875
0
ARC
8
0
10
141.1375
20
-83.9875
40
0.5
50
90
51
180
0
ARC
8
0
10
154.1375
20
-83.9875
40
0.5
50
0
51
90
0
ARC
8
0
10
141.1375
20
-96.9875
40
0.5
50
180
51
270
0
ARC
8
0
10
154.1375
20
-96.9875
40
0.5
50
270
51
0
0
LINE
8
0
10
160.1875
20
-83.4875
11
173.1875
21
-83.4875
0
LINE
8
0
10
160.1875
20
-97.4875
11
173.1875
21
-97.4875
0
LINE
8
0
10
159.6875
20
-83.9875
11
159.6875
21
-96.9875
0
LINE
8
0
10
173.6875
20
-83.9875
11
173.6875
21
-96.9875
0
ARC
8
0
10
160.1875
20
-83.9875
40
0.5
50
90
51
180
0
ARC
8
0
10
173.1875
20
-83.9875
40
0.5
50
0
51
90
0
ARC
8
0
10
160.1875
20
-96.9875
40
0.5
50
180
51
270
0
ARC
8
0
10
173.1875
20
-96.9875
40
0.5
50
270
51
0
0
LINE
8
0
10
179.2375
20
-83.4875
11
192.2375
21
-83.4875
0
LINE
8
0
10
179.2375
20
-97.4875
11
192.2375
21
-97.4875
0
LINE
8
0
10
178.7375
20
-83.9875
11
178.7375
21
-96.9875
0
LINE
8
0
10
192.7375
20
-83.9875
11
192.7375
21
-96.9875
0
ARC
8
0
10
179.2375
20
-83.9875
40
0.5
50
90
51
180
0
ARC
8
0
10
192.2375
20
-83.9875
40
0.5
50
0
51
90
0
ARC
8
0
10
179.2375
20
-96.9875
40
0.5
50
180
51
270
0
ARC
8
0
10
192.2375
20
-96.9875
40
0.5
50
270
51
0
0
LINE
8
0
10
198.2875
20
-83.4875
11
211.2875
21
-83.4875
0
LINE
8
0
10
198.2875
20
-97.4875
11
211.2875
21
-97.4875
0
LINE
8
0
10
197.7875
20
-83.9875
11
197.7875
21
-96.9875
0
LINE
8
0
10
211.7875
20
-83.9875
11
211.7875
21
-96.9875
0
ARC
8
0
10
198.2875
20
-83.9875
40
0.5
50
90
51
180
0
ARC
8
0
10
211.2875
20
-83.9875
40
0.5
50
0
51
90
0
ARC
8
0
10
198.2875
20
-96.9875
40
0.5
50
180
51
270
0
ARC
8
0
10
211.2875
20
-96.9875
40
0.5
50
270
51
0
0
LINE
8
0
10
217.3375
20
-83.4875
11
230.3375
21
-83.4875
0
LINE
8
0
10
217.3375
20
-97.4875
11
230.3375
21
-97.4875
0
LINE
8
0
10
216.8375
20
-83.9875
11
216.8375
21
-96.9875
0
LINE
8
0
10
230.8375
20
-83.9875
11
230.8375
21
-96.9875
0
ARC
8
0
10
217.3375
20
-83.9875
40
0.5
50
90
51
180
0
ARC
8
0
10
230.3375
20
-83.9875
40
0.5
50
0
51
90
0
ARC
8
0
10
217.3375
20
-96.9875
40
0.5
50
180
51
270
0
ARC
8
0
10
230.3375
20
-96.9875
40
0.5
50
270
51
0
0
LINE
8
0
10
253.05625
20
-83.4875
11
266.05625
21
-83.4875
0
LINE
8
0
10
253.05625
20
-97.4875
11
266.05625
21
-97.4875
0
LINE
8
0
10
252.55625
20
-83.9875
11
252.55625
21
-96.9875
0
LINE
8
0
10
266.55625
20
-83.9875
11
266.55625
21
-96.9875
0
ARC
8
0
10
253.05625
20
-83.9875
40
0.5
50
90
51
180
0
ARC
8
0
10
266.05625
20
-83.9875
40
0.5
50
0
51
90
0
ARC
8
0
10
253.05625
20
-96.9875
40
0.5
50
180
51
270
0
ARC
8
0
10
266.05625
20
-96.9875
40
0.5
50
270
51
0
0
LINE
8
0
10
244.61825
20
-84.4875
11
250.61825
21
-84.4875
0
LINE
8
0
10
244.61825
20
-99.4875
11
250.61825
21
-99.4875
0
LINE
8
0
10
244.11825
20
-84.9875
11
244.11825
21
-98.9875
0
LINE
8
0
10
251.11825
20
-84.9875
11
251.11825
21
-98.9875
0
ARC
8
0
10
244.61825
20
-84.9875
40
0.5
50
90
51
180
0
ARC
8
0
10
250.61825
20
-84.9875
40
0.5
50
0
51
90
0
ARC
8
0
10
244.61825
20
-98.9875
40
0.5
50
180
51
270
0
ARC
8
0
10
250.61825
20
-98.9875
40
0.5
50
270
51
0
0
LINE
8
0
10
268.49425
20
-84.4875
11
274.49425
21
-84.4875
0
LINE
8
0
10
268.49425
20
-99.4875
11
274.49425
21
-99.4875
0
LINE
8
0
10
267.99425
20
-84.9875
11
267.99425
21
-98.9875
0
LINE
8
0
10
274.99425
20
-84.9875
11
274.99425
21
-98.9875
0
ARC
8
0
10
268.49425
20
-84.9875
40
0.5
50
90
51
180
0
ARC
8
0
10
274.49425
20
-84.9875
40
0.5
50
0
51
90
0
ARC
8
0
10
268.49425
20
-98.9875
40
0.5
50
180
51
270
0
ARC
8
0
10
274.49425
20
-98.9875
40
0.5
50
270
51
0
0
LINE
8
0
10
288.775
20
-83.4875
11
301.775
21
-83.4875
0
LINE
8
0
10
288.775
20
-97.4875
11
301.775
21
-97.4875
0
LINE
8
0
10
288.275
20
-83.9875
11
288.275
21
-96.9875
0
LINE
8
0
10
302.275
20
-83.9875
11
302.275
21
-96.9875
0
ARC
8
0
10
288.775
20
-83.9875
40
0.5
50
90
51
180
0
ARC
8
0
10
301.775
20
-83.9875
40
0.5
50
0
51
90
0
ARC
8
0
10
288.775
20
-96.9875
40
0.5
50
180
51
270
0
ARC
8
0
10
301.775
20
-96.9875
40
0.5
50
270
51
0
0
LINE
8
0
10
307.825
20
-83.4875
11
320.825
21
-83.4875
0
LINE
8
0
10
307.825
20
-97.4875
11
320.825
21
-97.4875
0
LINE
8
0
10
307.325
20
-83.9875
11
307.325
21
-96.9875
0
LINE
8
0
10
321.325
20
-83.9875
11
321.325
21
-96.9875
0
ARC
8
0
10
307.825
20
-83.9875
40
0.5
50
90
51
180
0
ARC
8
0
10
320.825
20
-83.9875
40
0.5
50
0
51
90
0
ARC
8
0
10
307.825
20
-96.9875
40
0.5
50
180
51
270
0
ARC
8
0
10
320.825
20
-96.9875
40
0.5
50
270
51
0
0
LINE
8
0
10
5.40625
20
-102.5375
11
18.40625
21
-102.5375
0
LINE
8
0
10
5.40625
20
-116.5375
11
18.40625
21
-116.5375
0
LINE
8
0
10
4.90625
20
-103.0375
11
4.90625
21
-116.0375
0
LINE
8
0
10
18.90625
20
-103.0375
11
18.90625
21
-116.0375
0
ARC
8
0
10
5.40625
20
-103.0375
40
0.5
50
90
51
180
0
ARC
8
0
10
18.40625
20
-103.0375
40
0.5
50
0
51
90
0
ARC
8
0
10
5.40625
20
-116.0375
40
0.5
50
180
51
270
0
ARC
8
0
10
18.40625
20
-116.0375
40
0.5
50
270
51
0
0
LINE
8
0
10
29.21875
20
-102.5375
11
42.21875
21
-102.5375
0
LINE
8
0
10
29.21875
20
-116.5375
11
42.21875
21
-116.5375
0
LINE
8
0
10
28.71875
20
-103.0375
11
28.71875
21
-116.0375
0
LINE
8
0
10
42.71875
20
-103.0375
11
42.71875
21
-116.0375
0
ARC
8
0
10
29.21875
20
-103.0375
40
0.5
50
90
51
180
0
ARC
8
0
10
42.21875
20
-103.0375
40
0.5
50
0
51
90
0
ARC
8
0
10
29.21875
20
-116.0375
40
0.5
50
180
51
270
0
ARC
8
0
10
42.21875
20
-116.0375
40
0.5
50
270
51
0
0
LINE
8
0
10
53.03125
20
-102.5375
11
66.03125
21
-102.5375
0
LINE
8
0
10
53.03125
20
-116.5375
11
66.03125
21
-116.5375
0
LINE
8
0
10
52.53125
20
-103.0375
11
52.53125
21
-116.0375
0
LINE
8
0
10
66.53125
20
-103.0375
11
66.53125
21
-116.0375
0
ARC
8
0
10
53.03125
20
-103.0375
40
0.5
50
90
51
180
0
ARC
8
0
10
66.03125
20
-103.0375
40
0.5
50
0
51
90
0
ARC
8
0
10
53.03125
20
-116.0375
40
0.5
50
180
51
270
0
ARC
8
0
10
66.03125
20
-116.0375
40
0.5
50
270
51
0
0
LINE
8
0
10
124.46875
20
-102.5375
11
137.46875
21
-102.5375
0
LINE
8
0
10
124.46875
20
-116.5375
11
137.46875
21
-116.5375
0
LINE
8
0
10
123.96875
20
-103.0375
11
123.96875
21
-116.0375
0
LINE
8
0
10
137.96875
20
-103.0375
11
137.96875
21
-116.0375
0
ARC
8
0
10
124.46875
20
-103.0375
40
0.5
50
90
51
180
0
ARC
8
0
10
137.46875
20
-103.0375
40
0.5
50
0
51
90
0
ARC
8
0
10
124.46875
20
-116.0375
40
0.5
50
180
51
270
0
ARC
8
0
10
137.46875
20
-116.0375
40
0.5
50
270
51
0
0
LINE
8
0
10
77.96875
20
-103.5375
11
83.96875
21
-103.5375
0
LINE
8
0
10
77.96875
20
-118.5375
11
83.96875
21
-118.5375
0
LINE
8
0
10
77.46875
20
-104.0375
11
77.46875
21
-118.0375
0
LINE
8
0
10
84.46875
20
-104.0375
11
84.46875
21
-118.0375
0
ARC
8
0
10
77.96875
20
-104.0375
40
0.5
50
90
51
180
0
ARC
8
0
10
83.96875
20
-104.0375
40
0.5
50
0
51
90
0
ARC
8
0
10
77.96875
20
-118.0375
40
0.5
50
180
51
270
0
ARC
8
0
10
83.96875
20
-118.0375
40
0.5
50
270
51
0
0
LINE
8
0
10
177.96875
20
-103.5375
11
183.96875
21
-103.5375
0
LINE
8
0
10
177.96875
20
-118.5375
11
183.96875
21
-118.5375
0
LINE
8
0
10
177.46875
20
-104.0375
11
177.46875
21
-118.0375
0
LINE
8
0
10
184.46875
20
-104.0375
11
184.46875
21
-118.0375
0
ARC
8
0
10
177.96875
20
-104.0375
40
0.5
50
90
51
180
0
ARC
8
0
10
183.96875
20
-104.0375
40
0.5
50
0
51
90
0
ARC
8
0
10
177.96875
20
-118.0375
40
0.5
50
180
51
270
0
ARC
8
0
10
183.96875
20
-118.0375
40
0.5
50
270
51
0
0
LINE
8
0
10
195.90625
20
-102.5375
11
208.90625
21
-102.5375
0
LINE
8
0
10
195.90625
20
-116.5375
11
208.90625
21
-116.5375
0
LINE
8
0
10
195.40625
20
-103.0375
11
195.40625
21
-116.0375
0
LINE
8
0
10
209.40625
20
-103.0375
11
209.40625
21
-116.0375
0
ARC
8
0
10
195.90625
20
-103.0375
40
0.5
50
90
51
180
0
ARC
8
0
10
208.90625
20
-103.0375
40
0.5
50
0
51
90
0
ARC
8
0
10
195.90625
20
-116.0375
40
0.5
50
180
51
270
0
ARC
8
0
10
208.90625
20
-116.0375
40
0.5
50
270
51
0
0
LINE
8
0
10
219.71875
20
-102.5375
11
232.71875
21
-102.5375
0
LINE
8
0
10
219.71875
20
-116.5375
11
232.71875
21
-116.5375
0
LINE
8
0
10
219.21875
20
-103.0375
11
219.21875
21
-116.0375
0
LINE
8
0
10
233.21875
20
-103.0375
11
233.21875
21
-116.0375
0
ARC
8
0
10
219.71875
20
-103.0375
40
0.5
50
90
51
180
0
ARC
8
0
10
232.71875
20
-103.0375
40
0.5
50
0
51
90
0
ARC
8
0
10
219.71875
20
-116.0375
40
0.5
50
180
51
270
0
ARC
8
0
10
232.71875
20
-116.0375
40
0.5
50
270
51
0
0
LINE
8
0
10
243.53125
20
-102.5375
11
256.53125
21
-102.5375
0
LINE
8
0
10
243.53125
20
-116.5375
11
256.53125
21
-116.5375
0
LINE
8
0
10
243.03125
20
-103.0375
11
243.03125
21
-116.0375
0
LINE
8
0
10
257.03125
20
-103.0375
11
257.03125
21
-116.0375
0
ARC
8
0
10
243.53125
20
-103.0375
40
0.5
50
90
51
180
0
ARC
8
0
10
256.53125
20
-103.0375
40
0.5
50
0
51
90
0
ARC
8
0
10
243.53125
20
-116.0375
40
0.5
50
180
51
270
0
ARC
8
0
10
256.53125
20
-116.0375
40
0.5
50
270
51
0
0
LINE
8
0
10
269.725
20
-102.5375
11
282.725
21
-102.5375
0
LINE
8
0
10
269.725
20
-116.5375
11
282.725
21
-116.5375
0
LINE
8
0
10
269.225
20
-103.0375
11
269.225
21
-116.0375
0
LINE
8
0
10
283.225
20
-103.0375
11
283.225
21
-116.0375
0
ARC
8
0
10
269.725
20
-103.0375
40
0.5
50
90
51
180
0
ARC
8
0
10
282.725
20
-103.0375
40
0.5
50
0
51
90
0
ARC
8
0
10
269.725
20
-116.0375
40
0.5
50
180
51
270
0
ARC
8
0
10
282.725
20
-116.0375
40
0.5
50
270
51
0
0
LINE
8
0
10
288.775
20
-102.5375
11
301.775
21
-102.5375
0
LINE
8
0
10
288.775
20
-116.5375
11
301.775
21
-116.5375
0
LINE
8
0
10
288.275
20
-103.0375
11
288.275
21
-116.0375
0
LINE
8
0
10
302.275
20
-103.0375
11
302.275
21
-116.0375
0
ARC
8
0
10
288.775
20
-103.0375
40
0.5
50
90
51
180
0
ARC
8
0
10
301.775
20
-103.0375
40
0.5
50
0
51
90
0
ARC
8
0
10
288.775
20
-116.0375
40
0.5
50
180
51
270
0
ARC
8
0
10
301.775
20
-116.0375
40
0.5
50
270
51
0
0
LINE
8
0
10
307.825
20
-102.5375
11
320.825
21
-102.5375
0
LINE
8
0
10
307.825
20
-116.5375
11
320.825
21
-116.5375
0
LINE
8
0
10
307.325
20
-103.0375
11
307.325
21
-116.0375
0
LINE
8
0
10
321.325
20
-103.0375
11
321.325
21
-116.0375
0
ARC
8
0
10
307.825
20
-103.0375
40
0.5
50
90
51
180
0
ARC
8
0
10
320.825
20
-103.0375
40
0.5
50
0
51
90
0
ARC
8
0
10
307.825
20
-116.0375
40
0.5
50
180
51
270
0
ARC
8
0
10
320.825
20
-116.0375
40
0.5
50
270
51
0
0
LINE
8
0
10
0
20
-119.0625
11
323.85
21
-119.0625
0
LINE
8
0
10
0
20
0
11
323.85
21
0
0
LINE
8
0
10
0
20
-119.0625
11
0
21
0
0
LINE
8
0
10
323.85
20
-119.0625
11
323.85
21
0
0
ENDSEC
0
EOF