<svg width="323.85mm" height="119.063mm" viewBox="0 0 323.85 119.063" xmlns="http://www.w3.org/2000/svg"><g id="svgGroup" stroke-linecap="round" fill-rule="evenodd" font-size="9pt" stroke="#000" stroke-width="0.25mm" fill="none" style="stroke:#000;stroke-width:0.25mm;fill:none"><path d="M 0 119.063 L 323.85 119.063 L 323.85 0 L 0 0 L 0 119.063 Z M 22.075 26.338 L 35.075 26.338 A 0.5 0.5 0 0 1 35.575 26.838 L 35.575 39.838 A 0.5 0.5 0 0 1 35.075 40.338 L 22.075 40.338 A 0.5 0.5 0 0 1 21.575 39.838 L 21.575 26.838 A 0.5 0.5 0 0 1 22.075 26.338 Z M 7.788 2.525 L 20.788 2.525 A 0.5 0.5 0 0 1 21.288 3.025 L 21.288 16.025 A 0.5 0.5 0 0 1 20.788 16.525 L 7.788 16.525 A 0.5 0.5 0 0 1 7.288 16.025 L 7.288 3.025 A 0.5 0.5 0 0 1 7.788 2.525 Z M 41.125 26.338 L 54.125 26.338 A 0.5 0.5 0 0 1 54.625 26.838 L 54.625 39.838 A 0.5 0.5 0 0 1 54.125 40.338 L 41.125 40.338 A 0.5 0.5 0 0 1 40.625 39.838 L 40.625 26.838 A 0.5 0.5 0 0 1 41.125 26.338 Z M 60.175 26.338 L 73.175 26.338 A 0.5 0.5 0 0 1 73.675 26.838 L 73.675 39.838 A 0.5 0.5 0 0 1 73.175 40.338 L 60.175 40.338 A 0.5 0.5 0 0 1 59.675 39.838 L 59.675 26.838 A 0.5 0.5 0 0 1 60.175 26.338 Z M 79.225 26.338 L 92.225 26.338 A 0.5 0.5 0 0 1 92.725 26.838 L 92.725 39.838 A 0.5 0.5 0 0 1 92.225 40.338 L 79.225 40.338 A 0.5 0.5 0 0 1 78.725 39.838 L 78.725 26.838 A 0.5 0.5 0 0 1 79.225 26.338 Z M 98.275 26.338 L 111.275 26.338 A 0.5 0.5 0 0 1 111.775 26.838 L 111.775 39.838 A 0.5 0.5 0 0 1 111.275 40.338 L 98.275 40.338 A 0.5 0.5 0 0 1 97.775 39.838 L 97.775 26.838 A 0.5 0.5 0 0 1 98.275 26.338 Z M 136.375 26.338 L 149.375 26.338 A 0.5 0.5 0 0 1 149.875 26.838 L 149.875 39.838 A 0.5 0.5 0 0 1 149.375 40.338 L 136.375 40.338 A 0.5 0.5 0 0 1 135.875 39.838 L 135.875 26.838 A 0.5 0.5 0 0 1 136.375 26.338 Z M 155.425 26.338 L 168.425 26.338 A 0.5 0.5 0 0 1 168.925 26.838 L 168.925 39.838 A 0.5 0.5 0 0 1 168.425 40.338 L 155.425 40.338 A 0.5 0.5 0 0 1 154.925 39.838 L 154.925 26.838 A 0.5 0.5 0 0 1 155.425 26.338 Z M 174.475 26.338 L 187.475 26.338 A 0.5 0.5 0 0 1 187.975 26.838 L 187.975 39.838 A 0.5 0.5 0 0 1 187.475 40.338 L 174.475 40.338 A 0.5 0.5 0 0 1 173.975 39.838 L 173.975 26.838 A 0.5 0.5 0 0 1 174.475 26.338 Z M 193.525 26.338 L 206.525 26.338 A 0.5 0.5 0 0 1 207.025 26.838 L 207.025 39.838 A 0.5 0.5 0 0 1 206.525 40.338 L 193.525 40.338 A 0.5 0.5 0 0 1 193.025 39.838 L 193.025 26.838 A 0.5 0.5 0 0 1 193.525 26.338 Z M 212.575 26.338 L 225.575 26.338 A 0.5 0.5 0 0 1 226.075 26.838 L 226.075 39.838 A 0.5 0.5 0 0 1 225.575 40.338 L 212.575 40.338 A 0.5 0.5 0 0 1 212.075 39.838 L 212.075 26.838 A 0.5 0.5 0 0 1 212.575 26.338 Z M 231.625 26.338 L 244.625 26.338 A 0.5 0.5 0 0 1 245.125 26.838 L 245.125 39.838 A 0.5 0.5 0 0 1 244.625 40.338 L 231.625 40.338 A 0.5 0.5 0 0 1 231.125 39.838 L 231.125 26.838 A 0.5 0.5 0 0 1 231.625 26.338 Z M 260.2 26.338 L 273.2 26.338 A 0.5 0.5 0 0 1 273.7 26.838 L 273.7 39.838 A 0.5 0.5 0 0 1 273.2 40.338 L 260.2 40.338 A 0.5 0.5 0 0 1 259.7 39.838 L 259.7 26.838 A 0.5 0.5 0 0 1 260.2 26.338 Z M 288.775 26.338 L 301.775 26.338 A 0.5 0.5 0 0 1 302.275 26.838 L 302.275 39.838 A 0.5 0.5 0 0 1 301.775 40.338 L 288.775 40.338 A 0.5 0.5 0 0 1 288.275 39.838 L 288.275 26.838 A 0.5 0.5 0 0 1 288.775 26.338 Z M 307.825 26.338 L 320.825 26.338 A 0.5 0.5 0 0 1 321.325 26.838 L 321.325 39.838 A 0.5 0.5 0 0 1 320.825 40.338 L 307.825 40.338 A 0.5 0.5 0 0 1 307.325 39.838 L 307.325 26.838 A 0.5 0.5 0 0 1 307.825 26.338 Z M 7.788 45.388 L 20.788 45.388 A 0.5 0.5 0 0 1 21.288 45.888 L 21.288 58.888 A 0.5 0.5 0 0 1 20.788 59.388 L 7.788 59.388 A 0.5 0.5 0 0 1 7.288 58.888 L 7.288 45.888 A 0.5 0.5 0 0 1 7.788 45.388 Z M 31.6 45.388 L 44.6 45.388 A 0.5 0.5 0 0 1 45.1 45.888 L 45.1 58.888 A 0.5 0.5 0 0 1 44.6 59.388 L 31.6 59.388 A 0.5 0.5 0 0 1 31.1 58.888 L 31.1 45.888 A 0.5 0.5 0 0 1 31.6 45.388 Z M 50.65 45.388 L 63.65 45.388 A 0.5 0.5 0 0 1 64.15 45.888 L 64.15 58.888 A 0.5 0.5 0 0 1 63.65 59.388 L 50.65 59.388 A 0.5 0.5 0 0 1 50.15 58.888 L 50.15 45.888 A 0.5 0.5 0 0 1 50.65 45.388 Z M 69.7 45.388 L 82.7 45.388 A 0.5 0.5 0 0 1 83.2 45.888 L 83.2 58.888 A 0.5 0.5 0 0 1 82.7 59.388 L 69.7 59.388 A 0.5 0.5 0 0 1 69.2 58.888 L 69.2 45.888 A 0.5 0.5 0 0 1 69.7 45.388 Z M 88.75 45.388 L 101.75 45.388 A 0.5 0.5 0 0 1 102.25 45.888 L 102.25 58.888 A 0.5 0.5 0 0 1 101.75 59.388 L 88.75 59.388 A 0.5 0.5 0 0 1 88.25 58.888 L 88.25 45.888 A 0.5 0.5 0 0 1 88.75 45.388 Z M 107.8 45.388 L 120.8 45.388 A 0.5 0.5 0 0 1 121.3 45.888 L 121.3 58.888 A 0.5 0.5 0 0 1 120.8 59.388 L 107.8 59.388 A 0.5 0.5 0 0 1 107.3 58.888 L 107.3 45.888 A 0.5 0.5 0 0 1 107.8 45.388 Z M 126.85 45.388 L 139.85 45.388 A 0.5 0.5 0 0 1 140.35 45.888 L 140.35 58.888 A 0.5 0.5 0 0 1 139.85 59.388 L 126.85 59.388 A 0.5 0.5 0 0 1 126.35 58.888 L 126.35 45.888 A 0.5 0.5 0 0 1 126.85 45.388 Z M 145.9 45.388 L 158.9 45.388 A 0.5 0.5 0 0 1 159.4 45.888 L 159.4 58.888 A 0.5 0.5 0 0 1 158.9 59.388 L 145.9 59.388 A 0.5 0.5 0 0 1 145.4 58.888 L 145.4 45.888 A 0.5 0.5 0 0 1 145.9 45.388 Z M 164.95 45.388 L 177.95 45.388 A 0.5 0.5 0 0 1 178.45 45.888 L 178.45 58.888 A 0.5 0.5 0 0 1 177.95 59.388 L 164.95 59.388 A 0.5 0.5 0 0 1 164.45 58.888 L 164.45 45.888 A 0.5 0.5 0 0 1 164.95 45.388 Z M 184 45.388 L 197 45.388 A 0.5 0.5 0 0 1 197.5 45.888 L 197.5 58.888 A 0.5 0.5 0 0 1 197 59.388 L 184 59.388 A 0.5 0.5 0 0 1 183.5 58.888 L 183.5 45.888 A 0.5 0.5 0 0 1 184 45.388 Z M 203.05 45.388 L 216.05 45.388 A 0.5 0.5 0 0 1 216.55 45.888 L 216.55 58.888 A 0.5 0.5 0 0 1 216.05 59.388 L 203.05 59.388 A 0.5 0.5 0 0 1 202.55 58.888 L 202.55 45.888 A 0.5 0.5 0 0 1 203.05 45.388 Z M 222.1 45.388 L 235.1 45.388 A 0.5 0.5 0 0 1 235.6 45.888 L 235.6 58.888 A 0.5 0.5 0 0 1 235.1 59.388 L 222.1 59.388 A 0.5 0.5 0 0 1 221.6 58.888 L 221.6 45.888 A 0.5 0.5 0 0 1 222.1 45.388 Z M 241.15 45.388 L 254.15 45.388 A 0.5 0.5 0 0 1 254.65 45.888 L 254.65 58.888 A 0.5 0.5 0 0 1 254.15 59.388 L 241.15 59.388 A 0.5 0.5 0 0 1 240.65 58.888 L 240.65 45.888 A 0.5 0.5 0 0 1 241.15 45.388 Z M 264.963 45.388 L 277.963 45.388 A 0.5 0.5 0 0 1 278.463 45.888 L 278.463 58.888 A 0.5 0.5 0 0 1 277.963 59.388 L 264.963 59.388 A 0.5 0.5 0 0 1 264.463 58.888 L 264.463 45.888 A 0.5 0.5 0 0 1 264.963 45.388 Z M 288.775 45.388 L 301.775 45.388 A 0.5 0.5 0 0 1 302.275 45.888 L 302.275 58.888 A 0.5 0.5 0 0 1 301.775 59.388 L 288.775 59.388 A 0.5 0.5 0 0 1 288.275 58.888 L 288.275 45.888 A 0.5 0.5 0 0 1 288.775 45.388 Z M 307.825 45.388 L 320.825 45.388 A 0.5 0.5 0 0 1 321.325 45.888 L 321.325 58.888 A 0.5 0.5 0 0 1 320.825 59.388 L 307.825 59.388 A 0.5 0.5 0 0 1 307.325 58.888 L 307.325 45.888 A 0.5 0.5 0 0 1 307.825 45.388 Z M 10.169 64.438 L 23.169 64.438 A 0.5 0.5 0 0 1 23.669 64.938 L 23.669 77.938 A 0.5 0.5 0 0 1 23.169 78.438 L 10.169 78.438 A 0.5 0.5 0 0 1 9.669 77.938 L 9.669 64.938 A 0.5 0.5 0 0 1 10.169 64.438 Z M 36.363 64.438 L 49.363 64.438 A 0.5 0.5 0 0 1 49.863 64.938 L 49.863 77.938 A 0.5 0.5 0 0 1 49.363 78.438 L 36.363 78.438 A 0.5 0.5 0 0 1 35.863 77.938 L 35.863 64.938 A 0.5 0.5 0 0 1 36.363 64.438 Z M 74.463 64.438 L 87.463 64.438 A 0.5 0.5 0 0 1 87.963 64.938 L 87.963 77.938 A 0.5 0.5 0 0 1 87.463 78.438 L 74.463 78.438 A 0.5 0.5 0 0 1 73.963 77.938 L 73.963 64.938 A 0.5 0.5 0 0 1 74.463 64.438 Z M 93.513 64.438 L 106.513 64.438 A 0.5 0.5 0 0 1 107.013 64.938 L 107.013 77.938 A 0.5 0.5 0 0 1 106.513 78.438 L 93.513 78.438 A 0.5 0.5 0 0 1 93.013 77.938 L 93.013 64.938 A 0.5 0.5 0 0 1 93.513 64.438 Z M 112.563 64.438 L 125.563 64.438 A 0.5 0.5 0 0 1 126.063 64.938 L 126.063 77.938 A 0.5 0.5 0 0 1 125.563 78.438 L 112.563 78.438 A 0.5 0.5 0 0 1 112.063 77.938 L 112.063 64.938 A 0.5 0.5 0 0 1 112.563 64.438 Z M 131.613 64.438 L 144.613 64.438 A 0.5 0.5 0 0 1 145.113 64.938 L 145.113 77.938 A 0.5 0.5 0 0 1 144.613 78.438 L 131.613 78.438 A 0.5 0.5 0 0 1 131.113 77.938 L 131.113 64.938 A 0.5 0.5 0 0 1 131.613 64.438 Z M 150.663 64.438 L 163.663 64.438 A 0.5 0.5 0 0 1 164.163 64.938 L 164.163 77.938 A 0.5 0.5 0 0 1 163.663 78.438 L 150.663 78.438 A 0.5 0.5 0 0 1 150.163 77.938 L 150.163 64.938 A 0.5 0.5 0 0 1 150.663 64.438 Z M 169.713 64.438 L 182.713 64.438 A 0.5 0.5 0 0 1 183.213 64.938 L 183.213 77.938 A 0.5 0.5 0 0 1 182.713 78.438 L 169.713 78.438 A 0.5 0.5 0 0 1 169.213 77.938 L 169.213 64.938 A 0.5 0.5 0 0 1 169.713 64.438 Z M 188.763 64.438 L 201.763 64.438 A 0.5 0.5 0 0 1 202.263 64.938 L 202.263 77.938 A 0.5 0.5 0 0 1 201.763 78.438 L 188.763 78.438 A 0.5 0.5 0 0 1 188.263 77.938 L 188.263 64.938 A 0.5 0.5 0 0 1 188.763 64.438 Z M 207.813 64.438 L 220.813 64.438 A 0.5 0.5 0 0 1 221.313 64.938 L 221.313 77.938 A 0.5 0.5 0 0 1 220.813 78.438 L 207.813 78.438 A 0.5 0.5 0 0 1 207.313 77.938 L 207.313 64.938 A 0.5 0.5 0 0 1 207.813 64.438 Z M 226.863 64.438 L 239.863 64.438 A 0.5 0.5 0 0 1 240.363 64.938 L 240.363 77.938 A 0.5 0.5 0 0 1 239.863 78.438 L 226.863 78.438 A 0.5 0.5 0 0 1 226.363 77.938 L 226.363 64.938 A 0.5 0.5 0 0 1 226.863 64.438 Z M 257.819 64.438 L 270.819 64.438 A 0.5 0.5 0 0 1 271.319 64.938 L 271.319 77.938 A 0.5 0.5 0 0 1 270.819 78.438 L 257.819 78.438 A 0.5 0.5 0 0 1 257.319 77.938 L 257.319 64.938 A 0.5 0.5 0 0 1 257.819 64.438 Z M 288.775 64.438 L 301.775 64.438 A 0.5 0.5 0 0 1 302.275 64.938 L 302.275 77.938 A 0.5 0.5 0 0 1 301.775 78.438 L 288.775 78.438 A 0.5 0.5 0 0 1 288.275 77.938 L 288.275 64.938 A 0.5 0.5 0 0 1 288.775 64.438 Z M 307.825 64.438 L 320.825 64.438 A 0.5 0.5 0 0 1 321.325 64.938 L 321.325 77.938 A 0.5 0.5 0 0 1 320.825 78.438 L 307.825 78.438 A 0.5 0.5 0 0 1 307.325 77.938 L 307.325 64.938 A 0.5 0.5 0 0 1 307.825 64.438 Z M 14.931 83.488 L 27.931 83.488 A 0.5 0.5 0 0 1 28.431 83.988 L 28.431 96.988 A 0.5 0.5 0 0 1 27.931 97.488 L 14.931 97.488 A 0.5 0.5 0 0 1 14.431 96.988 L 14.431 83.988 A 0.5 0.5 0 0 1 14.931 83.488 Z M 45.888 83.488 L 58.888 83.488 A 0.5 0.5 0 0 1 59.388 83.988 L 59.388 96.988 A 0.5 0.5 0 0 1 58.888 97.488 L 45.888 97.488 A 0.5 0.5 0 0 1 45.388 96.988 L 45.388 83.988 A 0.5 0.5 0 0 1 45.888 83.488 Z M 64.938 83.488 L 77.938 83.488 A 0.5 0.5 0 0 1 78.438 83.988 L 78.438 96.988 A 0.5 0.5 0 0 1 77.938 97.488 L 64.938 97.488 A 0.5 0.5 0 0 1 64.438 96.988 L 64.438 83.988 A 0.5 0.5 0 0 1 64.938 83.488 Z M 83.988 83.488 L 96.988 83.488 A 0.5 0.5 0 0 1 97.488 83.988 L 97.488 96.988 A 0.5 0.5 0 0 1 96.988 97.488 L 83.988 97.488 A 0.5 0.5 0 0 1 83.488 96.988 L 83.488 83.988 A 0.5 0.5 0 0 1 83.988 83.488 Z M 103.038 83.488 L 116.038 83.488 A 0.5 0.5 0 0 1 116.538 83.988 L 116.538 96.988 A 0.5 0.5 0 0 1 116.038 97.488 L 103.038 97.488 A 0.5 0.5 0 0 1 102.538 96.988 L 102.538 83.988 A 0.5 0.5 0 0 1 103.038 83.488 Z M 122.088 83.488 L 135.088 83.488 A 0.5 0.5 0 0 1 135.588 83.988 L 135.588 96.988 A 0.5 0.5 0 0 1 135.088 97.488 L 122.088 97.488 A 0.5 0.5 0 0 1 121.588 96.988 L 121.588 83.988 A 0.5 0.5 0 0 1 122.088 83.488 Z M 141.138 83.488 L 154.138 83.488 A 0.5 0.5 0 0 1 154.638 83.988 L 154.638 96.988 A 0.5 0.5 0 0 1 154.138 97.488 L 141.138 97.488 A 0.5 0.5 0 0 1 140.638 96.988 L 140.638 83.988 A 0.5 0.5 0 0 1 141.138 83.488 Z M 160.188 83.488 L 173.188 83.488 A 0.5 0.5 0 0 1 173.688 83.988 L 173.688 96.988 A 0.5 0.5 0 0 1 173.188 97.488 L 160.188 97.488 A 0.5 0.5 0 0 1 159.688 96.988 L 159.688 83.988 A 0.5 0.5 0 0 1 160.188 83.488 Z M 179.238 83.488 L 192.238 83.488 A 0.5 0.5 0 0 1 192.738 83.988 L 192.738 96.988 A 0.5 0.5 0 0 1 192.238 97.488 L 179.238 97.488 A 0.5 0.5 0 0 1 178.738 96.988 L 178.738 83.988 A 0.5 0.5 0 0 1 179.238 83.488 Z M 198.288 83.488 L 211.288 83.488 A 0.5 0.5 0 0 1 211.788 83.988 L 211.788 96.988 A 0.5 0.5 0 0 1 211.288 97.488 L 198.288 97.488 A 0.5 0.5 0 0 1 197.788 96.988 L 197.788 83.988 A 0.5 0.5 0 0 1 198.288 83.488 Z M 217.338 83.488 L 230.338 83.488 A 0.5 0.5 0 0 1 230.838 83.988 L 230.838 96.988 A 0.5 0.5 0 0 1 230.338 97.488 L 217.338 97.488 A 0.5 0.5 0 0 1 216.838 96.988 L 216.838 83.988 A 0.5 0.5 0 0 1 217.338 83.488 Z M 253.056 83.488 L 266.056 83.488 A 0.5 0.5 0 0 1 266.556 83.988 L 266.556 96.988 A 0.5 0.5 0 0 1 266.056 97.488 L 253.056 97.488 A 0.5 0.5 0 0 1 252.556 96.988 L 252.556 83.988 A 0.5 0.5 0 0 1 253.056 83.488 Z M 288.775 83.488 L 301.775 83.488 A 0.5 0.5 0 0 1 302.275 83.988 L 302.275 96.988 A 0.5 0.5 0 0 1 301.775 97.488 L 288.775 97.488 A 0.5 0.5 0 0 1 288.275 96.988 L 288.275 83.988 A 0.5 0.5 0 0 1 288.775 83.488 Z M 307.825 83.488 L 320.825 83.488 A 0.5 0.5 0 0 1 321.325 83.988 L 321.325 96.988 A 0.5 0.5 0 0 1 320.825 97.488 L 307.825 97.488 A 0.5 0.5 0 0 1 307.325 96.988 L 307.325 83.988 A 0.5 0.5 0 0 1 307.825 83.488 Z M 5.406 102.538 L 18.406 102.538 A 0.5 0.5 0 0 1 18.906 103.038 L 18.906 116.038 A 0.5 0.5 0 0 1 18.406 116.538 L 5.406 116.538 A 0.5 0.5 0 0 1 4.906 116.038 L 4.906 103.038 A 0.5 0.5 0 0 1 5.406 102.538 Z M 29.219 102.538 L 42.219 102.538 A 0.5 0.5 0 0 1 42.719 103.038 L 42.719 116.038 A 0.5 0.5 0 0 1 42.219 116.538 L 29.219 116.538 A 0.5 0.5 0 0 1 28.719 116.038 L 28.719 103.038 A 0.5 0.5 0 0 1 29.219 102.538 Z M 53.031 102.538 L 66.031 102.538 A 0.5 0.5 0 0 1 66.531 103.038 L 66.531 116.038 A 0.5 0.5 0 0 1 66.031 116.538 L 53.031 116.538 A 0.5 0.5 0 0 1 52.531 116.038 L 52.531 103.038 A 0.5 0.5 0 0 1 53.031 102.538 Z M 124.469 102.538 L 137.469 102.538 A 0.5 0.5 0 0 1 137.969 103.038 L 137.969 116.038 A 0.5 0.5 0 0 1 137.469 116.538 L 124.469 116.538 A 0.5 0.5 0 0 1 123.969 116.038 L 123.969 103.038 A 0.5 0.5 0 0 1 124.469 102.538 Z M 195.906 102.538 L 208.906 102.538 A 0.5 0.5 0 0 1 209.406 103.038 L 209.406 116.038 A 0.5 0.5 0 0 1 208.906 116.538 L 195.906 116.538 A 0.5 0.5 0 0 1 195.406 116.038 L 195.406 103.038 A 0.5 0.5 0 0 1 195.906 102.538 Z M 219.719 102.538 L 232.719 102.538 A 0.5 0.5 0 0 1 233.219 103.038 L 233.219 116.038 A 0.5 0.5 0 0 1 232.719 116.538 L 219.719 116.538 A 0.5 0.5 0 0 1 219.219 116.038 L 219.219 103.038 A 0.5 0.5 0 0 1 219.719 102.538 Z M 243.531 102.538 L 256.531 102.538 A 0.5 0.5 0 0 1 257.031 103.038 L 257.031 116.038 A 0.5 0.5 0 0 1 256.531 116.538 L 243.531 116.538 A 0.5 0.5 0 0 1 243.031 116.038 L 243.031 103.038 A 0.5 0.5 0 0 1 243.531 102.538 Z M 269.725 102.538 L 282.725 102.538 A 0.5 0.5 0 0 1 283.225 103.038 L 283.225 116.038 A 0.5 0.5 0 0 1 282.725 116.538 L 269.725 116.538 A 0.5 0.5 0 0 1 269.225 116.038 L 269.225 103.038 A 0.5 0.5 0 0 1 269.725 102.538 Z M 288.775 102.538 L 301.775 102.538 A 0.5 0.5 0 0 1 302.275 103.038 L 302.275 116.038 A 0.5 0.5 0 0 1 301.775 116.538 L 288.775 116.538 A 0.5 0.5 0 0 1 288.275 116.038 L 288.275 103.038 A 0.5 0.5 0 0 1 288.775 102.538 Z M 307.825 102.538 L 320.825 102.538 A 0.5 0.5 0 0 1 321.325 103.038 L 321.325 116.038 A 0.5 0.5 0 0 1 320.825 116.538 L 307.825 116.538 A 0.5 0.5 0 0 1 307.325 116.038 L 307.325 103.038 A 0.5 0.5 0 0 1 307.825 102.538 Z M 36.363 2.525 L 49.363 2.525 A 0.5 0.5 0 0 1 49.863 3.025 L 49.863 16.025 A 0.5 0.5 0 0 1 49.363 16.525 L 36.363 16.525 A 0.5 0.5 0 0 1 35.863 16.025 L 35.863 3.025 A 0.5 0.5 0 0 1 36.363 2.525 Z M 74.463 2.525 L 87.463 2.525 A 0.5 0.5 0 0 1 87.963 3.025 L 87.963 16.025 A 0.5 0.5 0 0 1 87.463 16.525 L 74.463 16.525 A 0.5 0.5 0 0 1 73.963 16.025 L 73.963 3.025 A 0.5 0.5 0 0 1 74.463 2.525 Z M 93.513 2.525 L 106.513 2.525 A 0.5 0.5 0 0 1 107.013 3.025 L 107.013 16.025 A 0.5 0.5 0 0 1 106.513 16.525 L 93.513 16.525 A 0.5 0.5 0 0 1 93.013 16.025 L 93.013 3.025 A 0.5 0.5 0 0 1 93.513 2.525 Z M 136.375 2.525 L 149.375 2.525 A 0.5 0.5 0 0 1 149.875 3.025 L 149.875 16.025 A 0.5 0.5 0 0 1 149.375 16.525 L 136.375 16.525 A 0.5 0.5 0 0 1 135.875 16.025 L 135.875 3.025 A 0.5 0.5 0 0 1 136.375 2.525 Z M 155.425 2.525 L 168.425 2.525 A 0.5 0.5 0 0 1 168.925 3.025 L 168.925 16.025 A 0.5 0.5 0 0 1 168.425 16.525 L 155.425 16.525 A 0.5 0.5 0 0 1 154.925 16.025 L 154.925 3.025 A 0.5 0.5 0 0 1 155.425 2.525 Z M 174.475 2.525 L 187.475 2.525 A 0.5 0.5 0 0 1 187.975 3.025 L 187.975 16.025 A 0.5 0.5 0 0 1 187.475 16.525 L 174.475 16.525 A 0.5 0.5 0 0 1 173.975 16.025 L 173.975 3.025 A 0.5 0.5 0 0 1 174.475 2.525 Z M 198.288 2.525 L 211.288 2.525 A 0.5 0.5 0 0 1 211.788 3.025 L 211.788 16.025 A 0.5 0.5 0 0 1 211.288 16.525 L 198.288 16.525 A 0.5 0.5 0 0 1 197.788 16.025 L 197.788 3.025 A 0.5 0.5 0 0 1 198.288 2.525 Z M 217.338 2.525 L 230.338 2.525 A 0.5 0.5 0 0 1 230.838 3.025 L 230.838 16.025 A 0.5 0.5 0 0 1 230.338 16.525 L 217.338 16.525 A 0.5 0.5 0 0 1 216.838 16.025 L 216.838 3.025 A 0.5 0.5 0 0 1 217.338 2.525 Z M 236.388 2.525 L 249.388 2.525 A 0.5 0.5 0 0 1 249.888 3.025 L 249.888 16.025 A 0.5 0.5 0 0 1 249.388 16.525 L 236.388 16.525 A 0.5 0.5 0 0 1 235.888 16.025 L 235.888 3.025 A 0.5 0.5 0 0 1 236.388 2.525 Z M 255.438 2.525 L 268.438 2.525 A 0.5 0.5 0 0 1 268.938 3.025 L 268.938 16.025 A 0.5 0.5 0 0 1 268.438 16.525 L 255.438 16.525 A 0.5 0.5 0 0 1 254.938 16.025 L 254.938 3.025 A 0.5 0.5 0 0 1 255.438 2.525 Z M 288.775 2.525 L 301.775 2.525 A 0.5 0.5 0 0 1 302.275 3.025 L 302.275 16.025 A 0.5 0.5 0 0 1 301.775 16.525 L 288.775 16.525 A 0.5 0.5 0 0 1 288.275 16.025 L 288.275 3.025 A 0.5 0.5 0 0 1 288.775 2.525 Z M 307.825 2.525 L 320.825 2.525 A 0.5 0.5 0 0 1 321.325 3.025 L 321.325 16.025 A 0.5 0.5 0 0 1 320.825 16.525 L 307.825 16.525 A 0.5 0.5 0 0 1 307.325 16.025 L 307.325 3.025 A 0.5 0.5 0 0 1 307.825 2.525 Z M 3.025 26.338 L 16.025 26.338 A 0.5 0.5 0 0 1 16.525 26.838 L 16.525 39.838 A 0.5 0.5 0 0 1 16.025 40.338 L 3.025 40.338 A 0.5 0.5 0 0 1 2.525 39.838 L 2.525 26.838 A 0.5 0.5 0 0 1 3.025 26.338 Z M 55.413 64.438 L 68.413 64.438 A 0.5 0.5 0 0 1 68.913 64.938 L 68.913 77.938 A 0.5 0.5 0 0 1 68.413 78.438 L 55.413 78.438 A 0.5 0.5 0 0 1 54.913 77.938 L 54.913 64.938 A 0.5 0.5 0 0 1 55.413 64.438 Z M 55.413 2.525 L 68.413 2.525 A 0.5 0.5 0 0 1 68.913 3.025 L 68.913 16.025 A 0.5 0.5 0 0 1 68.413 16.525 L 55.413 16.525 A 0.5 0.5 0 0 1 54.913 16.025 L 54.913 3.025 A 0.5 0.5 0 0 1 55.413 2.525 Z M 117.325 26.338 L 130.325 26.338 A 0.5 0.5 0 0 1 130.825 26.838 L 130.825 39.838 A 0.5 0.5 0 0 1 130.325 40.338 L 117.325 40.338 A 0.5 0.5 0 0 1 116.825 39.838 L 116.825 26.838 A 0.5 0.5 0 0 1 117.325 26.338 Z M 117.325 2.525 L 130.325 2.525 A 0.5 0.5 0 0 1 130.825 3.025 L 130.825 16.025 A 0.5 0.5 0 0 1 130.325 16.525 L 117.325 16.525 A 0.5 0.5 0 0 1 116.825 16.025 L 116.825 3.025 A 0.5 0.5 0 0 1 117.325 2.525 Z M 251.762 27.338 L 257.762 27.338 A 0.5 0.5 0 0 1 258.262 27.838 L 258.262 41.838 A 0.5 0.5 0 0 1 257.762 42.338 L 251.762 42.338 A 0.5 0.5 0 0 1 251.262 41.838 L 251.262 27.838 A 0.5 0.5 0 0 1 251.762 27.338 Z M 275.638 27.338 L 281.638 27.338 A 0.5 0.5 0 0 1 282.138 27.838 L 282.138 41.838 A 0.5 0.5 0 0 1 281.638 42.338 L 275.638 42.338 A 0.5 0.5 0 0 1 275.138 41.838 L 275.138 27.838 A 0.5 0.5 0 0 1 275.638 27.338 Z M 249.381 65.438 L 255.381 65.438 A 0.5 0.5 0 0 1 255.881 65.938 L 255.881 79.938 A 0.5 0.5 0 0 1 255.381 80.438 L 249.381 80.438 A 0.5 0.5 0 0 1 248.881 79.938 L 248.881 65.938 A 0.5 0.5 0 0 1 249.381 65.438 Z M 273.257 65.438 L 279.257 65.438 A 0.5 0.5 0 0 1 279.757 65.938 L 279.757 79.938 A 0.5 0.5 0 0 1 279.257 80.438 L 273.257 80.438 A 0.5 0.5 0 0 1 272.757 79.938 L 272.757 65.938 A 0.5 0.5 0 0 1 273.257 65.438 Z M 6.493 84.488 L 12.493 84.488 A 0.5 0.5 0 0 1 12.993 84.988 L 12.993 98.988 A 0.5 0.5 0 0 1 12.493 99.488 L 6.493 99.488 A 0.5 0.5 0 0 1 5.993 98.988 L 5.993 84.988 A 0.5 0.5 0 0 1 6.493 84.488 Z M 30.369 84.488 L 36.369 84.488 A 0.5 0.5 0 0 1 36.869 84.988 L 36.869 98.988 A 0.5 0.5 0 0 1 36.369 99.488 L 30.369 99.488 A 0.5 0.5 0 0 1 29.869 98.988 L 29.869 84.988 A 0.5 0.5 0 0 1 30.369 84.488 Z M 244.618 84.488 L 250.618 84.488 A 0.5 0.5 0 0 1 251.118 84.988 L 251.118 98.988 A 0.5 0.5 0 0 1 250.618 99.488 L 244.618 99.488 A 0.5 0.5 0 0 1 244.118 98.988 L 244.118 84.988 A 0.5 0.5 0 0 1 244.618 84.488 Z M 268.494 84.488 L 274.494 84.488 A 0.5 0.5 0 0 1 274.994 84.988 L 274.994 98.988 A 0.5 0.5 0 0 1 274.494 99.488 L 268.494 99.488 A 0.5 0.5 0 0 1 267.994 98.988 L 267.994 84.988 A 0.5 0.5 0 0 1 268.494 84.488 Z M 77.969 103.538 L 83.969 103.538 A 0.5 0.5 0 0 1 84.469 104.038 L 84.469 118.038 A 0.5 0.5 0 0 1 83.969 118.538 L 77.969 118.538 A 0.5 0.5 0 0 1 77.469 118.038 L 77.469 104.038 A 0.5 0.5 0 0 1 77.969 103.538 Z M 177.969 103.538 L 183.969 103.538 A 0.5 0.5 0 0 1 184.469 104.038 L 184.469 118.038 A 0.5 0.5 0 0 1 183.969 118.538 L 177.969 118.538 A 0.5 0.5 0 0 1 177.469 118.038 L 177.469 104.038 A 0.5 0.5 0 0 1 177.969 103.538 Z" vector-effect="non-scaling-stroke"/></g></svg>