<?xml version="1.0" standalone="no"?>
 <!DOCTYPE svg PUBLIC "-//W3C//DTD SVG 1.1//EN" 
 "http://www.w3.org/Graphics/SVG/1.1/DTD/svg11.dtd"> 
<svg
  xmlns:svg="http://www.w3.org/2000/svg"
  xmlns="http://www.w3.org/2000/svg"
  xmlns:xlink="http://www.w3.org/1999/xlink"
  xmlns:inkscape="http://www.inkscape.org/namespaces/inkscape"
  version="1.1"
  width="419.9890mm" height="297.0022mm" viewBox="0.0000 0.0000 419.9890 297.0022">
<title>SVG Image created as sreeram_keyboard-F_Courtyard.svg date 2026-06-08T23:08:40 </title>
  <desc>Image generated by PCBNEW </desc>
<g style="fill:#000000; fill-opacity:1.0000;stroke:#000000; stroke-opacity:1.0000;
stroke-linecap:round; stroke-linejoin:round;"
 transform="translate(0 0) scale(1 1)">
<path style="fill:none; 
stroke:#FF26E2; stroke-width:0.0500; stroke-opacity:1; 
stroke-linecap:round; stroke-linejoin:round;fill:none"
d="M 270.4300,43.9300
272.3900,43.9300
272.3900,47.6900
270.4300,47.6900
Z" /> 
</g>
<g style="fill:none; 
stroke:#FF26E2; stroke-width:0.0500; stroke-opacity:1; 
stroke-linecap:round; stroke-linejoin:round;">
<path d="M261.1000 48.7025
L261.1000 52.3025
" />
<path d="M261.1000 48.7025
L265.8600 48.7025
" />
<path d="M265.8600 52.3025
L261.1000 52.3025
" />
<path d="M265.8600 52.3025
L265.8600 48.7025
" />
</g>
<g style="fill:none; 
stroke:#FF26E2; stroke-width:0.1000; stroke-opacity:1; 
stroke-linecap:round; stroke-linejoin:round;">
<path d="M291.4800 44.2600
L281.4800 44.2600
" />
<path d="M281.4800 44.2600
L281.4800 36.2600
" />
<path d="M281.4800 36.2600
L291.4800 36.2600
" />
<path d="M291.4800 36.2600
L291.4800 44.2600
" />
<path d="M351.4728 46.0975
L369.4728 46.0975
" />
<path d="M369.4728 46.0975
L369.4728 64.9475
" />
<path d="M369.4728 64.9475
L351.4728 64.9475
" />
<path d="M351.4728 64.9475
L351.4728 46.0975
" />
<path style="fill:none; 
stroke:#FF26E2; stroke-width:0.0500; stroke-opacity:1; 
stroke-linecap:round; stroke-linejoin:round;fill:none"
d="M 266.2200,48.5500
269.9800,48.5500
269.9800,50.5100
266.2200,50.5100
Z" /> 
<path style="fill:none; 
stroke:#FF26E2; stroke-width:0.0500; stroke-opacity:1; 
stroke-linecap:round; stroke-linejoin:round;fill:none"
d="M 299.3800,36.1900
325.7800,36.1900
325.7800,39.7300
299.3800,39.7300
Z" /> 
</g>
<g style="fill:none; 
stroke:#FF26E2; stroke-width:0.0500; stroke-opacity:1; 
stroke-linecap:round; stroke-linejoin:round;">
<circle cx="357.4700" cy="38.1000" r="2.4500" /> 
<path style="fill:none; 
stroke:#FF26E2; stroke-width:0.0500; stroke-opacity:1; 
stroke-linecap:round; stroke-linejoin:round;fill:none"
d="M 299.7400,48.7600
326.1400,48.7600
326.1400,52.3000
299.7400,52.3000
Z" /> 
<path style="fill:none; 
stroke:#FF26E2; stroke-width:0.0500; stroke-opacity:1; 
stroke-linecap:round; stroke-linejoin:round;fill:none"
d="M 251.3201,49.9264
253.9364,47.3101
255.2799,48.6536
252.6636,51.2699
Z" /> 
<path d="M237.2483 56.9313
L238.2736 55.9060
" />
<path d="M243.1173 62.8003
L237.2483 56.9313
" />
<path d="M237.4958 55.1282
L238.2736 54.3503
" />
<path d="M238.2736 55.9060
L237.4958 55.1282
" />
<path d="M244.1426 61.7750
L243.1173 62.8003
" />
<path d="M244.9204 62.5528
L244.1426 61.7750
" />
<path d="M237.2483 53.3250
L243.1173 47.4560
" />
<path d="M238.2736 54.3503
L237.2483 53.3250
" />
<path d="M245.6982 61.7750
L244.9204 62.5528
" />
<path d="M246.7235 62.8003
L245.6982 61.7750
" />
<path d="M243.1173 47.4560
L244.1426 48.4814
" />
<path d="M244.1426 48.4814
L244.9204 47.7035
" />
<path d="M251.5672 55.9060
L252.5925 56.9313
" />
<path d="M252.5925 56.9313
L246.7235 62.8003
" />
<path d="M244.9204 47.7035
L245.6982 48.4814
" />
<path d="M245.6982 48.4814
L246.7235 47.4560
" />
<path d="M251.5672 54.3503
L252.3450 55.1282
" />
<path d="M252.3450 55.1282
L251.5672 55.9060
" />
<path d="M246.7235 47.4560
L252.5925 53.3250
" />
<path d="M252.5925 53.3250
L251.5672 54.3503
" />
<circle cx="52.6700" cy="38.1000" r="2.4500" /> 
<circle cx="204.6700" cy="38.1000" r="2.4500" /> 
<circle cx="202.4734" cy="182.3002" r="2.4500" /> 
<circle cx="143.6735" cy="182.3002" r="2.4500" /> 
<path style="fill:none; 
stroke:#FF26E2; stroke-width:0.0500; stroke-opacity:1; 
stroke-linecap:round; stroke-linejoin:round;fill:none"
d="M 260.9900,41.0000
263.2500,41.0000
263.2500,45.9000
260.9900,45.9000
Z" /> 
<path style="fill:none; 
stroke:#FF26E2; stroke-width:0.0500; stroke-opacity:1; 
stroke-linecap:round; stroke-linejoin:round;fill:none"
d="M 264.6500,43.9600
268.4100,43.9600
268.4100,45.9200
264.6500,45.9200
Z" /> 
<path style="fill:none; 
stroke:#FF26E2; stroke-width:0.0500; stroke-opacity:1; 
stroke-linecap:round; stroke-linejoin:round;fill:none"
d="M 100.5850,72.9275
114.5850,72.9275
114.5850,86.9275
100.5850,86.9275
Z" /> 
<path style="fill:none; 
stroke:#FF26E2; stroke-width:0.0500; stroke-opacity:1; 
stroke-linecap:round; stroke-linejoin:round;fill:none"
d="M 314.8975,172.9400
328.8975,172.9400
328.8975,186.9400
314.8975,186.9400
Z" /> 
<path style="fill:none; 
stroke:#FF26E2; stroke-width:0.0500; stroke-opacity:1; 
stroke-linecap:round; stroke-linejoin:round;fill:none"
d="M 219.6475,96.7400
233.6475,96.7400
233.6475,110.7400
219.6475,110.7400
Z" /> 
<path style="fill:none; 
stroke:#FF26E2; stroke-width:0.0500; stroke-opacity:1; 
stroke-linecap:round; stroke-linejoin:round;fill:none"
d="M 181.5475,96.7400
195.5475,96.7400
195.5475,110.7400
181.5475,110.7400
Z" /> 
<path style="fill:none; 
stroke:#FF26E2; stroke-width:0.0500; stroke-opacity:1; 
stroke-linecap:round; stroke-linejoin:round;fill:none"
d="M 52.9600,115.7900
66.9600,115.7900
66.9600,129.7900
52.9600,129.7900
Z" /> 
<path style="fill:none; 
stroke:#FF26E2; stroke-width:0.0500; stroke-opacity:1; 
stroke-linecap:round; stroke-linejoin:round;fill:none"
d="M 48.1975,96.7400
62.1975,96.7400
62.1975,110.7400
48.1975,110.7400
Z" /> 
<path style="fill:none; 
stroke:#FF26E2; stroke-width:0.0500; stroke-opacity:1; 
stroke-linecap:round; stroke-linejoin:round;fill:none"
d="M 200.5975,72.9275
214.5975,72.9275
214.5975,86.9275
200.5975,86.9275
Z" /> 
<path style="fill:none; 
stroke:#FF26E2; stroke-width:0.0500; stroke-opacity:1; 
stroke-linecap:round; stroke-linejoin:round;fill:none"
d="M 257.7475,96.7400
271.7475,96.7400
271.7475,110.7400
257.7475,110.7400
Z" /> 
<path style="fill:none; 
stroke:#FF26E2; stroke-width:0.0500; stroke-opacity:1; 
stroke-linecap:round; stroke-linejoin:round;fill:none"
d="M 162.4975,96.7400
176.4975,96.7400
176.4975,110.7400
162.4975,110.7400
Z" /> 
<path style="fill:none; 
stroke:#FF26E2; stroke-width:0.0500; stroke-opacity:1; 
stroke-linecap:round; stroke-linejoin:round;fill:none"
d="M 352.9975,134.8400
366.9975,134.8400
366.9975,148.8400
352.9975,148.8400
Z" /> 
<path style="fill:none; 
stroke:#FF26E2; stroke-width:0.0500; stroke-opacity:1; 
stroke-linecap:round; stroke-linejoin:round;fill:none"
d="M 352.9975,72.9275
366.9975,72.9275
366.9975,86.9275
352.9975,86.9275
Z" /> 
<path style="fill:none; 
stroke:#FF26E2; stroke-width:0.0500; stroke-opacity:1; 
stroke-linecap:round; stroke-linejoin:round;fill:none"
d="M 74.3912,172.9400
88.3912,172.9400
88.3912,186.9400
74.3912,186.9400
Z" /> 
<path style="fill:none; 
stroke:#FF26E2; stroke-width:0.0500; stroke-opacity:1; 
stroke-linecap:round; stroke-linejoin:round;fill:none"
d="M 114.8725,115.7900
128.8725,115.7900
128.8725,129.7900
114.8725,129.7900
Z" /> 
<path style="fill:none; 
stroke:#FF26E2; stroke-width:0.0500; stroke-opacity:1; 
stroke-linecap:round; stroke-linejoin:round;fill:none"
d="M 157.7350,134.8400
171.7350,134.8400
171.7350,148.8400
157.7350,148.8400
Z" /> 
<path style="fill:none; 
stroke:#FF26E2; stroke-width:0.0500; stroke-opacity:1; 
stroke-linecap:round; stroke-linejoin:round;fill:none"
d="M 52.9600,72.9275
66.9600,72.9275
66.9600,86.9275
52.9600,86.9275
Z" /> 
<path style="fill:none; 
stroke:#FF26E2; stroke-width:0.0500; stroke-opacity:1; 
stroke-linecap:round; stroke-linejoin:round;fill:none"
d="M 138.6850,72.9275
152.6850,72.9275
152.6850,86.9275
138.6850,86.9275
Z" /> 
<path style="fill:none; 
stroke:#FF26E2; stroke-width:0.0500; stroke-opacity:1; 
stroke-linecap:round; stroke-linejoin:round;fill:none"
d="M 191.0725,115.7900
205.0725,115.7900
205.0725,129.7900
191.0725,129.7900
Z" /> 
<path style="fill:none; 
stroke:#FF26E2; stroke-width:0.0500; stroke-opacity:1; 
stroke-linecap:round; stroke-linejoin:round;fill:none"
d="M 238.6975,96.7400
252.6975,96.7400
252.6975,110.7400
238.6975,110.7400
Z" /> 
<path style="fill:none; 
stroke:#FF26E2; stroke-width:0.0500; stroke-opacity:1; 
stroke-linecap:round; stroke-linejoin:round;fill:none"
d="M 81.5350,72.9275
95.5350,72.9275
95.5350,86.9275
81.5350,86.9275
Z" /> 
<path style="fill:none; 
stroke:#FF26E2; stroke-width:0.0500; stroke-opacity:1; 
stroke-linecap:round; stroke-linejoin:round;fill:none"
d="M 267.2725,115.7900
281.2725,115.7900
281.2725,129.7900
267.2725,129.7900
Z" /> 
<path style="fill:none; 
stroke:#FF26E2; stroke-width:0.0500; stroke-opacity:1; 
stroke-linecap:round; stroke-linejoin:round;fill:none"
d="M 86.2975,96.7400
100.2975,96.7400
100.2975,110.7400
86.2975,110.7400
Z" /> 
<path style="fill:none; 
stroke:#FF26E2; stroke-width:0.0500; stroke-opacity:1; 
stroke-linecap:round; stroke-linejoin:round;fill:none"
d="M 333.9475,153.8900
347.9475,153.8900
347.9475,167.8900
333.9475,167.8900
Z" /> 
<path style="fill:none; 
stroke:#FF26E2; stroke-width:0.0500; stroke-opacity:1; 
stroke-linecap:round; stroke-linejoin:round;fill:none"
d="M 248.2225,115.7900
262.2225,115.7900
262.2225,129.7900
248.2225,129.7900
Z" /> 
<path style="fill:none; 
stroke:#FF26E2; stroke-width:0.0500; stroke-opacity:1; 
stroke-linecap:round; stroke-linejoin:round;fill:none"
d="M 233.9350,134.8400
247.9350,134.8400
247.9350,148.8400
233.9350,148.8400
Z" /> 
<path style="fill:none; 
stroke:#FF26E2; stroke-width:0.0500; stroke-opacity:1; 
stroke-linecap:round; stroke-linejoin:round;fill:none"
d="M 67.2475,96.7400
81.2475,96.7400
81.2475,110.7400
67.2475,110.7400
Z" /> 
<path style="fill:none; 
stroke:#FF26E2; stroke-width:0.0500; stroke-opacity:1; 
stroke-linecap:round; stroke-linejoin:round;fill:none"
d="M 241.0787,172.9400
255.0787,172.9400
255.0787,186.9400
241.0787,186.9400
Z" /> 
<path style="fill:none; 
stroke:#FF26E2; stroke-width:0.0500; stroke-opacity:1; 
stroke-linecap:round; stroke-linejoin:round;fill:none"
d="M 333.9475,134.8400
347.9475,134.8400
347.9475,148.8400
333.9475,148.8400
Z" /> 
<path style="fill:none; 
stroke:#FF26E2; stroke-width:0.0500; stroke-opacity:1; 
stroke-linecap:round; stroke-linejoin:round;fill:none"
d="M 119.6350,72.9275
133.6350,72.9275
133.6350,86.9275
119.6350,86.9275
Z" /> 
<path style="fill:none; 
stroke:#FF26E2; stroke-width:0.0500; stroke-opacity:1; 
stroke-linecap:round; stroke-linejoin:round;fill:none"
d="M 181.5475,72.9275
195.5475,72.9275
195.5475,86.9275
181.5475,86.9275
Z" /> 
<path style="fill:none; 
stroke:#FF26E2; stroke-width:0.0500; stroke-opacity:1; 
stroke-linecap:round; stroke-linejoin:round;fill:none"
d="M 76.7725,115.7900
90.7725,115.7900
90.7725,129.7900
76.7725,129.7900
Z" /> 
<path style="fill:none; 
stroke:#FF26E2; stroke-width:0.0500; stroke-opacity:1; 
stroke-linecap:round; stroke-linejoin:round;fill:none"
d="M 98.2037,172.9400
112.2037,172.9400
112.2037,186.9400
98.2037,186.9400
Z" /> 
<path style="fill:none; 
stroke:#FF26E2; stroke-width:0.0500; stroke-opacity:1; 
stroke-linecap:round; stroke-linejoin:round;fill:none"
d="M 50.5787,172.9400
64.5787,172.9400
64.5787,186.9400
50.5787,186.9400
Z" /> 
<path style="fill:none; 
stroke:#FF26E2; stroke-width:0.0500; stroke-opacity:1; 
stroke-linecap:round; stroke-linejoin:round;fill:none"
d="M 352.9975,96.7400
366.9975,96.7400
366.9975,110.7400
352.9975,110.7400
Z" /> 
<path style="fill:none; 
stroke:#FF26E2; stroke-width:0.0500; stroke-opacity:1; 
stroke-linecap:round; stroke-linejoin:round;fill:none"
d="M 262.5100,72.9275
276.5100,72.9275
276.5100,86.9275
262.5100,86.9275
Z" /> 
<path style="fill:none; 
stroke:#FF26E2; stroke-width:0.0500; stroke-opacity:1; 
stroke-linecap:round; stroke-linejoin:round;fill:none"
d="M 214.8850,134.8400
228.8850,134.8400
228.8850,148.8400
214.8850,148.8400
Z" /> 
<path style="fill:none; 
stroke:#FF26E2; stroke-width:0.0500; stroke-opacity:1; 
stroke-linecap:round; stroke-linejoin:round;fill:none"
d="M 81.5350,134.8400
95.5350,134.8400
95.5350,148.8400
81.5350,148.8400
Z" /> 
<path style="fill:none; 
stroke:#FF26E2; stroke-width:0.0500; stroke-opacity:1; 
stroke-linecap:round; stroke-linejoin:round;fill:none"
d="M 124.3975,96.7400
138.3975,96.7400
138.3975,110.7400
124.3975,110.7400
Z" /> 
<path style="fill:none; 
stroke:#FF26E2; stroke-width:0.0500; stroke-opacity:1; 
stroke-linecap:round; stroke-linejoin:round;fill:none"
d="M 162.4975,72.9275
176.4975,72.9275
176.4975,86.9275
162.4975,86.9275
Z" /> 
<path style="fill:none; 
stroke:#FF26E2; stroke-width:0.0500; stroke-opacity:1; 
stroke-linecap:round; stroke-linejoin:round;fill:none"
d="M 186.3100,153.8900
200.3100,153.8900
200.3100,167.8900
186.3100,167.8900
Z" /> 
<path style="fill:none; 
stroke:#FF26E2; stroke-width:0.0500; stroke-opacity:1; 
stroke-linecap:round; stroke-linejoin:round;fill:none"
d="M 152.9725,115.7900
166.9725,115.7900
166.9725,129.7900
152.9725,129.7900
Z" /> 
<path style="fill:none; 
stroke:#FF26E2; stroke-width:0.0500; stroke-opacity:1; 
stroke-linecap:round; stroke-linejoin:round;fill:none"
d="M 55.3412,134.8400
69.3413,134.8400
69.3413,148.8400
55.3412,148.8400
Z" /> 
<path style="fill:none; 
stroke:#FF26E2; stroke-width:0.0500; stroke-opacity:1; 
stroke-linecap:round; stroke-linejoin:round;fill:none"
d="M 272.0350,134.8400
286.0350,134.8400
286.0350,148.8400
272.0350,148.8400
Z" /> 
<path style="fill:none; 
stroke:#FF26E2; stroke-width:0.0500; stroke-opacity:1; 
stroke-linecap:round; stroke-linejoin:round;fill:none"
d="M 333.9475,96.7400
347.9475,96.7400
347.9475,110.7400
333.9475,110.7400
Z" /> 
<path style="fill:none; 
stroke:#FF26E2; stroke-width:0.0500; stroke-opacity:1; 
stroke-linecap:round; stroke-linejoin:round;fill:none"
d="M 352.9975,115.7900
366.9975,115.7900
366.9975,129.7900
352.9975,129.7900
Z" /> 
<path style="fill:none; 
stroke:#FF26E2; stroke-width:0.0500; stroke-opacity:1; 
stroke-linecap:round; stroke-linejoin:round;fill:none"
d="M 310.1350,115.7900
324.1350,115.7900
324.1350,129.7900
310.1350,129.7900
Z" /> 
<path style="fill:none; 
stroke:#FF26E2; stroke-width:0.0500; stroke-opacity:1; 
stroke-linecap:round; stroke-linejoin:round;fill:none"
d="M 167.2600,153.8900
181.2600,153.8900
181.2600,167.8900
167.2600,167.8900
Z" /> 
<path style="fill:none; 
stroke:#FF26E2; stroke-width:0.0500; stroke-opacity:1; 
stroke-linecap:round; stroke-linejoin:round;fill:none"
d="M 169.6412,172.9400
183.6412,172.9400
183.6412,186.9400
169.6412,186.9400
Z" /> 
<path style="fill:none; 
stroke:#FF26E2; stroke-width:0.0500; stroke-opacity:1; 
stroke-linecap:round; stroke-linejoin:round;fill:none"
d="M 60.1037,153.8900
74.1037,153.8900
74.1037,167.8900
60.1037,167.8900
Z" /> 
<path style="fill:none; 
stroke:#FF26E2; stroke-width:0.0500; stroke-opacity:1; 
stroke-linecap:round; stroke-linejoin:round;fill:none"
d="M 298.2287,153.8900
312.2287,153.8900
312.2287,167.8900
298.2287,167.8900
Z" /> 
<path style="fill:none; 
stroke:#FF26E2; stroke-width:0.0500; stroke-opacity:1; 
stroke-linecap:round; stroke-linejoin:round;fill:none"
d="M 288.7038,172.9400
302.7038,172.9400
302.7038,186.9400
288.7038,186.9400
Z" /> 
<path style="fill:none; 
stroke:#FF26E2; stroke-width:0.0500; stroke-opacity:1; 
stroke-linecap:round; stroke-linejoin:round;fill:none"
d="M 243.4600,153.8900
257.4600,153.8900
257.4600,167.8900
243.4600,167.8900
Z" /> 
<path style="fill:none; 
stroke:#FF26E2; stroke-width:0.0500; stroke-opacity:1; 
stroke-linecap:round; stroke-linejoin:round;fill:none"
d="M 119.6350,134.8400
133.6350,134.8400
133.6350,148.8400
119.6350,148.8400
Z" /> 
<path style="fill:none; 
stroke:#FF26E2; stroke-width:0.0500; stroke-opacity:1; 
stroke-linecap:round; stroke-linejoin:round;fill:none"
d="M 148.2100,153.8900
162.2100,153.8900
162.2100,167.8900
148.2100,167.8900
Z" /> 
<path style="fill:none; 
stroke:#FF26E2; stroke-width:0.0500; stroke-opacity:1; 
stroke-linecap:round; stroke-linejoin:round;fill:none"
d="M 281.5600,72.9275
295.5600,72.9275
295.5600,86.9275
281.5600,86.9275
Z" /> 
<path style="fill:none; 
stroke:#FF26E2; stroke-width:0.0500; stroke-opacity:1; 
stroke-linecap:round; stroke-linejoin:round;fill:none"
d="M 143.4475,96.7400
157.4475,96.7400
157.4475,110.7400
143.4475,110.7400
Z" /> 
<path style="fill:none; 
stroke:#FF26E2; stroke-width:0.0500; stroke-opacity:1; 
stroke-linecap:round; stroke-linejoin:round;fill:none"
d="M 138.6850,134.8400
152.6850,134.8400
152.6850,148.8400
138.6850,148.8400
Z" /> 
<path style="fill:none; 
stroke:#FF26E2; stroke-width:0.0500; stroke-opacity:1; 
stroke-linecap:round; stroke-linejoin:round;fill:none"
d="M 133.9225,115.7900
147.9225,115.7900
147.9225,129.7900
133.9225,129.7900
Z" /> 
<path style="fill:none; 
stroke:#FF26E2; stroke-width:0.0500; stroke-opacity:1; 
stroke-linecap:round; stroke-linejoin:round;fill:none"
d="M 129.1600,153.8900
143.1600,153.8900
143.1600,167.8900
129.1600,167.8900
Z" /> 
<path style="fill:none; 
stroke:#FF26E2; stroke-width:0.0500; stroke-opacity:1; 
stroke-linecap:round; stroke-linejoin:round;fill:none"
d="M 176.7850,134.8400
190.7850,134.8400
190.7850,148.8400
176.7850,148.8400
Z" /> 
<path style="fill:none; 
stroke:#FF26E2; stroke-width:0.0500; stroke-opacity:1; 
stroke-linecap:round; stroke-linejoin:round;fill:none"
d="M 229.1725,115.7900
243.1725,115.7900
243.1725,129.7900
229.1725,129.7900
Z" /> 
<path style="fill:none; 
stroke:#FF26E2; stroke-width:0.0500; stroke-opacity:1; 
stroke-linecap:round; stroke-linejoin:round;fill:none"
d="M 352.9975,172.9400
366.9975,172.9400
366.9975,186.9400
352.9975,186.9400
Z" /> 
<path style="fill:none; 
stroke:#FF26E2; stroke-width:0.0500; stroke-opacity:1; 
stroke-linecap:round; stroke-linejoin:round;fill:none"
d="M 91.0600,153.8900
105.0600,153.8900
105.0600,167.8900
91.0600,167.8900
Z" /> 
<path style="fill:none; 
stroke:#FF26E2; stroke-width:0.0500; stroke-opacity:1; 
stroke-linecap:round; stroke-linejoin:round;fill:none"
d="M 105.3475,96.7400
119.3475,96.7400
119.3475,110.7400
105.3475,110.7400
Z" /> 
<path style="fill:none; 
stroke:#FF26E2; stroke-width:0.0500; stroke-opacity:1; 
stroke-linecap:round; stroke-linejoin:round;fill:none"
d="M 224.4100,153.8900
238.4100,153.8900
238.4100,167.8900
224.4100,167.8900
Z" /> 
<path style="fill:none; 
stroke:#FF26E2; stroke-width:0.0500; stroke-opacity:1; 
stroke-linecap:round; stroke-linejoin:round;fill:none"
d="M 95.8225,115.7900
109.8225,115.7900
109.8225,129.7900
95.8225,129.7900
Z" /> 
<path style="fill:none; 
stroke:#FF26E2; stroke-width:0.0500; stroke-opacity:1; 
stroke-linecap:round; stroke-linejoin:round;fill:none"
d="M 219.6475,72.9275
233.6475,72.9275
233.6475,86.9275
219.6475,86.9275
Z" /> 
<path style="fill:none; 
stroke:#FF26E2; stroke-width:0.0500; stroke-opacity:1; 
stroke-linecap:round; stroke-linejoin:round;fill:none"
d="M 243.4600,72.9275
257.4600,72.9275
257.4600,86.9275
243.4600,86.9275
Z" /> 
<path style="fill:none; 
stroke:#FF26E2; stroke-width:0.0500; stroke-opacity:1; 
stroke-linecap:round; stroke-linejoin:round;fill:none"
d="M 264.8913,172.9400
278.8913,172.9400
278.8913,186.9400
264.8913,186.9400
Z" /> 
<path style="fill:none; 
stroke:#FF26E2; stroke-width:0.0500; stroke-opacity:1; 
stroke-linecap:round; stroke-linejoin:round;fill:none"
d="M 300.6100,72.9275
314.6100,72.9275
314.6100,86.9275
300.6100,86.9275
Z" /> 
<path style="fill:none; 
stroke:#FF26E2; stroke-width:0.0500; stroke-opacity:1; 
stroke-linecap:round; stroke-linejoin:round;fill:none"
d="M 100.5850,134.8400
114.5850,134.8400
114.5850,148.8400
100.5850,148.8400
Z" /> 
<path style="fill:none; 
stroke:#FF26E2; stroke-width:0.0500; stroke-opacity:1; 
stroke-linecap:round; stroke-linejoin:round;fill:none"
d="M 205.3600,153.8900
219.3600,153.8900
219.3600,167.8900
205.3600,167.8900
Z" /> 
<path style="fill:none; 
stroke:#FF26E2; stroke-width:0.0500; stroke-opacity:1; 
stroke-linecap:round; stroke-linejoin:round;fill:none"
d="M 200.5975,96.7400
214.5975,96.7400
214.5975,110.7400
200.5975,110.7400
Z" /> 
<path style="fill:none; 
stroke:#FF26E2; stroke-width:0.0500; stroke-opacity:1; 
stroke-linecap:round; stroke-linejoin:round;fill:none"
d="M 262.5100,153.8900
276.5100,153.8900
276.5100,167.8900
262.5100,167.8900
Z" /> 
<path style="fill:none; 
stroke:#FF26E2; stroke-width:0.0500; stroke-opacity:1; 
stroke-linecap:round; stroke-linejoin:round;fill:none"
d="M 195.8350,134.8400
209.8350,134.8400
209.8350,148.8400
195.8350,148.8400
Z" /> 
<path style="fill:none; 
stroke:#FF26E2; stroke-width:0.0500; stroke-opacity:1; 
stroke-linecap:round; stroke-linejoin:round;fill:none"
d="M 110.1100,153.8900
124.1100,153.8900
124.1100,167.8900
110.1100,167.8900
Z" /> 
<path style="fill:none; 
stroke:#FF26E2; stroke-width:0.0500; stroke-opacity:1; 
stroke-linecap:round; stroke-linejoin:round;fill:none"
d="M 333.9475,172.9400
347.9475,172.9400
347.9475,186.9400
333.9475,186.9400
Z" /> 
<path style="fill:none; 
stroke:#FF26E2; stroke-width:0.0500; stroke-opacity:1; 
stroke-linecap:round; stroke-linejoin:round;fill:none"
d="M 210.1225,115.7900
224.1225,115.7900
224.1225,129.7900
210.1225,129.7900
Z" /> 
<path style="fill:none; 
stroke:#FF26E2; stroke-width:0.0500; stroke-opacity:1; 
stroke-linecap:round; stroke-linejoin:round;fill:none"
d="M 252.9850,134.8400
266.9850,134.8400
266.9850,148.8400
252.9850,148.8400
Z" /> 
<path style="fill:none; 
stroke:#FF26E2; stroke-width:0.0500; stroke-opacity:1; 
stroke-linecap:round; stroke-linejoin:round;fill:none"
d="M 302.9912,134.8400
316.9912,134.8400
316.9912,148.8400
302.9912,148.8400
Z" /> 
<path style="fill:none; 
stroke:#FF26E2; stroke-width:0.0500; stroke-opacity:1; 
stroke-linecap:round; stroke-linejoin:round;fill:none"
d="M 172.0225,115.7900
186.0225,115.7900
186.0225,129.7900
172.0225,129.7900
Z" /> 
<path style="fill:none; 
stroke:#FF26E2; stroke-width:0.0500; stroke-opacity:1; 
stroke-linecap:round; stroke-linejoin:round;fill:none"
d="M 286.3225,115.7900
300.3225,115.7900
300.3225,129.7900
286.3225,129.7900
Z" /> 
<path style="fill:none; 
stroke:#FF26E2; stroke-width:0.0500; stroke-opacity:1; 
stroke-linecap:round; stroke-linejoin:round;fill:none"
d="M 333.9475,72.9275
347.9475,72.9275
347.9475,86.9275
333.9475,86.9275
Z" /> 
<path style="fill:none; 
stroke:#FF26E2; stroke-width:0.0500; stroke-opacity:1; 
stroke-linecap:round; stroke-linejoin:round;fill:none"
d="M 333.9475,115.7900
347.9475,115.7900
347.9475,129.7900
333.9475,129.7900
Z" /> 
<path style="fill:none; 
stroke:#FF26E2; stroke-width:0.0500; stroke-opacity:1; 
stroke-linecap:round; stroke-linejoin:round;fill:none"
d="M 352.9975,153.8900
366.9975,153.8900
366.9975,167.8900
352.9975,167.8900
Z" /> 
<path style="fill:none; 
stroke:#FF26E2; stroke-width:0.0500; stroke-opacity:1; 
stroke-linecap:round; stroke-linejoin:round;fill:none"
d="M 276.7975,96.7400
290.7975,96.7400
290.7975,110.7400
276.7975,110.7400
Z" /> 
<path style="fill:none; 
stroke:#FF26E2; stroke-width:0.0500; stroke-opacity:1; 
stroke-linecap:round; stroke-linejoin:round;fill:none"
d="M 305.3725,96.7400
319.3725,96.7400
319.3725,110.7400
305.3725,110.7400
Z" /> 
</g>
<g style="fill:none; 
stroke:#B4DBD2; stroke-width:0.0500; stroke-opacity:1; 
stroke-linecap:round; stroke-linejoin:round;">
<path d="M123.2600 174.4400
L123.2600 187.4400
" />
<path d="M123.7600 173.9400
L129.5100 173.9400
" />
<path d="M123.7600 187.9400
L129.5100 187.9400
" />
<path d="M130.0100 174.4400
L130.0100 187.4400
" />
<path d="M223.2725 174.4400
L223.2725 187.4400
" />
<path d="M223.7725 173.9400
L229.5213 173.9400
" />
<path d="M223.7725 187.9400
L229.5225 187.9400
" />
<path d="M230.0213 174.4400
L230.0225 187.4400
" />
<path d="M123.7600 173.9400 A0.5000 0.5000 0.0 0 0 123.2600 174.4400" />
<path d="M123.2600 187.4400 A0.5000 0.5000 0.0 0 0 123.7600 187.9400" />
<path d="M130.0100 174.4400 A0.5000 0.5000 0.0 0 0 129.5100 173.9400" />
<path d="M129.5100 187.9400 A0.5000 0.5000 0.0 0 0 130.0100 187.4400" />
<path d="M223.7725 173.9400 A0.5001 0.5001 0.0 0 0 223.2725 174.4400" />
<path d="M223.2725 187.4400 A0.5000 0.5000 0.0 0 0 223.7725 187.9400" />
<path d="M230.0212 174.4400 A0.5000 0.5000 0.0 0 0 229.5213 173.9400" />
<path d="M229.5225 187.9400 A0.5001 0.5001 0.0 0 0 230.0225 187.4400" />
<path style="fill:none; 
stroke:#B4DBD2; stroke-width:0.1000; stroke-opacity:1; 
stroke-linecap:round; stroke-linejoin:round;fill:none"
d="M 289.9665,154.8847
296.7065,154.8847
296.7065,168.8847
289.9665,168.8847
Z" /> 
<path style="fill:none; 
stroke:#B4DBD2; stroke-width:0.1000; stroke-opacity:1; 
stroke-linecap:round; stroke-linejoin:round;fill:none"
d="M 313.7688,154.8900
320.5087,154.8900
320.5087,168.8900
313.7688,168.8900
Z" /> 
<path style="fill:none; 
stroke:#B4DBD2; stroke-width:0.1000; stroke-opacity:1; 
stroke-linecap:round; stroke-linejoin:round;fill:none"
d="M 297.1102,97.7347
303.8502,97.7347
303.8502,111.7347
297.1102,111.7347
Z" /> 
<path style="fill:none; 
stroke:#B4DBD2; stroke-width:0.1000; stroke-opacity:1; 
stroke-linecap:round; stroke-linejoin:round;fill:none"
d="M 320.9125,97.7400
327.6525,97.7400
327.6525,111.7400
320.9125,111.7400
Z" /> 
<path style="fill:none; 
stroke:#B4DBD2; stroke-width:0.1000; stroke-opacity:1; 
stroke-linecap:round; stroke-linejoin:round;fill:none"
d="M 51.8415,154.8847
58.5815,154.8847
58.5815,168.8847
51.8415,168.8847
Z" /> 
<path style="fill:none; 
stroke:#B4DBD2; stroke-width:0.1000; stroke-opacity:1; 
stroke-linecap:round; stroke-linejoin:round;fill:none"
d="M 75.6437,154.8900
82.3837,154.8900
82.3837,168.8900
75.6437,168.8900
Z" /> 
<path style="fill:none; 
stroke:#B4DBD2; stroke-width:0.1000; stroke-opacity:1; 
stroke-linecap:round; stroke-linejoin:round;fill:none"
d="M 294.7290,135.8347
301.4690,135.8347
301.4690,149.8347
294.7290,149.8347
Z" /> 
<path style="fill:none; 
stroke:#B4DBD2; stroke-width:0.1000; stroke-opacity:1; 
stroke-linecap:round; stroke-linejoin:round;fill:none"
d="M 318.5312,135.8400
325.2713,135.8400
325.2713,149.8400
318.5312,149.8400
Z" /> 
<path style="fill:none; 
stroke:#D0D2CD; stroke-width:0.0500; stroke-opacity:1; 
stroke-linecap:round; stroke-linejoin:round;fill:none"
d="M 40.6730,32.0975
374.4730,32.0975
374.4730,194.2975
40.6730,194.2975
Z" /> 
</g> 
</svg>
