<?xml version="1.0" standalone="no"?>
 <!DOCTYPE svg PUBLIC "-//W3C//DTD SVG 1.1//EN" 
 "http://www.w3.org/Graphics/SVG/1.1/DTD/svg11.dtd"> 
<svg
  xmlns:svg="http://www.w3.org/2000/svg"
  xmlns="http://www.w3.org/2000/svg"
  xmlns:xlink="http://www.w3.org/1999/xlink"
  xmlns:inkscape="http://www.inkscape.org/namespaces/inkscape"
  version="1.1"
  width="419.9890mm" height="297.0022mm" viewBox="0.0000 0.0000 419.9890 297.0022">
<title>SVG Image created as sreeram_keyboard-User_Eco2.svg date 2026-06-05T17:26:06 </title>
  <desc>Image generated by PCBNEW </desc>
<g style="fill:#000000; fill-opacity:1.0000;stroke:#000000; stroke-opacity:1.0000;
stroke-linecap:round; stroke-linejoin:round;"
 transform="translate(0 0) scale(1 1)">
</g>
<g style="fill:none; 
stroke:#D8C852; stroke-width:0.0500; stroke-opacity:1; 
stroke-linecap:round; stroke-linejoin:round;">
<path d="M123.2600 174.4400
L123.2600 187.4400
" />
<path d="M123.7600 173.9400
L129.5100 173.9400
" />
<path d="M123.7600 187.9400
L129.5100 187.9400
" />
<path d="M130.0100 174.4400
L130.0100 187.4400
" />
<path d="M223.2725 174.4400
L223.2725 187.4400
" />
<path d="M223.7725 173.9400
L229.5213 173.9400
" />
<path d="M223.7725 187.9400
L229.5225 187.9400
" />
<path d="M230.0213 174.4400
L230.0225 187.4400
" />
<path d="M123.7600 173.9400 A0.5000 0.5000 0.0 0 0 123.2600 174.4400" />
<path d="M123.2600 187.4400 A0.5000 0.5000 0.0 0 0 123.7600 187.9400" />
<path d="M130.0100 174.4400 A0.5000 0.5000 0.0 0 0 129.5100 173.9400" />
<path d="M129.5100 187.9400 A0.5000 0.5000 0.0 0 0 130.0100 187.4400" />
<path d="M223.7725 173.9400 A0.5001 0.5001 0.0 0 0 223.2725 174.4400" />
<path d="M223.2725 187.4400 A0.5000 0.5000 0.0 0 0 223.7725 187.9400" />
<path d="M230.0212 174.4400 A0.5000 0.5000 0.0 0 0 229.5213 173.9400" />
<path d="M229.5225 187.9400 A0.5001 0.5001 0.0 0 0 230.0225 187.4400" />
</g>
<g style="fill:none; 
stroke:#D8C852; stroke-width:0.1000; stroke-opacity:1; 
stroke-linecap:round; stroke-linejoin:round;">
<circle cx="357.4700" cy="38.1000" r="2.5000" /> 
</g>
<g style="fill:none; 
stroke:#D8C852; stroke-width:0.0500; stroke-opacity:1; 
stroke-linecap:round; stroke-linejoin:round;">
<path d="M289.9475 155.3900
L289.9475 168.3900
" />
<path d="M290.4475 154.8900
L296.1975 154.8900
" />
<path d="M290.4475 168.8900
L296.1975 168.8900
" />
<path d="M296.6975 155.3900
L296.6975 168.3900
" />
<path d="M313.7600 155.3900
L313.7600 168.3900
" />
<path d="M314.2600 154.8900
L320.0088 154.8900
" />
<path d="M314.2600 168.8900
L320.0100 168.8900
" />
<path d="M320.5088 155.3900
L320.5100 168.3900
" />
<path d="M290.4475 154.8900 A0.5000 0.5000 0.0 0 0 289.9475 155.3900" />
<path d="M289.9475 168.3900 A0.5000 0.5000 0.0 0 0 290.4475 168.8900" />
<path d="M296.6975 155.3900 A0.5000 0.5000 0.0 0 0 296.1975 154.8900" />
<path d="M296.1975 168.8900 A0.5000 0.5000 0.0 0 0 296.6975 168.3900" />
<path d="M314.2600 154.8900 A0.5001 0.5001 0.0 0 0 313.7600 155.3900" />
<path d="M313.7600 168.3900 A0.5000 0.5000 0.0 0 0 314.2600 168.8900" />
<path d="M320.5087 155.3900 A0.5000 0.5000 0.0 0 0 320.0088 154.8900" />
<path d="M320.0100 168.8900 A0.5001 0.5001 0.0 0 0 320.5100 168.3900" />
</g>
<g style="fill:none; 
stroke:#D8C852; stroke-width:0.1000; stroke-opacity:1; 
stroke-linecap:round; stroke-linejoin:round;">
<circle cx="52.6700" cy="38.1000" r="2.5000" /> 
<circle cx="204.6700" cy="38.1000" r="2.5000" /> 
<circle cx="202.4734" cy="182.3002" r="2.5000" /> 
</g>
<g style="fill:none; 
stroke:#D8C852; stroke-width:0.0500; stroke-opacity:1; 
stroke-linecap:round; stroke-linejoin:round;">
<path d="M297.0913 98.2400
L297.0913 111.2400
" />
<path d="M297.5913 97.7400
L303.3413 97.7400
" />
<path d="M297.5913 111.7400
L303.3413 111.7400
" />
<path d="M303.8413 98.2400
L303.8413 111.2400
" />
<path d="M320.9038 98.2400
L320.9038 111.2400
" />
<path d="M321.4038 97.7400
L327.1525 97.7400
" />
<path d="M321.4038 111.7400
L327.1538 111.7400
" />
<path d="M327.6525 98.2400
L327.6538 111.2400
" />
<path d="M297.5913 97.7400 A0.5000 0.5000 0.0 0 0 297.0913 98.2400" />
<path d="M297.0913 111.2400 A0.5000 0.5000 0.0 0 0 297.5913 111.7400" />
<path d="M303.8413 98.2400 A0.5000 0.5000 0.0 0 0 303.3413 97.7400" />
<path d="M303.3413 111.7400 A0.5000 0.5000 0.0 0 0 303.8413 111.2400" />
<path d="M321.4037 97.7400 A0.5001 0.5001 0.0 0 0 320.9038 98.2400" />
<path d="M320.9038 111.2400 A0.5000 0.5000 0.0 0 0 321.4038 111.7400" />
<path d="M327.6525 98.2400 A0.5000 0.5000 0.0 0 0 327.1525 97.7400" />
<path d="M327.1538 111.7400 A0.5001 0.5001 0.0 0 0 327.6537 111.2400" />
<path d="M51.8225 155.3900
L51.8225 168.3900
" />
<path d="M52.3225 154.8900
L58.0725 154.8900
" />
<path d="M52.3225 168.8900
L58.0725 168.8900
" />
<path d="M58.5725 155.3900
L58.5725 168.3900
" />
<path d="M75.6350 155.3900
L75.6350 168.3900
" />
<path d="M76.1350 154.8900
L81.8838 154.8900
" />
<path d="M76.1350 168.8900
L81.8850 168.8900
" />
<path d="M82.3838 155.3900
L82.3850 168.3900
" />
<path d="M52.3225 154.8900 A0.5000 0.5000 0.0 0 0 51.8225 155.3900" />
<path d="M51.8225 168.3900 A0.5000 0.5000 0.0 0 0 52.3225 168.8900" />
<path d="M58.5725 155.3900 A0.5000 0.5000 0.0 0 0 58.0725 154.8900" />
<path d="M58.0725 168.8900 A0.5000 0.5000 0.0 0 0 58.5725 168.3900" />
<path d="M76.1350 154.8900 A0.5001 0.5001 0.0 0 0 75.6350 155.3900" />
<path d="M75.6350 168.3900 A0.5000 0.5000 0.0 0 0 76.1350 168.8900" />
<path d="M82.3837 155.3900 A0.5000 0.5000 0.0 0 0 81.8838 154.8900" />
<path d="M81.8850 168.8900 A0.5001 0.5001 0.0 0 0 82.3850 168.3900" />
<path d="M294.7100 136.3400
L294.7100 149.3400
" />
<path d="M295.2100 135.8400
L300.9600 135.8400
" />
<path d="M295.2100 149.8400
L300.9600 149.8400
" />
<path d="M301.4600 136.3400
L301.4600 149.3400
" />
<path d="M318.5225 136.3400
L318.5225 149.3400
" />
<path d="M319.0225 135.8400
L324.7713 135.8400
" />
<path d="M319.0225 149.8400
L324.7725 149.8400
" />
<path d="M325.2713 136.3400
L325.2725 149.3400
" />
<path d="M295.2100 135.8400 A0.5000 0.5000 0.0 0 0 294.7100 136.3400" />
<path d="M294.7100 149.3400 A0.5000 0.5000 0.0 0 0 295.2100 149.8400" />
<path d="M301.4600 136.3400 A0.5000 0.5000 0.0 0 0 300.9600 135.8400" />
<path d="M300.9600 149.8400 A0.5000 0.5000 0.0 0 0 301.4600 149.3400" />
<path d="M319.0225 135.8400 A0.5001 0.5001 0.0 0 0 318.5225 136.3400" />
<path d="M318.5225 149.3400 A0.5000 0.5000 0.0 0 0 319.0225 149.8400" />
<path d="M325.2712 136.3400 A0.5000 0.5000 0.0 0 0 324.7713 135.8400" />
<path d="M324.7725 149.8400 A0.5001 0.5001 0.0 0 0 325.2725 149.3400" />
</g>
<g style="fill:none; 
stroke:#D8C852; stroke-width:0.1000; stroke-opacity:1; 
stroke-linecap:round; stroke-linejoin:round;">
<circle cx="143.6735" cy="182.3002" r="2.5000" /> 
</g>
<g style="fill:none; 
stroke:#D8C852; stroke-width:0.0500; stroke-opacity:1; 
stroke-linecap:round; stroke-linejoin:round;">
<path d="M100.5850 86.4275
L100.5850 73.4275
" />
<path d="M101.0850 72.9275
L114.0850 72.9275
" />
<path d="M114.0850 86.9275
L101.0850 86.9275
" />
<path d="M114.5850 73.4275
L114.5850 86.4275
" />
<path d="M101.0850 72.9275 A0.5000 0.5000 0.0 0 0 100.5850 73.4275" />
<path d="M100.5850 86.4275 A0.5000 0.5000 0.0 0 0 101.0850 86.9275" />
<path d="M114.5850 73.4275 A0.5000 0.5000 0.0 0 0 114.0850 72.9275" />
<path d="M114.0822 86.9264 A0.5000 0.5000 0.0 0 0 114.5822 86.4264" />
<path d="M314.8975 186.4400
L314.8975 173.4400
" />
<path d="M315.3975 172.9400
L328.3975 172.9400
" />
<path d="M328.3975 186.9400
L315.3975 186.9400
" />
<path d="M328.8975 173.4400
L328.8975 186.4400
" />
<path d="M315.3975 172.9400 A0.5000 0.5000 0.0 0 0 314.8975 173.4400" />
<path d="M314.8975 186.4400 A0.5000 0.5000 0.0 0 0 315.3975 186.9400" />
<path d="M328.8975 173.4400 A0.5000 0.5000 0.0 0 0 328.3975 172.9400" />
<path d="M328.3947 186.9389 A0.5000 0.5000 0.0 0 0 328.8947 186.4389" />
<path d="M219.6475 110.2400
L219.6475 97.2400
" />
<path d="M220.1475 96.7400
L233.1475 96.7400
" />
<path d="M233.1475 110.7400
L220.1475 110.7400
" />
<path d="M233.6475 97.2400
L233.6475 110.2400
" />
<path d="M220.1475 96.7400 A0.5000 0.5000 0.0 0 0 219.6475 97.2400" />
<path d="M219.6475 110.2400 A0.5000 0.5000 0.0 0 0 220.1475 110.7400" />
<path d="M233.6475 97.2400 A0.5000 0.5000 0.0 0 0 233.1475 96.7400" />
<path d="M233.1447 110.7389 A0.5000 0.5000 0.0 0 0 233.6447 110.2389" />
<path d="M181.5475 110.2400
L181.5475 97.2400
" />
<path d="M182.0475 96.7400
L195.0475 96.7400
" />
<path d="M195.0475 110.7400
L182.0475 110.7400
" />
<path d="M195.5475 97.2400
L195.5475 110.2400
" />
<path d="M182.0475 96.7400 A0.5000 0.5000 0.0 0 0 181.5475 97.2400" />
<path d="M181.5475 110.2400 A0.5000 0.5000 0.0 0 0 182.0475 110.7400" />
<path d="M195.5475 97.2400 A0.5000 0.5000 0.0 0 0 195.0475 96.7400" />
<path d="M195.0447 110.7389 A0.5000 0.5000 0.0 0 0 195.5447 110.2389" />
<path d="M52.9600 129.2900
L52.9600 116.2900
" />
<path d="M53.4600 115.7900
L66.4600 115.7900
" />
<path d="M66.4600 129.7900
L53.4600 129.7900
" />
<path d="M66.9600 116.2900
L66.9600 129.2900
" />
<path d="M53.4600 115.7900 A0.5000 0.5000 0.0 0 0 52.9600 116.2900" />
<path d="M52.9600 129.2900 A0.5000 0.5000 0.0 0 0 53.4600 129.7900" />
<path d="M66.9600 116.2900 A0.5000 0.5000 0.0 0 0 66.4600 115.7900" />
<path d="M66.4572 129.7889 A0.5000 0.5000 0.0 0 0 66.9572 129.2889" />
<path d="M48.1975 110.2400
L48.1975 97.2400
" />
<path d="M48.6975 96.7400
L61.6975 96.7400
" />
<path d="M61.6975 110.7400
L48.6975 110.7400
" />
<path d="M62.1975 97.2400
L62.1975 110.2400
" />
<path d="M48.6975 96.7400 A0.5000 0.5000 0.0 0 0 48.1975 97.2400" />
<path d="M48.1975 110.2400 A0.5000 0.5000 0.0 0 0 48.6975 110.7400" />
<path d="M62.1975 97.2400 A0.5000 0.5000 0.0 0 0 61.6975 96.7400" />
<path d="M61.6947 110.7389 A0.5000 0.5000 0.0 0 0 62.1947 110.2389" />
<path d="M200.5975 86.4275
L200.5975 73.4275
" />
<path d="M201.0975 72.9275
L214.0975 72.9275
" />
<path d="M214.0975 86.9275
L201.0975 86.9275
" />
<path d="M214.5975 73.4275
L214.5975 86.4275
" />
<path d="M201.0975 72.9275 A0.5000 0.5000 0.0 0 0 200.5975 73.4275" />
<path d="M200.5975 86.4275 A0.5000 0.5000 0.0 0 0 201.0975 86.9275" />
<path d="M214.5975 73.4275 A0.5000 0.5000 0.0 0 0 214.0975 72.9275" />
<path d="M214.0947 86.9264 A0.5000 0.5000 0.0 0 0 214.5947 86.4264" />
<path d="M257.7475 110.2400
L257.7475 97.2400
" />
<path d="M258.2475 96.7400
L271.2475 96.7400
" />
<path d="M271.2475 110.7400
L258.2475 110.7400
" />
<path d="M271.7475 97.2400
L271.7475 110.2400
" />
<path d="M258.2475 96.7400 A0.5000 0.5000 0.0 0 0 257.7475 97.2400" />
<path d="M257.7475 110.2400 A0.5000 0.5000 0.0 0 0 258.2475 110.7400" />
<path d="M271.7475 97.2400 A0.5000 0.5000 0.0 0 0 271.2475 96.7400" />
<path d="M271.2447 110.7389 A0.5000 0.5000 0.0 0 0 271.7447 110.2389" />
<path d="M162.4975 110.2400
L162.4975 97.2400
" />
<path d="M162.9975 96.7400
L175.9975 96.7400
" />
<path d="M175.9975 110.7400
L162.9975 110.7400
" />
<path d="M176.4975 97.2400
L176.4975 110.2400
" />
<path d="M162.9975 96.7400 A0.5000 0.5000 0.0 0 0 162.4975 97.2400" />
<path d="M162.4975 110.2400 A0.5000 0.5000 0.0 0 0 162.9975 110.7400" />
<path d="M176.4975 97.2400 A0.5000 0.5000 0.0 0 0 175.9975 96.7400" />
<path d="M175.9947 110.7389 A0.5000 0.5000 0.0 0 0 176.4947 110.2389" />
<path d="M352.9975 148.3400
L352.9975 135.3400
" />
<path d="M353.4975 134.8400
L366.4975 134.8400
" />
<path d="M366.4975 148.8400
L353.4975 148.8400
" />
<path d="M366.9975 135.3400
L366.9975 148.3400
" />
<path d="M353.4975 134.8400 A0.5000 0.5000 0.0 0 0 352.9975 135.3400" />
<path d="M352.9975 148.3400 A0.5000 0.5000 0.0 0 0 353.4975 148.8400" />
<path d="M366.9975 135.3400 A0.5000 0.5000 0.0 0 0 366.4975 134.8400" />
<path d="M366.4947 148.8389 A0.5000 0.5000 0.0 0 0 366.9947 148.3389" />
<path d="M352.9975 86.4275
L352.9975 73.4275
" />
<path d="M353.4975 72.9275
L366.4975 72.9275
" />
<path d="M366.4975 86.9275
L353.4975 86.9275
" />
<path d="M366.9975 73.4275
L366.9975 86.4275
" />
<path d="M353.4975 72.9275 A0.5000 0.5000 0.0 0 0 352.9975 73.4275" />
<path d="M352.9975 86.4275 A0.5000 0.5000 0.0 0 0 353.4975 86.9275" />
<path d="M366.9975 73.4275 A0.5000 0.5000 0.0 0 0 366.4975 72.9275" />
<path d="M366.4947 86.9264 A0.5000 0.5000 0.0 0 0 366.9947 86.4264" />
<path d="M74.3912 186.4400
L74.3912 173.4400
" />
<path d="M74.8912 172.9400
L87.8912 172.9400
" />
<path d="M87.8912 186.9400
L74.8912 186.9400
" />
<path d="M88.3912 173.4400
L88.3912 186.4400
" />
<path d="M74.8912 172.9400 A0.5000 0.5000 0.0 0 0 74.3912 173.4400" />
<path d="M74.3912 186.4400 A0.5000 0.5000 0.0 0 0 74.8912 186.9400" />
<path d="M88.3912 173.4400 A0.5000 0.5000 0.0 0 0 87.8912 172.9400" />
<path d="M87.8885 186.9389 A0.5000 0.5000 0.0 0 0 88.3885 186.4389" />
<path d="M114.8725 129.2900
L114.8725 116.2900
" />
<path d="M115.3725 115.7900
L128.3725 115.7900
" />
<path d="M128.3725 129.7900
L115.3725 129.7900
" />
<path d="M128.8725 116.2900
L128.8725 129.2900
" />
<path d="M115.3725 115.7900 A0.5000 0.5000 0.0 0 0 114.8725 116.2900" />
<path d="M114.8725 129.2900 A0.5000 0.5000 0.0 0 0 115.3725 129.7900" />
<path d="M128.8725 116.2900 A0.5000 0.5000 0.0 0 0 128.3725 115.7900" />
<path d="M128.3697 129.7889 A0.5000 0.5000 0.0 0 0 128.8697 129.2889" />
<path d="M157.7350 148.3400
L157.7350 135.3400
" />
<path d="M158.2350 134.8400
L171.2350 134.8400
" />
<path d="M171.2350 148.8400
L158.2350 148.8400
" />
<path d="M171.7350 135.3400
L171.7350 148.3400
" />
<path d="M158.2350 134.8400 A0.5000 0.5000 0.0 0 0 157.7350 135.3400" />
<path d="M157.7350 148.3400 A0.5000 0.5000 0.0 0 0 158.2350 148.8400" />
<path d="M171.7350 135.3400 A0.5000 0.5000 0.0 0 0 171.2350 134.8400" />
<path d="M171.2322 148.8389 A0.5000 0.5000 0.0 0 0 171.7322 148.3389" />
<path d="M52.9600 86.4275
L52.9600 73.4275
" />
<path d="M53.4600 72.9275
L66.4600 72.9275
" />
<path d="M66.4600 86.9275
L53.4600 86.9275
" />
<path d="M66.9600 73.4275
L66.9600 86.4275
" />
<path d="M53.4600 72.9275 A0.5000 0.5000 0.0 0 0 52.9600 73.4275" />
<path d="M52.9600 86.4275 A0.5000 0.5000 0.0 0 0 53.4600 86.9275" />
<path d="M66.9600 73.4275 A0.5000 0.5000 0.0 0 0 66.4600 72.9275" />
<path d="M66.4572 86.9264 A0.5000 0.5000 0.0 0 0 66.9572 86.4264" />
<path d="M138.6850 86.4275
L138.6850 73.4275
" />
<path d="M139.1850 72.9275
L152.1850 72.9275
" />
<path d="M152.1850 86.9275
L139.1850 86.9275
" />
<path d="M152.6850 73.4275
L152.6850 86.4275
" />
<path d="M139.1850 72.9275 A0.5000 0.5000 0.0 0 0 138.6850 73.4275" />
<path d="M138.6850 86.4275 A0.5000 0.5000 0.0 0 0 139.1850 86.9275" />
<path d="M152.6850 73.4275 A0.5000 0.5000 0.0 0 0 152.1850 72.9275" />
<path d="M152.1822 86.9264 A0.5000 0.5000 0.0 0 0 152.6822 86.4264" />
<path d="M191.0725 129.2900
L191.0725 116.2900
" />
<path d="M191.5725 115.7900
L204.5725 115.7900
" />
<path d="M204.5725 129.7900
L191.5725 129.7900
" />
<path d="M205.0725 116.2900
L205.0725 129.2900
" />
<path d="M191.5725 115.7900 A0.5000 0.5000 0.0 0 0 191.0725 116.2900" />
<path d="M191.0725 129.2900 A0.5000 0.5000 0.0 0 0 191.5725 129.7900" />
<path d="M205.0725 116.2900 A0.5000 0.5000 0.0 0 0 204.5725 115.7900" />
<path d="M204.5697 129.7889 A0.5000 0.5000 0.0 0 0 205.0697 129.2889" />
<path d="M238.6975 110.2400
L238.6975 97.2400
" />
<path d="M239.1975 96.7400
L252.1975 96.7400
" />
<path d="M252.1975 110.7400
L239.1975 110.7400
" />
<path d="M252.6975 97.2400
L252.6975 110.2400
" />
<path d="M239.1975 96.7400 A0.5000 0.5000 0.0 0 0 238.6975 97.2400" />
<path d="M238.6975 110.2400 A0.5000 0.5000 0.0 0 0 239.1975 110.7400" />
<path d="M252.6975 97.2400 A0.5000 0.5000 0.0 0 0 252.1975 96.7400" />
<path d="M252.1947 110.7389 A0.5000 0.5000 0.0 0 0 252.6947 110.2389" />
<path d="M81.5350 86.4275
L81.5350 73.4275
" />
<path d="M82.0350 72.9275
L95.0350 72.9275
" />
<path d="M95.0350 86.9275
L82.0350 86.9275
" />
<path d="M95.5350 73.4275
L95.5350 86.4275
" />
<path d="M82.0350 72.9275 A0.5000 0.5000 0.0 0 0 81.5350 73.4275" />
<path d="M81.5350 86.4275 A0.5000 0.5000 0.0 0 0 82.0350 86.9275" />
<path d="M95.5350 73.4275 A0.5000 0.5000 0.0 0 0 95.0350 72.9275" />
<path d="M95.0322 86.9264 A0.5000 0.5000 0.0 0 0 95.5322 86.4264" />
<path d="M267.2725 129.2900
L267.2725 116.2900
" />
<path d="M267.7725 115.7900
L280.7725 115.7900
" />
<path d="M280.7725 129.7900
L267.7725 129.7900
" />
<path d="M281.2725 116.2900
L281.2725 129.2900
" />
<path d="M267.7725 115.7900 A0.5000 0.5000 0.0 0 0 267.2725 116.2900" />
<path d="M267.2725 129.2900 A0.5000 0.5000 0.0 0 0 267.7725 129.7900" />
<path d="M281.2725 116.2900 A0.5000 0.5000 0.0 0 0 280.7725 115.7900" />
<path d="M280.7697 129.7889 A0.5000 0.5000 0.0 0 0 281.2697 129.2889" />
<path d="M86.2975 110.2400
L86.2975 97.2400
" />
<path d="M86.7975 96.7400
L99.7975 96.7400
" />
<path d="M99.7975 110.7400
L86.7975 110.7400
" />
<path d="M100.2975 97.2400
L100.2975 110.2400
" />
<path d="M86.7975 96.7400 A0.5000 0.5000 0.0 0 0 86.2975 97.2400" />
<path d="M86.2975 110.2400 A0.5000 0.5000 0.0 0 0 86.7975 110.7400" />
<path d="M100.2975 97.2400 A0.5000 0.5000 0.0 0 0 99.7975 96.7400" />
<path d="M99.7947 110.7389 A0.5000 0.5000 0.0 0 0 100.2947 110.2389" />
<path d="M333.9475 167.3900
L333.9475 154.3900
" />
<path d="M334.4475 153.8900
L347.4475 153.8900
" />
<path d="M347.4475 167.8900
L334.4475 167.8900
" />
<path d="M347.9475 154.3900
L347.9475 167.3900
" />
<path d="M334.4475 153.8900 A0.5000 0.5000 0.0 0 0 333.9475 154.3900" />
<path d="M333.9475 167.3900 A0.5000 0.5000 0.0 0 0 334.4475 167.8900" />
<path d="M347.9475 154.3900 A0.5000 0.5000 0.0 0 0 347.4475 153.8900" />
<path d="M347.4447 167.8889 A0.5000 0.5000 0.0 0 0 347.9447 167.3889" />
<path d="M248.2225 129.2900
L248.2225 116.2900
" />
<path d="M248.7225 115.7900
L261.7225 115.7900
" />
<path d="M261.7225 129.7900
L248.7225 129.7900
" />
<path d="M262.2225 116.2900
L262.2225 129.2900
" />
<path d="M248.7225 115.7900 A0.5000 0.5000 0.0 0 0 248.2225 116.2900" />
<path d="M248.2225 129.2900 A0.5000 0.5000 0.0 0 0 248.7225 129.7900" />
<path d="M262.2225 116.2900 A0.5000 0.5000 0.0 0 0 261.7225 115.7900" />
<path d="M261.7197 129.7889 A0.5000 0.5000 0.0 0 0 262.2197 129.2889" />
<path d="M233.9350 148.3400
L233.9350 135.3400
" />
<path d="M234.4350 134.8400
L247.4350 134.8400
" />
<path d="M247.4350 148.8400
L234.4350 148.8400
" />
<path d="M247.9350 135.3400
L247.9350 148.3400
" />
<path d="M234.4350 134.8400 A0.5000 0.5000 0.0 0 0 233.9350 135.3400" />
<path d="M233.9350 148.3400 A0.5000 0.5000 0.0 0 0 234.4350 148.8400" />
<path d="M247.9350 135.3400 A0.5000 0.5000 0.0 0 0 247.4350 134.8400" />
<path d="M247.4322 148.8389 A0.5000 0.5000 0.0 0 0 247.9322 148.3389" />
<path d="M67.2475 110.2400
L67.2475 97.2400
" />
<path d="M67.7475 96.7400
L80.7475 96.7400
" />
<path d="M80.7475 110.7400
L67.7475 110.7400
" />
<path d="M81.2475 97.2400
L81.2475 110.2400
" />
<path d="M67.7475 96.7400 A0.5000 0.5000 0.0 0 0 67.2475 97.2400" />
<path d="M67.2475 110.2400 A0.5000 0.5000 0.0 0 0 67.7475 110.7400" />
<path d="M81.2475 97.2400 A0.5000 0.5000 0.0 0 0 80.7475 96.7400" />
<path d="M80.7447 110.7389 A0.5000 0.5000 0.0 0 0 81.2447 110.2389" />
<path d="M241.0787 186.4400
L241.0787 173.4400
" />
<path d="M241.5787 172.9400
L254.5787 172.9400
" />
<path d="M254.5787 186.9400
L241.5787 186.9400
" />
<path d="M255.0787 173.4400
L255.0787 186.4400
" />
<path d="M241.5787 172.9400 A0.5000 0.5000 0.0 0 0 241.0787 173.4400" />
<path d="M241.0787 186.4400 A0.5000 0.5000 0.0 0 0 241.5787 186.9400" />
<path d="M255.0787 173.4400 A0.5000 0.5000 0.0 0 0 254.5787 172.9400" />
<path d="M254.5760 186.9389 A0.5000 0.5000 0.0 0 0 255.0760 186.4389" />
<path d="M333.9475 148.3400
L333.9475 135.3400
" />
<path d="M334.4475 134.8400
L347.4475 134.8400
" />
<path d="M347.4475 148.8400
L334.4475 148.8400
" />
<path d="M347.9475 135.3400
L347.9475 148.3400
" />
<path d="M334.4475 134.8400 A0.5000 0.5000 0.0 0 0 333.9475 135.3400" />
<path d="M333.9475 148.3400 A0.5000 0.5000 0.0 0 0 334.4475 148.8400" />
<path d="M347.9475 135.3400 A0.5000 0.5000 0.0 0 0 347.4475 134.8400" />
<path d="M347.4447 148.8389 A0.5000 0.5000 0.0 0 0 347.9447 148.3389" />
<path d="M119.6350 86.4275
L119.6350 73.4275
" />
<path d="M120.1350 72.9275
L133.1350 72.9275
" />
<path d="M133.1350 86.9275
L120.1350 86.9275
" />
<path d="M133.6350 73.4275
L133.6350 86.4275
" />
<path d="M120.1350 72.9275 A0.5000 0.5000 0.0 0 0 119.6350 73.4275" />
<path d="M119.6350 86.4275 A0.5000 0.5000 0.0 0 0 120.1350 86.9275" />
<path d="M133.6350 73.4275 A0.5000 0.5000 0.0 0 0 133.1350 72.9275" />
<path d="M133.1322 86.9264 A0.5000 0.5000 0.0 0 0 133.6322 86.4264" />
<path d="M181.5475 86.4275
L181.5475 73.4275
" />
<path d="M182.0475 72.9275
L195.0475 72.9275
" />
<path d="M195.0475 86.9275
L182.0475 86.9275
" />
<path d="M195.5475 73.4275
L195.5475 86.4275
" />
<path d="M182.0475 72.9275 A0.5000 0.5000 0.0 0 0 181.5475 73.4275" />
<path d="M181.5475 86.4275 A0.5000 0.5000 0.0 0 0 182.0475 86.9275" />
<path d="M195.5475 73.4275 A0.5000 0.5000 0.0 0 0 195.0475 72.9275" />
<path d="M195.0447 86.9264 A0.5000 0.5000 0.0 0 0 195.5447 86.4264" />
<path d="M76.7725 129.2900
L76.7725 116.2900
" />
<path d="M77.2725 115.7900
L90.2725 115.7900
" />
<path d="M90.2725 129.7900
L77.2725 129.7900
" />
<path d="M90.7725 116.2900
L90.7725 129.2900
" />
<path d="M77.2725 115.7900 A0.5000 0.5000 0.0 0 0 76.7725 116.2900" />
<path d="M76.7725 129.2900 A0.5000 0.5000 0.0 0 0 77.2725 129.7900" />
<path d="M90.7725 116.2900 A0.5000 0.5000 0.0 0 0 90.2725 115.7900" />
<path d="M90.2697 129.7889 A0.5000 0.5000 0.0 0 0 90.7697 129.2889" />
<path d="M98.2037 186.4400
L98.2037 173.4400
" />
<path d="M98.7037 172.9400
L111.7037 172.9400
" />
<path d="M111.7037 186.9400
L98.7037 186.9400
" />
<path d="M112.2037 173.4400
L112.2037 186.4400
" />
<path d="M98.7037 172.9400 A0.5000 0.5000 0.0 0 0 98.2037 173.4400" />
<path d="M98.2037 186.4400 A0.5000 0.5000 0.0 0 0 98.7037 186.9400" />
<path d="M112.2037 173.4400 A0.5000 0.5000 0.0 0 0 111.7037 172.9400" />
<path d="M111.7010 186.9389 A0.5000 0.5000 0.0 0 0 112.2010 186.4389" />
<path d="M50.5787 186.4400
L50.5787 173.4400
" />
<path d="M51.0787 172.9400
L64.0787 172.9400
" />
<path d="M64.0787 186.9400
L51.0787 186.9400
" />
<path d="M64.5787 173.4400
L64.5787 186.4400
" />
<path d="M51.0787 172.9400 A0.5000 0.5000 0.0 0 0 50.5787 173.4400" />
<path d="M50.5787 186.4400 A0.5000 0.5000 0.0 0 0 51.0787 186.9400" />
<path d="M64.5787 173.4400 A0.5000 0.5000 0.0 0 0 64.0787 172.9400" />
<path d="M64.0760 186.9389 A0.5000 0.5000 0.0 0 0 64.5760 186.4389" />
<path d="M352.9975 110.2400
L352.9975 97.2400
" />
<path d="M353.4975 96.7400
L366.4975 96.7400
" />
<path d="M366.4975 110.7400
L353.4975 110.7400
" />
<path d="M366.9975 97.2400
L366.9975 110.2400
" />
<path d="M353.4975 96.7400 A0.5000 0.5000 0.0 0 0 352.9975 97.2400" />
<path d="M352.9975 110.2400 A0.5000 0.5000 0.0 0 0 353.4975 110.7400" />
<path d="M366.9975 97.2400 A0.5000 0.5000 0.0 0 0 366.4975 96.7400" />
<path d="M366.4947 110.7389 A0.5000 0.5000 0.0 0 0 366.9947 110.2389" />
<path d="M262.5100 86.4275
L262.5100 73.4275
" />
<path d="M263.0100 72.9275
L276.0100 72.9275
" />
<path d="M276.0100 86.9275
L263.0100 86.9275
" />
<path d="M276.5100 73.4275
L276.5100 86.4275
" />
<path d="M263.0100 72.9275 A0.5000 0.5000 0.0 0 0 262.5100 73.4275" />
<path d="M262.5100 86.4275 A0.5000 0.5000 0.0 0 0 263.0100 86.9275" />
<path d="M276.5100 73.4275 A0.5000 0.5000 0.0 0 0 276.0100 72.9275" />
<path d="M276.0072 86.9264 A0.5000 0.5000 0.0 0 0 276.5072 86.4264" />
<path d="M214.8850 148.3400
L214.8850 135.3400
" />
<path d="M215.3850 134.8400
L228.3850 134.8400
" />
<path d="M228.3850 148.8400
L215.3850 148.8400
" />
<path d="M228.8850 135.3400
L228.8850 148.3400
" />
<path d="M215.3850 134.8400 A0.5000 0.5000 0.0 0 0 214.8850 135.3400" />
<path d="M214.8850 148.3400 A0.5000 0.5000 0.0 0 0 215.3850 148.8400" />
<path d="M228.8850 135.3400 A0.5000 0.5000 0.0 0 0 228.3850 134.8400" />
<path d="M228.3822 148.8389 A0.5000 0.5000 0.0 0 0 228.8822 148.3389" />
<path d="M81.5350 148.3400
L81.5350 135.3400
" />
<path d="M82.0350 134.8400
L95.0350 134.8400
" />
<path d="M95.0350 148.8400
L82.0350 148.8400
" />
<path d="M95.5350 135.3400
L95.5350 148.3400
" />
<path d="M82.0350 134.8400 A0.5000 0.5000 0.0 0 0 81.5350 135.3400" />
<path d="M81.5350 148.3400 A0.5000 0.5000 0.0 0 0 82.0350 148.8400" />
<path d="M95.5350 135.3400 A0.5000 0.5000 0.0 0 0 95.0350 134.8400" />
<path d="M95.0322 148.8389 A0.5000 0.5000 0.0 0 0 95.5322 148.3389" />
<path d="M124.3975 110.2400
L124.3975 97.2400
" />
<path d="M124.8975 96.7400
L137.8975 96.7400
" />
<path d="M137.8975 110.7400
L124.8975 110.7400
" />
<path d="M138.3975 97.2400
L138.3975 110.2400
" />
<path d="M124.8975 96.7400 A0.5000 0.5000 0.0 0 0 124.3975 97.2400" />
<path d="M124.3975 110.2400 A0.5000 0.5000 0.0 0 0 124.8975 110.7400" />
<path d="M138.3975 97.2400 A0.5000 0.5000 0.0 0 0 137.8975 96.7400" />
<path d="M137.8947 110.7389 A0.5000 0.5000 0.0 0 0 138.3947 110.2389" />
<path d="M162.4975 86.4275
L162.4975 73.4275
" />
<path d="M162.9975 72.9275
L175.9975 72.9275
" />
<path d="M175.9975 86.9275
L162.9975 86.9275
" />
<path d="M176.4975 73.4275
L176.4975 86.4275
" />
<path d="M162.9975 72.9275 A0.5000 0.5000 0.0 0 0 162.4975 73.4275" />
<path d="M162.4975 86.4275 A0.5000 0.5000 0.0 0 0 162.9975 86.9275" />
<path d="M176.4975 73.4275 A0.5000 0.5000 0.0 0 0 175.9975 72.9275" />
<path d="M175.9947 86.9264 A0.5000 0.5000 0.0 0 0 176.4947 86.4264" />
<path d="M186.3100 167.3900
L186.3100 154.3900
" />
<path d="M186.8100 153.8900
L199.8100 153.8900
" />
<path d="M199.8100 167.8900
L186.8100 167.8900
" />
<path d="M200.3100 154.3900
L200.3100 167.3900
" />
<path d="M186.8100 153.8900 A0.5000 0.5000 0.0 0 0 186.3100 154.3900" />
<path d="M186.3100 167.3900 A0.5000 0.5000 0.0 0 0 186.8100 167.8900" />
<path d="M200.3100 154.3900 A0.5000 0.5000 0.0 0 0 199.8100 153.8900" />
<path d="M199.8072 167.8889 A0.5000 0.5000 0.0 0 0 200.3072 167.3889" />
<path d="M152.9725 129.2900
L152.9725 116.2900
" />
<path d="M153.4725 115.7900
L166.4725 115.7900
" />
<path d="M166.4725 129.7900
L153.4725 129.7900
" />
<path d="M166.9725 116.2900
L166.9725 129.2900
" />
<path d="M153.4725 115.7900 A0.5000 0.5000 0.0 0 0 152.9725 116.2900" />
<path d="M152.9725 129.2900 A0.5000 0.5000 0.0 0 0 153.4725 129.7900" />
<path d="M166.9725 116.2900 A0.5000 0.5000 0.0 0 0 166.4725 115.7900" />
<path d="M166.4697 129.7889 A0.5000 0.5000 0.0 0 0 166.9697 129.2889" />
<path d="M55.3412 148.3400
L55.3412 135.3400
" />
<path d="M55.8412 134.8400
L68.8413 134.8400
" />
<path d="M68.8413 148.8400
L55.8412 148.8400
" />
<path d="M69.3413 135.3400
L69.3413 148.3400
" />
<path d="M55.8412 134.8400 A0.5000 0.5000 0.0 0 0 55.3412 135.3400" />
<path d="M55.3412 148.3400 A0.5000 0.5000 0.0 0 0 55.8412 148.8400" />
<path d="M69.3412 135.3400 A0.5000 0.5000 0.0 0 0 68.8412 134.8400" />
<path d="M68.8385 148.8389 A0.5000 0.5000 0.0 0 0 69.3385 148.3389" />
<path d="M272.0350 148.3400
L272.0350 135.3400
" />
<path d="M272.5350 134.8400
L285.5350 134.8400
" />
<path d="M285.5350 148.8400
L272.5350 148.8400
" />
<path d="M286.0350 135.3400
L286.0350 148.3400
" />
<path d="M272.5350 134.8400 A0.5000 0.5000 0.0 0 0 272.0350 135.3400" />
<path d="M272.0350 148.3400 A0.5000 0.5000 0.0 0 0 272.5350 148.8400" />
<path d="M286.0350 135.3400 A0.5000 0.5000 0.0 0 0 285.5350 134.8400" />
<path d="M285.5322 148.8389 A0.5000 0.5000 0.0 0 0 286.0322 148.3389" />
<path d="M333.9475 110.2400
L333.9475 97.2400
" />
<path d="M334.4475 96.7400
L347.4475 96.7400
" />
<path d="M347.4475 110.7400
L334.4475 110.7400
" />
<path d="M347.9475 97.2400
L347.9475 110.2400
" />
<path d="M334.4475 96.7400 A0.5000 0.5000 0.0 0 0 333.9475 97.2400" />
<path d="M333.9475 110.2400 A0.5000 0.5000 0.0 0 0 334.4475 110.7400" />
<path d="M347.9475 97.2400 A0.5000 0.5000 0.0 0 0 347.4475 96.7400" />
<path d="M347.4447 110.7389 A0.5000 0.5000 0.0 0 0 347.9447 110.2389" />
<path d="M352.9975 129.2900
L352.9975 116.2900
" />
<path d="M353.4975 115.7900
L366.4975 115.7900
" />
<path d="M366.4975 129.7900
L353.4975 129.7900
" />
<path d="M366.9975 116.2900
L366.9975 129.2900
" />
<path d="M353.4975 115.7900 A0.5000 0.5000 0.0 0 0 352.9975 116.2900" />
<path d="M352.9975 129.2900 A0.5000 0.5000 0.0 0 0 353.4975 129.7900" />
<path d="M366.9975 116.2900 A0.5000 0.5000 0.0 0 0 366.4975 115.7900" />
<path d="M366.4947 129.7889 A0.5000 0.5000 0.0 0 0 366.9947 129.2889" />
<path d="M310.1350 129.2900
L310.1350 116.2900
" />
<path d="M310.6350 115.7900
L323.6350 115.7900
" />
<path d="M323.6350 129.7900
L310.6350 129.7900
" />
<path d="M324.1350 116.2900
L324.1350 129.2900
" />
<path d="M310.6350 115.7900 A0.5000 0.5000 0.0 0 0 310.1350 116.2900" />
<path d="M310.1350 129.2900 A0.5000 0.5000 0.0 0 0 310.6350 129.7900" />
<path d="M324.1350 116.2900 A0.5000 0.5000 0.0 0 0 323.6350 115.7900" />
<path d="M323.6322 129.7889 A0.5000 0.5000 0.0 0 0 324.1322 129.2889" />
<path d="M167.2600 167.3900
L167.2600 154.3900
" />
<path d="M167.7600 153.8900
L180.7600 153.8900
" />
<path d="M180.7600 167.8900
L167.7600 167.8900
" />
<path d="M181.2600 154.3900
L181.2600 167.3900
" />
<path d="M167.7600 153.8900 A0.5000 0.5000 0.0 0 0 167.2600 154.3900" />
<path d="M167.2600 167.3900 A0.5000 0.5000 0.0 0 0 167.7600 167.8900" />
<path d="M181.2600 154.3900 A0.5000 0.5000 0.0 0 0 180.7600 153.8900" />
<path d="M180.7572 167.8889 A0.5000 0.5000 0.0 0 0 181.2572 167.3889" />
<path d="M169.6412 186.4400
L169.6412 173.4400
" />
<path d="M170.1412 172.9400
L183.1412 172.9400
" />
<path d="M183.1412 186.9400
L170.1412 186.9400
" />
<path d="M183.6412 173.4400
L183.6412 186.4400
" />
<path d="M170.1412 172.9400 A0.5000 0.5000 0.0 0 0 169.6412 173.4400" />
<path d="M169.6412 186.4400 A0.5000 0.5000 0.0 0 0 170.1412 186.9400" />
<path d="M183.6412 173.4400 A0.5000 0.5000 0.0 0 0 183.1412 172.9400" />
<path d="M183.1385 186.9389 A0.5000 0.5000 0.0 0 0 183.6385 186.4389" />
<path d="M60.1037 167.3900
L60.1037 154.3900
" />
<path d="M60.6037 153.8900
L73.6037 153.8900
" />
<path d="M73.6037 167.8900
L60.6037 167.8900
" />
<path d="M74.1037 154.3900
L74.1037 167.3900
" />
<path d="M60.6037 153.8900 A0.5000 0.5000 0.0 0 0 60.1037 154.3900" />
<path d="M60.1037 167.3900 A0.5000 0.5000 0.0 0 0 60.6037 167.8900" />
<path d="M74.1037 154.3900 A0.5000 0.5000 0.0 0 0 73.6037 153.8900" />
<path d="M73.6010 167.8889 A0.5000 0.5000 0.0 0 0 74.1010 167.3889" />
<path d="M298.2287 167.3900
L298.2287 154.3900
" />
<path d="M298.7287 153.8900
L311.7287 153.8900
" />
<path d="M311.7287 167.8900
L298.7287 167.8900
" />
<path d="M312.2287 154.3900
L312.2287 167.3900
" />
<path d="M298.7287 153.8900 A0.5000 0.5000 0.0 0 0 298.2287 154.3900" />
<path d="M298.2287 167.3900 A0.5000 0.5000 0.0 0 0 298.7287 167.8900" />
<path d="M312.2287 154.3900 A0.5000 0.5000 0.0 0 0 311.7287 153.8900" />
<path d="M311.7260 167.8889 A0.5000 0.5000 0.0 0 0 312.2260 167.3889" />
<path d="M288.7038 186.4400
L288.7038 173.4400
" />
<path d="M289.2038 172.9400
L302.2038 172.9400
" />
<path d="M302.2038 186.9400
L289.2038 186.9400
" />
<path d="M302.7038 173.4400
L302.7038 186.4400
" />
<path d="M289.2038 172.9400 A0.5000 0.5000 0.0 0 0 288.7038 173.4400" />
<path d="M288.7038 186.4400 A0.5000 0.5000 0.0 0 0 289.2038 186.9400" />
<path d="M302.7037 173.4400 A0.5000 0.5000 0.0 0 0 302.2037 172.9400" />
<path d="M302.2010 186.9389 A0.5000 0.5000 0.0 0 0 302.7010 186.4389" />
<path d="M243.4600 167.3900
L243.4600 154.3900
" />
<path d="M243.9600 153.8900
L256.9600 153.8900
" />
<path d="M256.9600 167.8900
L243.9600 167.8900
" />
<path d="M257.4600 154.3900
L257.4600 167.3900
" />
<path d="M243.9600 153.8900 A0.5000 0.5000 0.0 0 0 243.4600 154.3900" />
<path d="M243.4600 167.3900 A0.5000 0.5000 0.0 0 0 243.9600 167.8900" />
<path d="M257.4600 154.3900 A0.5000 0.5000 0.0 0 0 256.9600 153.8900" />
<path d="M256.9572 167.8889 A0.5000 0.5000 0.0 0 0 257.4572 167.3889" />
<path d="M119.6350 148.3400
L119.6350 135.3400
" />
<path d="M120.1350 134.8400
L133.1350 134.8400
" />
<path d="M133.1350 148.8400
L120.1350 148.8400
" />
<path d="M133.6350 135.3400
L133.6350 148.3400
" />
<path d="M120.1350 134.8400 A0.5000 0.5000 0.0 0 0 119.6350 135.3400" />
<path d="M119.6350 148.3400 A0.5000 0.5000 0.0 0 0 120.1350 148.8400" />
<path d="M133.6350 135.3400 A0.5000 0.5000 0.0 0 0 133.1350 134.8400" />
<path d="M133.1322 148.8389 A0.5000 0.5000 0.0 0 0 133.6322 148.3389" />
<path d="M148.2100 167.3900
L148.2100 154.3900
" />
<path d="M148.7100 153.8900
L161.7100 153.8900
" />
<path d="M161.7100 167.8900
L148.7100 167.8900
" />
<path d="M162.2100 154.3900
L162.2100 167.3900
" />
<path d="M148.7100 153.8900 A0.5000 0.5000 0.0 0 0 148.2100 154.3900" />
<path d="M148.2100 167.3900 A0.5000 0.5000 0.0 0 0 148.7100 167.8900" />
<path d="M162.2100 154.3900 A0.5000 0.5000 0.0 0 0 161.7100 153.8900" />
<path d="M161.7072 167.8889 A0.5000 0.5000 0.0 0 0 162.2072 167.3889" />
<path d="M281.5600 86.4275
L281.5600 73.4275
" />
<path d="M282.0600 72.9275
L295.0600 72.9275
" />
<path d="M295.0600 86.9275
L282.0600 86.9275
" />
<path d="M295.5600 73.4275
L295.5600 86.4275
" />
<path d="M282.0600 72.9275 A0.5000 0.5000 0.0 0 0 281.5600 73.4275" />
<path d="M281.5600 86.4275 A0.5000 0.5000 0.0 0 0 282.0600 86.9275" />
<path d="M295.5600 73.4275 A0.5000 0.5000 0.0 0 0 295.0600 72.9275" />
<path d="M295.0572 86.9264 A0.5000 0.5000 0.0 0 0 295.5572 86.4264" />
<path d="M143.4475 110.2400
L143.4475 97.2400
" />
<path d="M143.9475 96.7400
L156.9475 96.7400
" />
<path d="M156.9475 110.7400
L143.9475 110.7400
" />
<path d="M157.4475 97.2400
L157.4475 110.2400
" />
<path d="M143.9475 96.7400 A0.5000 0.5000 0.0 0 0 143.4475 97.2400" />
<path d="M143.4475 110.2400 A0.5000 0.5000 0.0 0 0 143.9475 110.7400" />
<path d="M157.4475 97.2400 A0.5000 0.5000 0.0 0 0 156.9475 96.7400" />
<path d="M156.9447 110.7389 A0.5000 0.5000 0.0 0 0 157.4447 110.2389" />
<path d="M138.6850 148.3400
L138.6850 135.3400
" />
<path d="M139.1850 134.8400
L152.1850 134.8400
" />
<path d="M152.1850 148.8400
L139.1850 148.8400
" />
<path d="M152.6850 135.3400
L152.6850 148.3400
" />
<path d="M139.1850 134.8400 A0.5000 0.5000 0.0 0 0 138.6850 135.3400" />
<path d="M138.6850 148.3400 A0.5000 0.5000 0.0 0 0 139.1850 148.8400" />
<path d="M152.6850 135.3400 A0.5000 0.5000 0.0 0 0 152.1850 134.8400" />
<path d="M152.1822 148.8389 A0.5000 0.5000 0.0 0 0 152.6822 148.3389" />
<path d="M133.9225 129.2900
L133.9225 116.2900
" />
<path d="M134.4225 115.7900
L147.4225 115.7900
" />
<path d="M147.4225 129.7900
L134.4225 129.7900
" />
<path d="M147.9225 116.2900
L147.9225 129.2900
" />
<path d="M134.4225 115.7900 A0.5000 0.5000 0.0 0 0 133.9225 116.2900" />
<path d="M133.9225 129.2900 A0.5000 0.5000 0.0 0 0 134.4225 129.7900" />
<path d="M147.9225 116.2900 A0.5000 0.5000 0.0 0 0 147.4225 115.7900" />
<path d="M147.4197 129.7889 A0.5000 0.5000 0.0 0 0 147.9197 129.2889" />
<path d="M129.1600 167.3900
L129.1600 154.3900
" />
<path d="M129.6600 153.8900
L142.6600 153.8900
" />
<path d="M142.6600 167.8900
L129.6600 167.8900
" />
<path d="M143.1600 154.3900
L143.1600 167.3900
" />
<path d="M129.6600 153.8900 A0.5000 0.5000 0.0 0 0 129.1600 154.3900" />
<path d="M129.1600 167.3900 A0.5000 0.5000 0.0 0 0 129.6600 167.8900" />
<path d="M143.1600 154.3900 A0.5000 0.5000 0.0 0 0 142.6600 153.8900" />
<path d="M142.6572 167.8889 A0.5000 0.5000 0.0 0 0 143.1572 167.3889" />
<path d="M176.7850 148.3400
L176.7850 135.3400
" />
<path d="M177.2850 134.8400
L190.2850 134.8400
" />
<path d="M190.2850 148.8400
L177.2850 148.8400
" />
<path d="M190.7850 135.3400
L190.7850 148.3400
" />
<path d="M177.2850 134.8400 A0.5000 0.5000 0.0 0 0 176.7850 135.3400" />
<path d="M176.7850 148.3400 A0.5000 0.5000 0.0 0 0 177.2850 148.8400" />
<path d="M190.7850 135.3400 A0.5000 0.5000 0.0 0 0 190.2850 134.8400" />
<path d="M190.2822 148.8389 A0.5000 0.5000 0.0 0 0 190.7822 148.3389" />
<path d="M229.1725 129.2900
L229.1725 116.2900
" />
<path d="M229.6725 115.7900
L242.6725 115.7900
" />
<path d="M242.6725 129.7900
L229.6725 129.7900
" />
<path d="M243.1725 116.2900
L243.1725 129.2900
" />
<path d="M229.6725 115.7900 A0.5000 0.5000 0.0 0 0 229.1725 116.2900" />
<path d="M229.1725 129.2900 A0.5000 0.5000 0.0 0 0 229.6725 129.7900" />
<path d="M243.1725 116.2900 A0.5000 0.5000 0.0 0 0 242.6725 115.7900" />
<path d="M242.6697 129.7889 A0.5000 0.5000 0.0 0 0 243.1697 129.2889" />
<path d="M352.9975 186.4400
L352.9975 173.4400
" />
<path d="M353.4975 172.9400
L366.4975 172.9400
" />
<path d="M366.4975 186.9400
L353.4975 186.9400
" />
<path d="M366.9975 173.4400
L366.9975 186.4400
" />
<path d="M353.4975 172.9400 A0.5000 0.5000 0.0 0 0 352.9975 173.4400" />
<path d="M352.9975 186.4400 A0.5000 0.5000 0.0 0 0 353.4975 186.9400" />
<path d="M366.9975 173.4400 A0.5000 0.5000 0.0 0 0 366.4975 172.9400" />
<path d="M366.4947 186.9389 A0.5000 0.5000 0.0 0 0 366.9947 186.4389" />
<path d="M91.0600 167.3900
L91.0600 154.3900
" />
<path d="M91.5600 153.8900
L104.5600 153.8900
" />
<path d="M104.5600 167.8900
L91.5600 167.8900
" />
<path d="M105.0600 154.3900
L105.0600 167.3900
" />
<path d="M91.5600 153.8900 A0.5000 0.5000 0.0 0 0 91.0600 154.3900" />
<path d="M91.0600 167.3900 A0.5000 0.5000 0.0 0 0 91.5600 167.8900" />
<path d="M105.0600 154.3900 A0.5000 0.5000 0.0 0 0 104.5600 153.8900" />
<path d="M104.5572 167.8889 A0.5000 0.5000 0.0 0 0 105.0572 167.3889" />
<path d="M105.3475 110.2400
L105.3475 97.2400
" />
<path d="M105.8475 96.7400
L118.8475 96.7400
" />
<path d="M118.8475 110.7400
L105.8475 110.7400
" />
<path d="M119.3475 97.2400
L119.3475 110.2400
" />
<path d="M105.8475 96.7400 A0.5000 0.5000 0.0 0 0 105.3475 97.2400" />
<path d="M105.3475 110.2400 A0.5000 0.5000 0.0 0 0 105.8475 110.7400" />
<path d="M119.3475 97.2400 A0.5000 0.5000 0.0 0 0 118.8475 96.7400" />
<path d="M118.8447 110.7389 A0.5000 0.5000 0.0 0 0 119.3447 110.2389" />
<path d="M224.4100 167.3900
L224.4100 154.3900
" />
<path d="M224.9100 153.8900
L237.9100 153.8900
" />
<path d="M237.9100 167.8900
L224.9100 167.8900
" />
<path d="M238.4100 154.3900
L238.4100 167.3900
" />
<path d="M224.9100 153.8900 A0.5000 0.5000 0.0 0 0 224.4100 154.3900" />
<path d="M224.4100 167.3900 A0.5000 0.5000 0.0 0 0 224.9100 167.8900" />
<path d="M238.4100 154.3900 A0.5000 0.5000 0.0 0 0 237.9100 153.8900" />
<path d="M237.9072 167.8889 A0.5000 0.5000 0.0 0 0 238.4072 167.3889" />
<path d="M95.8225 129.2900
L95.8225 116.2900
" />
<path d="M96.3225 115.7900
L109.3225 115.7900
" />
<path d="M109.3225 129.7900
L96.3225 129.7900
" />
<path d="M109.8225 116.2900
L109.8225 129.2900
" />
<path d="M96.3225 115.7900 A0.5000 0.5000 0.0 0 0 95.8225 116.2900" />
<path d="M95.8225 129.2900 A0.5000 0.5000 0.0 0 0 96.3225 129.7900" />
<path d="M109.8225 116.2900 A0.5000 0.5000 0.0 0 0 109.3225 115.7900" />
<path d="M109.3197 129.7889 A0.5000 0.5000 0.0 0 0 109.8197 129.2889" />
<path d="M219.6475 86.4275
L219.6475 73.4275
" />
<path d="M220.1475 72.9275
L233.1475 72.9275
" />
<path d="M233.1475 86.9275
L220.1475 86.9275
" />
<path d="M233.6475 73.4275
L233.6475 86.4275
" />
<path d="M220.1475 72.9275 A0.5000 0.5000 0.0 0 0 219.6475 73.4275" />
<path d="M219.6475 86.4275 A0.5000 0.5000 0.0 0 0 220.1475 86.9275" />
<path d="M233.6475 73.4275 A0.5000 0.5000 0.0 0 0 233.1475 72.9275" />
<path d="M233.1447 86.9264 A0.5000 0.5000 0.0 0 0 233.6447 86.4264" />
<path d="M243.4600 86.4275
L243.4600 73.4275
" />
<path d="M243.9600 72.9275
L256.9600 72.9275
" />
<path d="M256.9600 86.9275
L243.9600 86.9275
" />
<path d="M257.4600 73.4275
L257.4600 86.4275
" />
<path d="M243.9600 72.9275 A0.5000 0.5000 0.0 0 0 243.4600 73.4275" />
<path d="M243.4600 86.4275 A0.5000 0.5000 0.0 0 0 243.9600 86.9275" />
<path d="M257.4600 73.4275 A0.5000 0.5000 0.0 0 0 256.9600 72.9275" />
<path d="M256.9572 86.9264 A0.5000 0.5000 0.0 0 0 257.4572 86.4264" />
<path d="M264.8913 186.4400
L264.8913 173.4400
" />
<path d="M265.3913 172.9400
L278.3913 172.9400
" />
<path d="M278.3913 186.9400
L265.3913 186.9400
" />
<path d="M278.8913 173.4400
L278.8913 186.4400
" />
<path d="M265.3913 172.9400 A0.5000 0.5000 0.0 0 0 264.8913 173.4400" />
<path d="M264.8913 186.4400 A0.5000 0.5000 0.0 0 0 265.3913 186.9400" />
<path d="M278.8912 173.4400 A0.5000 0.5000 0.0 0 0 278.3912 172.9400" />
<path d="M278.3885 186.9389 A0.5000 0.5000 0.0 0 0 278.8885 186.4389" />
<path d="M300.6100 86.4275
L300.6100 73.4275
" />
<path d="M301.1100 72.9275
L314.1100 72.9275
" />
<path d="M314.1100 86.9275
L301.1100 86.9275
" />
<path d="M314.6100 73.4275
L314.6100 86.4275
" />
<path d="M301.1100 72.9275 A0.5000 0.5000 0.0 0 0 300.6100 73.4275" />
<path d="M300.6100 86.4275 A0.5000 0.5000 0.0 0 0 301.1100 86.9275" />
<path d="M314.6100 73.4275 A0.5000 0.5000 0.0 0 0 314.1100 72.9275" />
<path d="M314.1072 86.9264 A0.5000 0.5000 0.0 0 0 314.6072 86.4264" />
<path d="M100.5850 148.3400
L100.5850 135.3400
" />
<path d="M101.0850 134.8400
L114.0850 134.8400
" />
<path d="M114.0850 148.8400
L101.0850 148.8400
" />
<path d="M114.5850 135.3400
L114.5850 148.3400
" />
<path d="M101.0850 134.8400 A0.5000 0.5000 0.0 0 0 100.5850 135.3400" />
<path d="M100.5850 148.3400 A0.5000 0.5000 0.0 0 0 101.0850 148.8400" />
<path d="M114.5850 135.3400 A0.5000 0.5000 0.0 0 0 114.0850 134.8400" />
<path d="M114.0822 148.8389 A0.5000 0.5000 0.0 0 0 114.5822 148.3389" />
<path d="M205.3600 167.3900
L205.3600 154.3900
" />
<path d="M205.8600 153.8900
L218.8600 153.8900
" />
<path d="M218.8600 167.8900
L205.8600 167.8900
" />
<path d="M219.3600 154.3900
L219.3600 167.3900
" />
<path d="M205.8600 153.8900 A0.5000 0.5000 0.0 0 0 205.3600 154.3900" />
<path d="M205.3600 167.3900 A0.5000 0.5000 0.0 0 0 205.8600 167.8900" />
<path d="M219.3600 154.3900 A0.5000 0.5000 0.0 0 0 218.8600 153.8900" />
<path d="M218.8572 167.8889 A0.5000 0.5000 0.0 0 0 219.3572 167.3889" />
<path d="M200.5975 110.2400
L200.5975 97.2400
" />
<path d="M201.0975 96.7400
L214.0975 96.7400
" />
<path d="M214.0975 110.7400
L201.0975 110.7400
" />
<path d="M214.5975 97.2400
L214.5975 110.2400
" />
<path d="M201.0975 96.7400 A0.5000 0.5000 0.0 0 0 200.5975 97.2400" />
<path d="M200.5975 110.2400 A0.5000 0.5000 0.0 0 0 201.0975 110.7400" />
<path d="M214.5975 97.2400 A0.5000 0.5000 0.0 0 0 214.0975 96.7400" />
<path d="M214.0947 110.7389 A0.5000 0.5000 0.0 0 0 214.5947 110.2389" />
<path d="M262.5100 167.3900
L262.5100 154.3900
" />
<path d="M263.0100 153.8900
L276.0100 153.8900
" />
<path d="M276.0100 167.8900
L263.0100 167.8900
" />
<path d="M276.5100 154.3900
L276.5100 167.3900
" />
<path d="M263.0100 153.8900 A0.5000 0.5000 0.0 0 0 262.5100 154.3900" />
<path d="M262.5100 167.3900 A0.5000 0.5000 0.0 0 0 263.0100 167.8900" />
<path d="M276.5100 154.3900 A0.5000 0.5000 0.0 0 0 276.0100 153.8900" />
<path d="M276.0072 167.8889 A0.5000 0.5000 0.0 0 0 276.5072 167.3889" />
<path d="M195.8350 148.3400
L195.8350 135.3400
" />
<path d="M196.3350 134.8400
L209.3350 134.8400
" />
<path d="M209.3350 148.8400
L196.3350 148.8400
" />
<path d="M209.8350 135.3400
L209.8350 148.3400
" />
<path d="M196.3350 134.8400 A0.5000 0.5000 0.0 0 0 195.8350 135.3400" />
<path d="M195.8350 148.3400 A0.5000 0.5000 0.0 0 0 196.3350 148.8400" />
<path d="M209.8350 135.3400 A0.5000 0.5000 0.0 0 0 209.3350 134.8400" />
<path d="M209.3322 148.8389 A0.5000 0.5000 0.0 0 0 209.8322 148.3389" />
<path d="M110.1100 167.3900
L110.1100 154.3900
" />
<path d="M110.6100 153.8900
L123.6100 153.8900
" />
<path d="M123.6100 167.8900
L110.6100 167.8900
" />
<path d="M124.1100 154.3900
L124.1100 167.3900
" />
<path d="M110.6100 153.8900 A0.5000 0.5000 0.0 0 0 110.1100 154.3900" />
<path d="M110.1100 167.3900 A0.5000 0.5000 0.0 0 0 110.6100 167.8900" />
<path d="M124.1100 154.3900 A0.5000 0.5000 0.0 0 0 123.6100 153.8900" />
<path d="M123.6072 167.8889 A0.5000 0.5000 0.0 0 0 124.1072 167.3889" />
<path d="M333.9475 186.4400
L333.9475 173.4400
" />
<path d="M334.4475 172.9400
L347.4475 172.9400
" />
<path d="M347.4475 186.9400
L334.4475 186.9400
" />
<path d="M347.9475 173.4400
L347.9475 186.4400
" />
<path d="M334.4475 172.9400 A0.5000 0.5000 0.0 0 0 333.9475 173.4400" />
<path d="M333.9475 186.4400 A0.5000 0.5000 0.0 0 0 334.4475 186.9400" />
<path d="M347.9475 173.4400 A0.5000 0.5000 0.0 0 0 347.4475 172.9400" />
<path d="M347.4447 186.9389 A0.5000 0.5000 0.0 0 0 347.9447 186.4389" />
<path d="M210.1225 129.2900
L210.1225 116.2900
" />
<path d="M210.6225 115.7900
L223.6225 115.7900
" />
<path d="M223.6225 129.7900
L210.6225 129.7900
" />
<path d="M224.1225 116.2900
L224.1225 129.2900
" />
<path d="M210.6225 115.7900 A0.5000 0.5000 0.0 0 0 210.1225 116.2900" />
<path d="M210.1225 129.2900 A0.5000 0.5000 0.0 0 0 210.6225 129.7900" />
<path d="M224.1225 116.2900 A0.5000 0.5000 0.0 0 0 223.6225 115.7900" />
<path d="M223.6197 129.7889 A0.5000 0.5000 0.0 0 0 224.1197 129.2889" />
<path d="M252.9850 148.3400
L252.9850 135.3400
" />
<path d="M253.4850 134.8400
L266.4850 134.8400
" />
<path d="M266.4850 148.8400
L253.4850 148.8400
" />
<path d="M266.9850 135.3400
L266.9850 148.3400
" />
<path d="M253.4850 134.8400 A0.5000 0.5000 0.0 0 0 252.9850 135.3400" />
<path d="M252.9850 148.3400 A0.5000 0.5000 0.0 0 0 253.4850 148.8400" />
<path d="M266.9850 135.3400 A0.5000 0.5000 0.0 0 0 266.4850 134.8400" />
<path d="M266.4822 148.8389 A0.5000 0.5000 0.0 0 0 266.9822 148.3389" />
<path d="M302.9912 148.3400
L302.9912 135.3400
" />
<path d="M303.4912 134.8400
L316.4912 134.8400
" />
<path d="M316.4912 148.8400
L303.4912 148.8400
" />
<path d="M316.9912 135.3400
L316.9912 148.3400
" />
<path d="M303.4912 134.8400 A0.5000 0.5000 0.0 0 0 302.9912 135.3400" />
<path d="M302.9912 148.3400 A0.5000 0.5000 0.0 0 0 303.4912 148.8400" />
<path d="M316.9912 135.3400 A0.5000 0.5000 0.0 0 0 316.4912 134.8400" />
<path d="M316.4885 148.8389 A0.5000 0.5000 0.0 0 0 316.9885 148.3389" />
<path d="M172.0225 129.2900
L172.0225 116.2900
" />
<path d="M172.5225 115.7900
L185.5225 115.7900
" />
<path d="M185.5225 129.7900
L172.5225 129.7900
" />
<path d="M186.0225 116.2900
L186.0225 129.2900
" />
<path d="M172.5225 115.7900 A0.5000 0.5000 0.0 0 0 172.0225 116.2900" />
<path d="M172.0225 129.2900 A0.5000 0.5000 0.0 0 0 172.5225 129.7900" />
<path d="M186.0225 116.2900 A0.5000 0.5000 0.0 0 0 185.5225 115.7900" />
<path d="M185.5197 129.7889 A0.5000 0.5000 0.0 0 0 186.0197 129.2889" />
<path d="M286.3225 129.2900
L286.3225 116.2900
" />
<path d="M286.8225 115.7900
L299.8225 115.7900
" />
<path d="M299.8225 129.7900
L286.8225 129.7900
" />
<path d="M300.3225 116.2900
L300.3225 129.2900
" />
<path d="M286.8225 115.7900 A0.5000 0.5000 0.0 0 0 286.3225 116.2900" />
<path d="M286.3225 129.2900 A0.5000 0.5000 0.0 0 0 286.8225 129.7900" />
<path d="M300.3225 116.2900 A0.5000 0.5000 0.0 0 0 299.8225 115.7900" />
<path d="M299.8197 129.7889 A0.5000 0.5000 0.0 0 0 300.3197 129.2889" />
<path d="M333.9475 86.4275
L333.9475 73.4275
" />
<path d="M334.4475 72.9275
L347.4475 72.9275
" />
<path d="M347.4475 86.9275
L334.4475 86.9275
" />
<path d="M347.9475 73.4275
L347.9475 86.4275
" />
<path d="M334.4475 72.9275 A0.5000 0.5000 0.0 0 0 333.9475 73.4275" />
<path d="M333.9475 86.4275 A0.5000 0.5000 0.0 0 0 334.4475 86.9275" />
<path d="M347.9475 73.4275 A0.5000 0.5000 0.0 0 0 347.4475 72.9275" />
<path d="M347.4447 86.9264 A0.5000 0.5000 0.0 0 0 347.9447 86.4264" />
<path d="M333.9475 129.2900
L333.9475 116.2900
" />
<path d="M334.4475 115.7900
L347.4475 115.7900
" />
<path d="M347.4475 129.7900
L334.4475 129.7900
" />
<path d="M347.9475 116.2900
L347.9475 129.2900
" />
<path d="M334.4475 115.7900 A0.5000 0.5000 0.0 0 0 333.9475 116.2900" />
<path d="M333.9475 129.2900 A0.5000 0.5000 0.0 0 0 334.4475 129.7900" />
<path d="M347.9475 116.2900 A0.5000 0.5000 0.0 0 0 347.4475 115.7900" />
<path d="M347.4447 129.7889 A0.5000 0.5000 0.0 0 0 347.9447 129.2889" />
<path d="M352.9975 167.3900
L352.9975 154.3900
" />
<path d="M353.4975 153.8900
L366.4975 153.8900
" />
<path d="M366.4975 167.8900
L353.4975 167.8900
" />
<path d="M366.9975 154.3900
L366.9975 167.3900
" />
<path d="M353.4975 153.8900 A0.5000 0.5000 0.0 0 0 352.9975 154.3900" />
<path d="M352.9975 167.3900 A0.5000 0.5000 0.0 0 0 353.4975 167.8900" />
<path d="M366.9975 154.3900 A0.5000 0.5000 0.0 0 0 366.4975 153.8900" />
<path d="M366.4947 167.8889 A0.5000 0.5000 0.0 0 0 366.9947 167.3889" />
<path d="M276.7975 110.2400
L276.7975 97.2400
" />
<path d="M277.2975 96.7400
L290.2975 96.7400
" />
<path d="M290.2975 110.7400
L277.2975 110.7400
" />
<path d="M290.7975 97.2400
L290.7975 110.2400
" />
<path d="M277.2975 96.7400 A0.5000 0.5000 0.0 0 0 276.7975 97.2400" />
<path d="M276.7975 110.2400 A0.5000 0.5000 0.0 0 0 277.2975 110.7400" />
<path d="M290.7975 97.2400 A0.5000 0.5000 0.0 0 0 290.2975 96.7400" />
<path d="M290.2947 110.7389 A0.5000 0.5000 0.0 0 0 290.7947 110.2389" />
<path d="M305.3725 110.2400
L305.3725 97.2400
" />
<path d="M305.8725 96.7400
L318.8725 96.7400
" />
<path d="M318.8725 110.7400
L305.8725 110.7400
" />
<path d="M319.3725 97.2400
L319.3725 110.2400
" />
<path d="M305.8725 96.7400 A0.5000 0.5000 0.0 0 0 305.3725 97.2400" />
<path d="M305.3725 110.2400 A0.5000 0.5000 0.0 0 0 305.8725 110.7400" />
<path d="M319.3725 97.2400 A0.5000 0.5000 0.0 0 0 318.8725 96.7400" />
<path d="M318.8697 110.7389 A0.5000 0.5000 0.0 0 0 319.3697 110.2389" />
<path style="fill:none; 
stroke:#FF26E2; stroke-width:0.0500; stroke-opacity:1; 
stroke-linecap:round; stroke-linejoin:round;fill:none"
d="M 270.4300,43.9300
272.3900,43.9300
272.3900,47.6900
270.4300,47.6900
Z" /> 
</g>
<g style="fill:none; 
stroke:#FF26E2; stroke-width:0.0500; stroke-opacity:1; 
stroke-linecap:round; stroke-linejoin:round;">
<path d="M261.1000 48.7025
L261.1000 52.3025
" />
<path d="M261.1000 48.7025
L265.8600 48.7025
" />
<path d="M265.8600 52.3025
L261.1000 52.3025
" />
<path d="M265.8600 52.3025
L265.8600 48.7025
" />
</g>
<g style="fill:none; 
stroke:#FF26E2; stroke-width:0.1000; stroke-opacity:1; 
stroke-linecap:round; stroke-linejoin:round;">
<path d="M281.4800 36.2600
L291.4800 36.2600
" />
<path d="M281.4800 44.2600
L281.4800 36.2600
" />
<path d="M291.4800 36.2600
L291.4800 44.2600
" />
<path d="M291.4800 44.2600
L281.4800 44.2600
" />
<path d="M351.4728 46.0975
L369.4728 46.0975
" />
<path d="M351.4728 64.9475
L351.4728 46.0975
" />
<path d="M369.4728 46.0975
L369.4728 64.9475
" />
<path d="M369.4728 64.9475
L351.4728 64.9475
" />
<path style="fill:none; 
stroke:#FF26E2; stroke-width:0.0500; stroke-opacity:1; 
stroke-linecap:round; stroke-linejoin:round;fill:none"
d="M 266.2200,48.5500
269.9800,48.5500
269.9800,50.5100
266.2200,50.5100
Z" /> 
<path style="fill:none; 
stroke:#FF26E2; stroke-width:0.0500; stroke-opacity:1; 
stroke-linecap:round; stroke-linejoin:round;fill:none"
d="M 299.3800,36.1900
325.7800,36.1900
325.7800,39.7300
299.3800,39.7300
Z" /> 
</g>
<g style="fill:none; 
stroke:#FF26E2; stroke-width:0.0500; stroke-opacity:1; 
stroke-linecap:round; stroke-linejoin:round;">
<circle cx="357.4700" cy="38.1000" r="2.4500" /> 
<path style="fill:none; 
stroke:#FF26E2; stroke-width:0.0500; stroke-opacity:1; 
stroke-linecap:round; stroke-linejoin:round;fill:none"
d="M 299.7400,48.7600
326.1400,48.7600
326.1400,52.3000
299.7400,52.3000
Z" /> 
<path style="fill:none; 
stroke:#FF26E2; stroke-width:0.0500; stroke-opacity:1; 
stroke-linecap:round; stroke-linejoin:round;fill:none"
d="M 251.3201,49.9264
252.6636,51.2699
255.2799,48.6536
253.9364,47.3101
Z" /> 
<path d="M237.2483 53.3250
L243.1173 47.4560
" />
<path d="M237.2483 56.9313
L238.2736 55.9060
" />
<path d="M237.4958 55.1282
L238.2736 54.3503
" />
<path d="M238.2736 54.3503
L237.2483 53.3250
" />
<path d="M238.2736 55.9060
L237.4958 55.1282
" />
<path d="M243.1173 47.4560
L244.1426 48.4814
" />
<path d="M243.1173 62.8003
L237.2483 56.9313
" />
<path d="M244.1426 48.4814
L244.9204 47.7035
" />
<path d="M244.1426 61.7750
L243.1173 62.8003
" />
<path d="M244.9204 47.7035
L245.6982 48.4814
" />
<path d="M244.9204 62.5528
L244.1426 61.7750
" />
<path d="M245.6982 48.4814
L246.7235 47.4560
" />
<path d="M245.6982 61.7750
L244.9204 62.5528
" />
<path d="M246.7235 47.4560
L252.5925 53.3250
" />
<path d="M246.7235 62.8003
L245.6982 61.7750
" />
<path d="M251.5672 54.3503
L252.3450 55.1282
" />
<path d="M251.5672 55.9060
L252.5925 56.9313
" />
<path d="M252.3450 55.1282
L251.5672 55.9060
" />
<path d="M252.5925 53.3250
L251.5672 54.3503
" />
<path d="M252.5925 56.9313
L246.7235 62.8003
" />
<circle cx="52.6700" cy="38.1000" r="2.4500" /> 
<circle cx="204.6700" cy="38.1000" r="2.4500" /> 
<circle cx="202.4734" cy="182.3002" r="2.4500" /> 
<circle cx="143.6735" cy="182.3002" r="2.4500" /> 
<path style="fill:none; 
stroke:#FF26E2; stroke-width:0.0500; stroke-opacity:1; 
stroke-linecap:round; stroke-linejoin:round;fill:none"
d="M 260.9900,41.0000
263.2500,41.0000
263.2500,45.9000
260.9900,45.9000
Z" /> 
<path style="fill:none; 
stroke:#FF26E2; stroke-width:0.0500; stroke-opacity:1; 
stroke-linecap:round; stroke-linejoin:round;fill:none"
d="M 264.6500,43.9600
268.4100,43.9600
268.4100,45.9200
264.6500,45.9200
Z" /> 
<path style="fill:none; 
stroke:#FF26E2; stroke-width:0.0500; stroke-opacity:1; 
stroke-linecap:round; stroke-linejoin:round;fill:none"
d="M 100.5850,72.9275
114.5850,72.9275
114.5850,86.9275
100.5850,86.9275
Z" /> 
<path style="fill:none; 
stroke:#FF26E2; stroke-width:0.0500; stroke-opacity:1; 
stroke-linecap:round; stroke-linejoin:round;fill:none"
d="M 314.8975,172.9400
328.8975,172.9400
328.8975,186.9400
314.8975,186.9400
Z" /> 
<path style="fill:none; 
stroke:#FF26E2; stroke-width:0.0500; stroke-opacity:1; 
stroke-linecap:round; stroke-linejoin:round;fill:none"
d="M 219.6475,96.7400
233.6475,96.7400
233.6475,110.7400
219.6475,110.7400
Z" /> 
<path style="fill:none; 
stroke:#FF26E2; stroke-width:0.0500; stroke-opacity:1; 
stroke-linecap:round; stroke-linejoin:round;fill:none"
d="M 181.5475,96.7400
195.5475,96.7400
195.5475,110.7400
181.5475,110.7400
Z" /> 
<path style="fill:none; 
stroke:#FF26E2; stroke-width:0.0500; stroke-opacity:1; 
stroke-linecap:round; stroke-linejoin:round;fill:none"
d="M 52.9600,115.7900
66.9600,115.7900
66.9600,129.7900
52.9600,129.7900
Z" /> 
<path style="fill:none; 
stroke:#FF26E2; stroke-width:0.0500; stroke-opacity:1; 
stroke-linecap:round; stroke-linejoin:round;fill:none"
d="M 48.1975,96.7400
62.1975,96.7400
62.1975,110.7400
48.1975,110.7400
Z" /> 
<path style="fill:none; 
stroke:#FF26E2; stroke-width:0.0500; stroke-opacity:1; 
stroke-linecap:round; stroke-linejoin:round;fill:none"
d="M 200.5975,72.9275
214.5975,72.9275
214.5975,86.9275
200.5975,86.9275
Z" /> 
<path style="fill:none; 
stroke:#FF26E2; stroke-width:0.0500; stroke-opacity:1; 
stroke-linecap:round; stroke-linejoin:round;fill:none"
d="M 257.7475,96.7400
271.7475,96.7400
271.7475,110.7400
257.7475,110.7400
Z" /> 
<path style="fill:none; 
stroke:#FF26E2; stroke-width:0.0500; stroke-opacity:1; 
stroke-linecap:round; stroke-linejoin:round;fill:none"
d="M 162.4975,96.7400
176.4975,96.7400
176.4975,110.7400
162.4975,110.7400
Z" /> 
<path style="fill:none; 
stroke:#FF26E2; stroke-width:0.0500; stroke-opacity:1; 
stroke-linecap:round; stroke-linejoin:round;fill:none"
d="M 352.9975,134.8400
366.9975,134.8400
366.9975,148.8400
352.9975,148.8400
Z" /> 
<path style="fill:none; 
stroke:#FF26E2; stroke-width:0.0500; stroke-opacity:1; 
stroke-linecap:round; stroke-linejoin:round;fill:none"
d="M 352.9975,72.9275
366.9975,72.9275
366.9975,86.9275
352.9975,86.9275
Z" /> 
<path style="fill:none; 
stroke:#FF26E2; stroke-width:0.0500; stroke-opacity:1; 
stroke-linecap:round; stroke-linejoin:round;fill:none"
d="M 74.3912,172.9400
88.3912,172.9400
88.3912,186.9400
74.3912,186.9400
Z" /> 
<path style="fill:none; 
stroke:#FF26E2; stroke-width:0.0500; stroke-opacity:1; 
stroke-linecap:round; stroke-linejoin:round;fill:none"
d="M 114.8725,115.7900
128.8725,115.7900
128.8725,129.7900
114.8725,129.7900
Z" /> 
<path style="fill:none; 
stroke:#FF26E2; stroke-width:0.0500; stroke-opacity:1; 
stroke-linecap:round; stroke-linejoin:round;fill:none"
d="M 157.7350,134.8400
171.7350,134.8400
171.7350,148.8400
157.7350,148.8400
Z" /> 
<path style="fill:none; 
stroke:#FF26E2; stroke-width:0.0500; stroke-opacity:1; 
stroke-linecap:round; stroke-linejoin:round;fill:none"
d="M 52.9600,72.9275
66.9600,72.9275
66.9600,86.9275
52.9600,86.9275
Z" /> 
<path style="fill:none; 
stroke:#FF26E2; stroke-width:0.0500; stroke-opacity:1; 
stroke-linecap:round; stroke-linejoin:round;fill:none"
d="M 138.6850,72.9275
152.6850,72.9275
152.6850,86.9275
138.6850,86.9275
Z" /> 
<path style="fill:none; 
stroke:#FF26E2; stroke-width:0.0500; stroke-opacity:1; 
stroke-linecap:round; stroke-linejoin:round;fill:none"
d="M 191.0725,115.7900
205.0725,115.7900
205.0725,129.7900
191.0725,129.7900
Z" /> 
<path style="fill:none; 
stroke:#FF26E2; stroke-width:0.0500; stroke-opacity:1; 
stroke-linecap:round; stroke-linejoin:round;fill:none"
d="M 238.6975,96.7400
252.6975,96.7400
252.6975,110.7400
238.6975,110.7400
Z" /> 
<path style="fill:none; 
stroke:#FF26E2; stroke-width:0.0500; stroke-opacity:1; 
stroke-linecap:round; stroke-linejoin:round;fill:none"
d="M 81.5350,72.9275
95.5350,72.9275
95.5350,86.9275
81.5350,86.9275
Z" /> 
<path style="fill:none; 
stroke:#FF26E2; stroke-width:0.0500; stroke-opacity:1; 
stroke-linecap:round; stroke-linejoin:round;fill:none"
d="M 267.2725,115.7900
281.2725,115.7900
281.2725,129.7900
267.2725,129.7900
Z" /> 
<path style="fill:none; 
stroke:#FF26E2; stroke-width:0.0500; stroke-opacity:1; 
stroke-linecap:round; stroke-linejoin:round;fill:none"
d="M 86.2975,96.7400
100.2975,96.7400
100.2975,110.7400
86.2975,110.7400
Z" /> 
<path style="fill:none; 
stroke:#FF26E2; stroke-width:0.0500; stroke-opacity:1; 
stroke-linecap:round; stroke-linejoin:round;fill:none"
d="M 333.9475,153.8900
347.9475,153.8900
347.9475,167.8900
333.9475,167.8900
Z" /> 
<path style="fill:none; 
stroke:#FF26E2; stroke-width:0.0500; stroke-opacity:1; 
stroke-linecap:round; stroke-linejoin:round;fill:none"
d="M 248.2225,115.7900
262.2225,115.7900
262.2225,129.7900
248.2225,129.7900
Z" /> 
<path style="fill:none; 
stroke:#FF26E2; stroke-width:0.0500; stroke-opacity:1; 
stroke-linecap:round; stroke-linejoin:round;fill:none"
d="M 233.9350,134.8400
247.9350,134.8400
247.9350,148.8400
233.9350,148.8400
Z" /> 
<path style="fill:none; 
stroke:#FF26E2; stroke-width:0.0500; stroke-opacity:1; 
stroke-linecap:round; stroke-linejoin:round;fill:none"
d="M 67.2475,96.7400
81.2475,96.7400
81.2475,110.7400
67.2475,110.7400
Z" /> 
<path style="fill:none; 
stroke:#FF26E2; stroke-width:0.0500; stroke-opacity:1; 
stroke-linecap:round; stroke-linejoin:round;fill:none"
d="M 241.0787,172.9400
255.0787,172.9400
255.0787,186.9400
241.0787,186.9400
Z" /> 
<path style="fill:none; 
stroke:#FF26E2; stroke-width:0.0500; stroke-opacity:1; 
stroke-linecap:round; stroke-linejoin:round;fill:none"
d="M 333.9475,134.8400
347.9475,134.8400
347.9475,148.8400
333.9475,148.8400
Z" /> 
<path style="fill:none; 
stroke:#FF26E2; stroke-width:0.0500; stroke-opacity:1; 
stroke-linecap:round; stroke-linejoin:round;fill:none"
d="M 119.6350,72.9275
133.6350,72.9275
133.6350,86.9275
119.6350,86.9275
Z" /> 
<path style="fill:none; 
stroke:#FF26E2; stroke-width:0.0500; stroke-opacity:1; 
stroke-linecap:round; stroke-linejoin:round;fill:none"
d="M 181.5475,72.9275
195.5475,72.9275
195.5475,86.9275
181.5475,86.9275
Z" /> 
<path style="fill:none; 
stroke:#FF26E2; stroke-width:0.0500; stroke-opacity:1; 
stroke-linecap:round; stroke-linejoin:round;fill:none"
d="M 76.7725,115.7900
90.7725,115.7900
90.7725,129.7900
76.7725,129.7900
Z" /> 
<path style="fill:none; 
stroke:#FF26E2; stroke-width:0.0500; stroke-opacity:1; 
stroke-linecap:round; stroke-linejoin:round;fill:none"
d="M 98.2037,172.9400
112.2037,172.9400
112.2037,186.9400
98.2037,186.9400
Z" /> 
<path style="fill:none; 
stroke:#FF26E2; stroke-width:0.0500; stroke-opacity:1; 
stroke-linecap:round; stroke-linejoin:round;fill:none"
d="M 50.5787,172.9400
64.5787,172.9400
64.5787,186.9400
50.5787,186.9400
Z" /> 
<path style="fill:none; 
stroke:#FF26E2; stroke-width:0.0500; stroke-opacity:1; 
stroke-linecap:round; stroke-linejoin:round;fill:none"
d="M 352.9975,96.7400
366.9975,96.7400
366.9975,110.7400
352.9975,110.7400
Z" /> 
<path style="fill:none; 
stroke:#FF26E2; stroke-width:0.0500; stroke-opacity:1; 
stroke-linecap:round; stroke-linejoin:round;fill:none"
d="M 262.5100,72.9275
276.5100,72.9275
276.5100,86.9275
262.5100,86.9275
Z" /> 
<path style="fill:none; 
stroke:#FF26E2; stroke-width:0.0500; stroke-opacity:1; 
stroke-linecap:round; stroke-linejoin:round;fill:none"
d="M 214.8850,134.8400
228.8850,134.8400
228.8850,148.8400
214.8850,148.8400
Z" /> 
<path style="fill:none; 
stroke:#FF26E2; stroke-width:0.0500; stroke-opacity:1; 
stroke-linecap:round; stroke-linejoin:round;fill:none"
d="M 81.5350,134.8400
95.5350,134.8400
95.5350,148.8400
81.5350,148.8400
Z" /> 
<path style="fill:none; 
stroke:#FF26E2; stroke-width:0.0500; stroke-opacity:1; 
stroke-linecap:round; stroke-linejoin:round;fill:none"
d="M 124.3975,96.7400
138.3975,96.7400
138.3975,110.7400
124.3975,110.7400
Z" /> 
<path style="fill:none; 
stroke:#FF26E2; stroke-width:0.0500; stroke-opacity:1; 
stroke-linecap:round; stroke-linejoin:round;fill:none"
d="M 162.4975,72.9275
176.4975,72.9275
176.4975,86.9275
162.4975,86.9275
Z" /> 
<path style="fill:none; 
stroke:#FF26E2; stroke-width:0.0500; stroke-opacity:1; 
stroke-linecap:round; stroke-linejoin:round;fill:none"
d="M 186.3100,153.8900
200.3100,153.8900
200.3100,167.8900
186.3100,167.8900
Z" /> 
<path style="fill:none; 
stroke:#FF26E2; stroke-width:0.0500; stroke-opacity:1; 
stroke-linecap:round; stroke-linejoin:round;fill:none"
d="M 152.9725,115.7900
166.9725,115.7900
166.9725,129.7900
152.9725,129.7900
Z" /> 
<path style="fill:none; 
stroke:#FF26E2; stroke-width:0.0500; stroke-opacity:1; 
stroke-linecap:round; stroke-linejoin:round;fill:none"
d="M 55.3412,134.8400
69.3413,134.8400
69.3413,148.8400
55.3412,148.8400
Z" /> 
<path style="fill:none; 
stroke:#FF26E2; stroke-width:0.0500; stroke-opacity:1; 
stroke-linecap:round; stroke-linejoin:round;fill:none"
d="M 272.0350,134.8400
286.0350,134.8400
286.0350,148.8400
272.0350,148.8400
Z" /> 
<path style="fill:none; 
stroke:#FF26E2; stroke-width:0.0500; stroke-opacity:1; 
stroke-linecap:round; stroke-linejoin:round;fill:none"
d="M 333.9475,96.7400
347.9475,96.7400
347.9475,110.7400
333.9475,110.7400
Z" /> 
<path style="fill:none; 
stroke:#FF26E2; stroke-width:0.0500; stroke-opacity:1; 
stroke-linecap:round; stroke-linejoin:round;fill:none"
d="M 352.9975,115.7900
366.9975,115.7900
366.9975,129.7900
352.9975,129.7900
Z" /> 
<path style="fill:none; 
stroke:#FF26E2; stroke-width:0.0500; stroke-opacity:1; 
stroke-linecap:round; stroke-linejoin:round;fill:none"
d="M 310.1350,115.7900
324.1350,115.7900
324.1350,129.7900
310.1350,129.7900
Z" /> 
<path style="fill:none; 
stroke:#FF26E2; stroke-width:0.0500; stroke-opacity:1; 
stroke-linecap:round; stroke-linejoin:round;fill:none"
d="M 167.2600,153.8900
181.2600,153.8900
181.2600,167.8900
167.2600,167.8900
Z" /> 
<path style="fill:none; 
stroke:#FF26E2; stroke-width:0.0500; stroke-opacity:1; 
stroke-linecap:round; stroke-linejoin:round;fill:none"
d="M 169.6412,172.9400
183.6412,172.9400
183.6412,186.9400
169.6412,186.9400
Z" /> 
<path style="fill:none; 
stroke:#FF26E2; stroke-width:0.0500; stroke-opacity:1; 
stroke-linecap:round; stroke-linejoin:round;fill:none"
d="M 60.1037,153.8900
74.1037,153.8900
74.1037,167.8900
60.1037,167.8900
Z" /> 
<path style="fill:none; 
stroke:#FF26E2; stroke-width:0.0500; stroke-opacity:1; 
stroke-linecap:round; stroke-linejoin:round;fill:none"
d="M 298.2287,153.8900
312.2287,153.8900
312.2287,167.8900
298.2287,167.8900
Z" /> 
<path style="fill:none; 
stroke:#FF26E2; stroke-width:0.0500; stroke-opacity:1; 
stroke-linecap:round; stroke-linejoin:round;fill:none"
d="M 288.7038,172.9400
302.7038,172.9400
302.7038,186.9400
288.7038,186.9400
Z" /> 
<path style="fill:none; 
stroke:#FF26E2; stroke-width:0.0500; stroke-opacity:1; 
stroke-linecap:round; stroke-linejoin:round;fill:none"
d="M 243.4600,153.8900
257.4600,153.8900
257.4600,167.8900
243.4600,167.8900
Z" /> 
<path style="fill:none; 
stroke:#FF26E2; stroke-width:0.0500; stroke-opacity:1; 
stroke-linecap:round; stroke-linejoin:round;fill:none"
d="M 119.6350,134.8400
133.6350,134.8400
133.6350,148.8400
119.6350,148.8400
Z" /> 
<path style="fill:none; 
stroke:#FF26E2; stroke-width:0.0500; stroke-opacity:1; 
stroke-linecap:round; stroke-linejoin:round;fill:none"
d="M 148.2100,153.8900
162.2100,153.8900
162.2100,167.8900
148.2100,167.8900
Z" /> 
<path style="fill:none; 
stroke:#FF26E2; stroke-width:0.0500; stroke-opacity:1; 
stroke-linecap:round; stroke-linejoin:round;fill:none"
d="M 281.5600,72.9275
295.5600,72.9275
295.5600,86.9275
281.5600,86.9275
Z" /> 
<path style="fill:none; 
stroke:#FF26E2; stroke-width:0.0500; stroke-opacity:1; 
stroke-linecap:round; stroke-linejoin:round;fill:none"
d="M 143.4475,96.7400
157.4475,96.7400
157.4475,110.7400
143.4475,110.7400
Z" /> 
<path style="fill:none; 
stroke:#FF26E2; stroke-width:0.0500; stroke-opacity:1; 
stroke-linecap:round; stroke-linejoin:round;fill:none"
d="M 138.6850,134.8400
152.6850,134.8400
152.6850,148.8400
138.6850,148.8400
Z" /> 
<path style="fill:none; 
stroke:#FF26E2; stroke-width:0.0500; stroke-opacity:1; 
stroke-linecap:round; stroke-linejoin:round;fill:none"
d="M 133.9225,115.7900
147.9225,115.7900
147.9225,129.7900
133.9225,129.7900
Z" /> 
<path style="fill:none; 
stroke:#FF26E2; stroke-width:0.0500; stroke-opacity:1; 
stroke-linecap:round; stroke-linejoin:round;fill:none"
d="M 129.1600,153.8900
143.1600,153.8900
143.1600,167.8900
129.1600,167.8900
Z" /> 
<path style="fill:none; 
stroke:#FF26E2; stroke-width:0.0500; stroke-opacity:1; 
stroke-linecap:round; stroke-linejoin:round;fill:none"
d="M 176.7850,134.8400
190.7850,134.8400
190.7850,148.8400
176.7850,148.8400
Z" /> 
<path style="fill:none; 
stroke:#FF26E2; stroke-width:0.0500; stroke-opacity:1; 
stroke-linecap:round; stroke-linejoin:round;fill:none"
d="M 229.1725,115.7900
243.1725,115.7900
243.1725,129.7900
229.1725,129.7900
Z" /> 
<path style="fill:none; 
stroke:#FF26E2; stroke-width:0.0500; stroke-opacity:1; 
stroke-linecap:round; stroke-linejoin:round;fill:none"
d="M 352.9975,172.9400
366.9975,172.9400
366.9975,186.9400
352.9975,186.9400
Z" /> 
<path style="fill:none; 
stroke:#FF26E2; stroke-width:0.0500; stroke-opacity:1; 
stroke-linecap:round; stroke-linejoin:round;fill:none"
d="M 91.0600,153.8900
105.0600,153.8900
105.0600,167.8900
91.0600,167.8900
Z" /> 
<path style="fill:none; 
stroke:#FF26E2; stroke-width:0.0500; stroke-opacity:1; 
stroke-linecap:round; stroke-linejoin:round;fill:none"
d="M 105.3475,96.7400
119.3475,96.7400
119.3475,110.7400
105.3475,110.7400
Z" /> 
<path style="fill:none; 
stroke:#FF26E2; stroke-width:0.0500; stroke-opacity:1; 
stroke-linecap:round; stroke-linejoin:round;fill:none"
d="M 224.4100,153.8900
238.4100,153.8900
238.4100,167.8900
224.4100,167.8900
Z" /> 
<path style="fill:none; 
stroke:#FF26E2; stroke-width:0.0500; stroke-opacity:1; 
stroke-linecap:round; stroke-linejoin:round;fill:none"
d="M 95.8225,115.7900
109.8225,115.7900
109.8225,129.7900
95.8225,129.7900
Z" /> 
<path style="fill:none; 
stroke:#FF26E2; stroke-width:0.0500; stroke-opacity:1; 
stroke-linecap:round; stroke-linejoin:round;fill:none"
d="M 219.6475,72.9275
233.6475,72.9275
233.6475,86.9275
219.6475,86.9275
Z" /> 
<path style="fill:none; 
stroke:#FF26E2; stroke-width:0.0500; stroke-opacity:1; 
stroke-linecap:round; stroke-linejoin:round;fill:none"
d="M 243.4600,72.9275
257.4600,72.9275
257.4600,86.9275
243.4600,86.9275
Z" /> 
<path style="fill:none; 
stroke:#FF26E2; stroke-width:0.0500; stroke-opacity:1; 
stroke-linecap:round; stroke-linejoin:round;fill:none"
d="M 264.8913,172.9400
278.8913,172.9400
278.8913,186.9400
264.8913,186.9400
Z" /> 
<path style="fill:none; 
stroke:#FF26E2; stroke-width:0.0500; stroke-opacity:1; 
stroke-linecap:round; stroke-linejoin:round;fill:none"
d="M 300.6100,72.9275
314.6100,72.9275
314.6100,86.9275
300.6100,86.9275
Z" /> 
<path style="fill:none; 
stroke:#FF26E2; stroke-width:0.0500; stroke-opacity:1; 
stroke-linecap:round; stroke-linejoin:round;fill:none"
d="M 100.5850,134.8400
114.5850,134.8400
114.5850,148.8400
100.5850,148.8400
Z" /> 
<path style="fill:none; 
stroke:#FF26E2; stroke-width:0.0500; stroke-opacity:1; 
stroke-linecap:round; stroke-linejoin:round;fill:none"
d="M 205.3600,153.8900
219.3600,153.8900
219.3600,167.8900
205.3600,167.8900
Z" /> 
<path style="fill:none; 
stroke:#FF26E2; stroke-width:0.0500; stroke-opacity:1; 
stroke-linecap:round; stroke-linejoin:round;fill:none"
d="M 200.5975,96.7400
214.5975,96.7400
214.5975,110.7400
200.5975,110.7400
Z" /> 
<path style="fill:none; 
stroke:#FF26E2; stroke-width:0.0500; stroke-opacity:1; 
stroke-linecap:round; stroke-linejoin:round;fill:none"
d="M 262.5100,153.8900
276.5100,153.8900
276.5100,167.8900
262.5100,167.8900
Z" /> 
<path style="fill:none; 
stroke:#FF26E2; stroke-width:0.0500; stroke-opacity:1; 
stroke-linecap:round; stroke-linejoin:round;fill:none"
d="M 195.8350,134.8400
209.8350,134.8400
209.8350,148.8400
195.8350,148.8400
Z" /> 
<path style="fill:none; 
stroke:#FF26E2; stroke-width:0.0500; stroke-opacity:1; 
stroke-linecap:round; stroke-linejoin:round;fill:none"
d="M 110.1100,153.8900
124.1100,153.8900
124.1100,167.8900
110.1100,167.8900
Z" /> 
<path style="fill:none; 
stroke:#FF26E2; stroke-width:0.0500; stroke-opacity:1; 
stroke-linecap:round; stroke-linejoin:round;fill:none"
d="M 333.9475,172.9400
347.9475,172.9400
347.9475,186.9400
333.9475,186.9400
Z" /> 
<path style="fill:none; 
stroke:#FF26E2; stroke-width:0.0500; stroke-opacity:1; 
stroke-linecap:round; stroke-linejoin:round;fill:none"
d="M 210.1225,115.7900
224.1225,115.7900
224.1225,129.7900
210.1225,129.7900
Z" /> 
<path style="fill:none; 
stroke:#FF26E2; stroke-width:0.0500; stroke-opacity:1; 
stroke-linecap:round; stroke-linejoin:round;fill:none"
d="M 252.9850,134.8400
266.9850,134.8400
266.9850,148.8400
252.9850,148.8400
Z" /> 
<path style="fill:none; 
stroke:#FF26E2; stroke-width:0.0500; stroke-opacity:1; 
stroke-linecap:round; stroke-linejoin:round;fill:none"
d="M 302.9912,134.8400
316.9912,134.8400
316.9912,148.8400
302.9912,148.8400
Z" /> 
<path style="fill:none; 
stroke:#FF26E2; stroke-width:0.0500; stroke-opacity:1; 
stroke-linecap:round; stroke-linejoin:round;fill:none"
d="M 172.0225,115.7900
186.0225,115.7900
186.0225,129.7900
172.0225,129.7900
Z" /> 
<path style="fill:none; 
stroke:#FF26E2; stroke-width:0.0500; stroke-opacity:1; 
stroke-linecap:round; stroke-linejoin:round;fill:none"
d="M 286.3225,115.7900
300.3225,115.7900
300.3225,129.7900
286.3225,129.7900
Z" /> 
<path style="fill:none; 
stroke:#FF26E2; stroke-width:0.0500; stroke-opacity:1; 
stroke-linecap:round; stroke-linejoin:round;fill:none"
d="M 333.9475,72.9275
347.9475,72.9275
347.9475,86.9275
333.9475,86.9275
Z" /> 
<path style="fill:none; 
stroke:#FF26E2; stroke-width:0.0500; stroke-opacity:1; 
stroke-linecap:round; stroke-linejoin:round;fill:none"
d="M 333.9475,115.7900
347.9475,115.7900
347.9475,129.7900
333.9475,129.7900
Z" /> 
<path style="fill:none; 
stroke:#FF26E2; stroke-width:0.0500; stroke-opacity:1; 
stroke-linecap:round; stroke-linejoin:round;fill:none"
d="M 352.9975,153.8900
366.9975,153.8900
366.9975,167.8900
352.9975,167.8900
Z" /> 
<path style="fill:none; 
stroke:#FF26E2; stroke-width:0.0500; stroke-opacity:1; 
stroke-linecap:round; stroke-linejoin:round;fill:none"
d="M 276.7975,96.7400
290.7975,96.7400
290.7975,110.7400
276.7975,110.7400
Z" /> 
<path style="fill:none; 
stroke:#FF26E2; stroke-width:0.0500; stroke-opacity:1; 
stroke-linecap:round; stroke-linejoin:round;fill:none"
d="M 305.3725,96.7400
319.3725,96.7400
319.3725,110.7400
305.3725,110.7400
Z" /> 
<path style="fill:none; 
stroke:#D0D2CD; stroke-width:0.0500; stroke-opacity:1; 
stroke-linecap:round; stroke-linejoin:round;fill:none"
d="M 40.6730,32.0975
374.4730,32.0975
374.4730,194.2975
40.6730,194.2975
Z" /> 
</g> 
</svg>
